<svg width="140" height="63" viewBox="0 0 140 63" fill="none" xmlns="http://www.w3.org/2000/svg">
<path fill-rule="evenodd" clip-rule="evenodd" d="M54.3453 21.9004C57.9143 17.6825 63.2677 15.0869 69.27 15.0869C75.4345 15.0869 80.788 17.8447 84.5191 22.2248L85.4925 21.2515C81.5991 16.7092 75.9212 13.7891 69.4322 13.7891C63.1055 13.7891 57.4276 16.5469 53.6964 20.927L54.3453 21.9004Z" fill="white"/>
<path fill-rule="evenodd" clip-rule="evenodd" d="M67.4855 11.518L61.6455 12.6535L60.1854 5.67787L66.0255 4.5423L66.1877 5.8401L62.4566 6.65122L62.781 8.11124L66.35 7.30012L66.6744 8.59792L63.1055 9.40904L63.4299 11.0313L67.1611 10.2202L67.4855 11.518Z" fill="white"/>
<path fill-rule="evenodd" clip-rule="evenodd" d="M78.5168 6.97567L75.1101 6.32677L74.7856 7.78679L78.1924 8.59792L77.8679 9.89572L74.4612 9.0846L73.8123 12.0046L71.8656 11.518L73.3256 4.5423L78.8413 5.67787L78.5168 6.97567Z" fill="white"/>
<path fill-rule="evenodd" clip-rule="evenodd" d="M86.7902 18.9803L85.0057 17.3581L85.3302 15.898L82.4101 13.7891L81.1123 14.6002L79.1656 13.4647L86.1413 9.24681L88.088 10.5446L86.7902 18.9803ZM86.3035 11.3557L83.7079 12.978L85.8169 14.438L86.3035 11.3557Z" fill="white"/>
<path fill-rule="evenodd" clip-rule="evenodd" d="M55.1564 16.0603C53.8586 17.0336 51.7497 17.8447 50.1275 16.0603L47.8563 13.1402L49.3163 12.0046L51.5875 14.9247C52.3986 15.898 53.372 15.7358 54.1831 15.0869C54.9942 14.438 55.4809 13.4647 54.6698 12.4913L52.3986 9.57126L53.8586 8.43568L56.1298 11.3557C57.5898 12.978 56.7787 14.7625 55.1564 16.0603Z" fill="white"/>
<path fill-rule="evenodd" clip-rule="evenodd" d="M93.9281 12.0046C87.7636 5.51565 79.0034 1.46003 69.4322 1.46003C59.6987 1.46003 50.9386 5.51564 44.774 12.1669L43.8007 11.0313C50.2897 4.21784 59.3742 0 69.5944 0C79.6523 0 88.7369 4.21785 95.2259 10.8691L93.9281 12.0046Z" fill="white"/>
<path fill-rule="evenodd" clip-rule="evenodd" d="M100.742 40.394C96.5237 40.394 93.9281 36.825 93.9281 32.9316C93.9281 28.876 97.0104 25.956 100.904 25.956C105.284 25.956 107.879 29.3627 107.879 33.2561C107.879 37.6362 104.635 40.394 100.742 40.394ZM100.579 27.9027C97.9837 27.9027 97.1726 30.4983 97.1726 32.1205C97.1726 34.5539 98.3082 38.2851 101.39 38.2851C103.662 38.2851 104.797 36.3384 104.797 33.905C104.797 31.4716 103.824 27.9027 100.579 27.9027Z" fill="white"/>
<path fill-rule="evenodd" clip-rule="evenodd" d="M74.6234 38.2851C74.6234 39.0962 74.7856 39.2584 76.0834 39.5829V40.0695C74.7856 40.0695 73.8122 39.9073 73.1633 39.9073C72.3522 39.9073 71.5411 39.9073 70.5677 40.0695V39.5829C71.3789 39.4206 71.5411 39.0962 71.5411 38.1228V27.5782C71.5411 26.9293 71.2166 26.7671 70.5677 26.6049V25.956H76.8945C80.9501 25.956 82.2479 27.9027 82.2479 30.336C82.2479 32.9316 80.3012 34.7161 77.3812 34.7161C76.4078 34.7161 74.7856 34.2294 74.7856 33.7428C74.7856 33.5805 74.9478 33.5805 75.11 33.5805C75.2723 33.5805 75.5967 33.5805 75.9212 33.5805C78.1923 33.5805 79.0034 32.2827 79.0034 30.4983C79.0034 28.5516 77.8679 27.9027 75.9212 27.9027L74.6234 28.0649V38.2851Z" fill="white"/>
<path fill-rule="evenodd" clip-rule="evenodd" d="M86.3036 27.416C86.3036 26.7671 85.9791 26.6049 85.3302 26.4427V25.956C86.3035 25.956 87.1147 26.1182 87.9258 26.1182C88.7369 26.1182 89.548 26.1182 90.5214 25.956V26.4427C89.8725 26.4427 89.548 26.7671 89.548 27.416V38.6095C89.548 39.2584 89.8725 39.4206 90.5214 39.5829V40.0695C89.548 40.0695 88.7369 39.9073 87.9258 39.9073C87.1147 39.9073 86.3035 39.9073 85.3302 40.0695V39.5829C86.1413 39.5829 86.3036 39.2584 86.3036 38.6095V27.416Z" fill="white"/>
<path fill-rule="evenodd" clip-rule="evenodd" d="M112.26 27.416C112.26 26.7671 111.935 26.6049 111.286 26.4427V25.956C112.26 25.956 113.071 26.1182 113.882 26.1182C114.531 26.1182 115.18 26.1182 115.829 25.956L121.831 35.5272V27.7405C121.831 26.6049 121.182 26.6049 120.533 26.6049V26.1182C121.182 26.1182 121.993 26.2804 122.642 26.2804C123.291 26.2804 124.102 26.2804 124.751 26.1182V26.6049C123.94 26.6049 123.778 26.9293 123.778 27.5782V40.2318H121.506L114.369 29.2005V38.6095C114.369 39.7451 115.017 39.7451 115.666 39.7451V40.2318C115.017 40.2318 114.206 40.0695 113.557 40.0695C112.909 40.0695 112.097 40.0695 111.448 40.2318V39.7451C112.26 39.7451 112.422 39.4206 112.422 38.7717V27.416H112.26Z" fill="white"/>
<path fill-rule="evenodd" clip-rule="evenodd" d="M128.969 35.365C129.455 37.7984 130.915 38.934 133.349 38.934C134.647 38.934 136.593 38.6095 136.593 36.825C136.593 35.5272 135.295 35.2028 134.16 34.8783L132.538 34.3917C130.267 33.7428 127.995 32.7694 127.995 30.1738C127.995 26.7671 131.24 25.6315 134.647 25.6315C136.107 25.6315 137.404 25.7937 138.702 26.2804C138.702 27.9027 138.864 29.2005 138.864 30.336H138.378C137.891 28.2271 136.269 27.416 134.322 27.416C133.187 27.416 131.402 27.7404 131.402 29.3627C131.402 30.6605 132.538 30.9849 133.349 31.1472L135.62 31.7961C137.891 32.445 140 33.2561 140 36.1761C140 39.0962 137.08 40.7184 133.511 40.7184C131.889 40.7184 130.267 40.394 128.644 39.9073C128.644 38.1228 128.644 36.6628 128.482 35.365H128.969Z" fill="white"/>
<path fill-rule="evenodd" clip-rule="evenodd" d="M17.1959 27.416C17.1959 26.7671 16.8714 26.6049 16.2225 26.4427V25.956C17.1959 25.956 18.007 26.1182 18.8181 26.1182C19.6293 26.1182 20.4404 26.1182 21.4137 25.956V26.4427C20.7648 26.4427 20.4404 26.7671 20.4404 27.416V31.6339H25.6316V27.416C25.6316 26.7671 25.3071 26.6049 24.6582 26.4427V25.956C25.6316 25.956 26.4427 26.1182 27.2538 26.1182C28.0649 26.1182 28.8761 26.1182 29.8494 25.956V26.4427C29.0383 26.4427 28.8761 26.7671 28.8761 27.416V38.6095C28.8761 39.2584 29.2005 39.4206 29.8494 39.5829V40.0695C28.8761 40.0695 28.0649 39.9073 27.2538 39.9073C26.4427 39.9073 25.6316 39.9073 24.6582 40.0695V39.5829C25.4693 39.5829 25.6316 39.2584 25.6316 38.6095V33.7428H20.4404V38.6095C20.4404 39.2584 20.7648 39.4206 21.4137 39.5829V40.0695C20.4404 40.0695 19.6293 39.9073 18.8181 39.9073C18.007 39.9073 17.1959 39.9073 16.2225 40.0695V39.5829C17.0337 39.5829 17.1959 39.2584 17.1959 38.6095V27.416Z" fill="white"/>
<path fill-rule="evenodd" clip-rule="evenodd" d="M37.7984 34.0672C38.285 32.6072 39.0962 30.8227 39.5828 29.2005C40.0695 31.3094 40.394 32.7694 40.8806 34.0672H37.7984ZM32.4449 40.2317C33.2561 40.2317 33.905 40.0695 34.7161 40.0695C35.5272 40.0695 36.1761 40.0695 36.9872 40.2317V39.7451C36.3383 39.7451 36.0139 39.4206 36.0139 39.0962C36.0139 38.934 36.0139 38.6095 36.1761 38.2851L37.1495 35.6895H41.3673L42.0162 37.7984C42.1784 38.1228 42.1784 38.6095 42.1784 38.934C42.1784 39.4206 41.854 39.5829 41.0429 39.7451V40.2317C42.0162 40.2317 42.8273 40.0695 43.8007 40.0695C44.774 40.0695 45.5852 40.0695 46.5585 40.2317V39.7451C45.9096 39.5829 45.5852 39.2584 45.2607 38.2851L41.3673 26.1182C40.7184 26.1182 40.0695 26.2804 39.4206 26.2804C38.7717 26.2804 38.1228 26.2804 37.4739 26.1182V26.6049C38.1228 26.6049 38.285 26.9293 38.285 27.0915C38.285 27.2538 38.1228 27.5782 37.9606 27.9027L33.7427 38.6095C33.5805 39.0962 33.2561 39.5828 32.6072 39.5828L32.4449 40.2317Z" fill="white"/>
<path fill-rule="evenodd" clip-rule="evenodd" d="M50.9386 29.5249C50.9386 28.876 50.9386 28.3893 50.9386 27.416C50.9386 26.7671 50.7763 26.6049 49.9652 26.6049V26.1182C50.6141 26.1182 51.4252 26.2804 52.2364 26.2804C53.0475 26.2804 53.8586 26.2804 54.5075 26.1182L58.4009 36.0139L61.8076 26.1182C62.6187 26.1182 63.2676 26.2804 64.0788 26.2804C64.8899 26.2804 65.5388 26.2804 66.3499 26.1182V26.6049C65.5388 26.6049 65.5388 26.9293 65.5388 27.416C65.5388 28.0649 65.701 29.0382 65.701 29.6871L66.3499 38.934C66.3499 39.4206 66.9988 39.5828 67.4855 39.5828V40.0695C66.5121 40.0695 65.5388 39.9073 64.7277 39.9073C63.7543 39.9073 62.781 39.9073 61.9698 40.0695V39.5828C62.9432 39.4206 63.2676 39.2584 63.2676 38.2851C63.2676 37.7984 63.2676 36.825 63.1054 36.0139L62.6187 29.5249L59.0498 40.0695H57.2653L53.2097 29.3627L53.0475 35.6895C53.0475 36.825 53.0475 37.3117 53.0475 37.9606C53.0475 39.0962 53.2097 39.2584 54.5075 39.4206V39.9073C53.6964 39.9073 52.8852 39.7451 52.0741 39.7451C51.263 39.7451 50.4519 39.7451 49.803 39.9073V39.4206C50.6141 39.4206 50.9386 39.0962 51.1008 38.2851L50.9386 29.5249Z" fill="white"/>
<path fill-rule="evenodd" clip-rule="evenodd" d="M12.978 39.4206C11.518 40.5562 9.40904 41.0429 7.94902 41.0429C2.75782 41.0429 0 36.9872 0 32.9316C0 28.7138 2.92005 24.6582 8.43569 24.6582C10.3824 24.6582 11.8424 24.9826 12.3291 25.3071C12.3291 26.9293 12.4913 28.5516 12.4913 30.0116H11.8424C11.518 28.0649 10.0579 26.9293 8.11124 26.9293C5.35342 26.9293 3.2445 29.0382 3.2445 32.6072C3.2445 35.365 5.51564 38.4473 8.59791 38.4473C9.89571 38.4473 11.8424 37.7984 13.1402 36.6628L12.978 39.4206Z" fill="white"/>
<path fill-rule="evenodd" clip-rule="evenodd" d="M36.3383 48.0185C36.3383 47.5319 36.1761 47.3696 35.5272 47.3696V46.883C36.3383 46.883 36.825 47.0452 37.4739 47.0452C38.1228 47.0452 39.2584 47.0452 39.7451 46.883V47.3696C38.9339 47.3696 38.7717 47.8563 38.7717 48.343V56.4542H41.854C42.9896 56.4542 43.4762 55.9676 43.6385 54.6698H44.1251C43.9629 55.8053 43.8007 56.7787 43.8007 57.9143H35.5272V57.4276C36.0139 57.4276 36.3383 57.2654 36.3383 56.7787V48.0185Z" fill="white"/>
<path fill-rule="evenodd" clip-rule="evenodd" d="M46.883 48.0185C46.883 47.5319 46.7208 47.3696 46.0719 47.3696V46.883H54.5076C54.5076 47.8563 54.5076 48.5052 54.6698 49.4786H54.1831C54.0209 48.5052 53.8587 48.1808 52.8853 48.1808H49.3164V51.4253H51.5875C52.3987 51.4253 52.3987 51.1008 52.5609 50.6141H53.0476C53.0476 51.1008 52.8853 51.7497 52.8853 52.2364C52.8853 52.7231 52.8853 53.372 53.0476 53.8586H52.5609C52.3987 53.2097 52.3987 53.0475 51.5875 53.0475H49.3164V56.4542H53.0476C54.0209 56.4542 54.1831 56.1298 54.5076 54.832H54.9943C54.832 56.1298 54.832 57.1031 54.832 57.9143H46.0719V57.4276C46.5586 57.4276 46.883 57.2654 46.883 56.7787V48.0185Z" fill="white"/>
<path fill-rule="evenodd" clip-rule="evenodd" d="M56.9409 57.2654C57.4276 57.2654 57.5898 56.9409 57.752 56.4542L60.9965 48.1808C61.1588 47.8563 61.1588 47.6941 61.1588 47.5319C61.1588 47.3696 60.9965 47.0452 60.5099 47.0452V46.5585C60.9965 46.5585 61.4832 46.7207 62.1321 46.7207C62.6188 46.7207 63.1055 46.7207 63.7544 46.5585L66.8366 55.9676C67.1611 56.6165 67.3233 56.9409 67.81 57.1031V57.5898C67.1611 57.5898 66.3499 57.4276 65.7011 57.4276C65.0522 57.4276 64.241 57.4276 63.5921 57.5898V57.1031C64.241 56.9409 64.4033 56.7787 64.4033 56.4542C64.4033 56.292 64.241 55.8053 64.241 55.6431L63.7544 54.0209H60.5099L59.6987 55.9676C59.5365 56.1298 59.5365 56.4542 59.5365 56.6165C59.5365 56.9409 59.6987 57.1031 60.3476 57.1031V57.5898C59.861 57.5898 59.2121 57.4276 58.5632 57.4276C57.9143 57.4276 57.4276 57.4276 56.7787 57.5898L56.9409 57.2654ZM63.4299 53.0475C63.1055 51.9119 62.781 50.9386 62.4566 49.3163C62.1321 50.6141 61.4832 51.9119 61.1588 53.0475H63.4299Z" fill="white"/>
<path fill-rule="evenodd" clip-rule="evenodd" d="M76.7324 53.8586C76.7324 53.2097 76.4079 53.2097 75.759 53.2097V52.7231C76.4079 52.7231 77.0568 52.8853 77.8679 52.8853C78.6791 52.8853 79.328 52.8853 80.1391 52.7231V53.2097C79.4902 53.2097 79.328 53.372 79.328 54.1831V57.9143H78.3546L77.8679 56.6164C76.8946 57.5898 75.759 57.9143 74.6234 57.9143C71.5412 57.9143 69.4323 55.3187 69.4323 52.3986C69.4323 48.8297 71.8656 46.5585 75.4346 46.5585C76.5701 46.5585 77.8679 46.7207 78.6791 47.3696C78.6791 48.1808 78.6791 49.1541 78.8413 50.2897H78.3546C78.1924 48.8297 76.7324 48.0185 75.4346 48.0185C73.1634 48.0185 72.0279 49.803 72.0279 51.9119C72.0279 54.0209 73.1634 56.292 75.1101 56.292C76.2457 56.292 76.8946 55.8053 76.8946 54.9942L76.7324 53.8586Z" fill="white"/>
<path fill-rule="evenodd" clip-rule="evenodd" d="M83.3835 48.0185C83.3835 47.5319 83.2213 47.3696 82.5724 47.3696V46.883C83.0591 46.883 83.708 47.0452 84.5191 47.0452C85.3302 47.0452 86.1413 47.0452 86.7902 46.883V47.3696C86.1413 47.3696 85.8169 47.5319 85.8169 48.1808V54.3453C85.8169 56.292 86.628 56.6165 87.9258 56.6165C89.2236 56.6165 90.0347 56.292 90.0347 54.3453V48.1808C90.0347 47.5319 89.8725 47.3696 89.0614 47.3696V46.883C89.7103 46.883 90.3592 47.0452 91.3325 47.0452C91.9814 47.0452 92.6303 47.0452 93.2792 46.883V47.3696C92.7925 47.3696 92.4681 47.5319 92.4681 48.0185V53.8586C92.4681 56.9409 90.8459 57.9143 87.9258 57.9143C85.0058 57.9143 83.3835 56.9409 83.3835 54.0209V48.0185Z" fill="white"/>
<path fill-rule="evenodd" clip-rule="evenodd" d="M96.8482 48.0185C96.8482 47.5319 96.686 47.3696 96.0371 47.3696V46.883H104.473C104.473 47.8563 104.473 48.5052 104.635 49.4786H104.148C103.986 48.5052 103.824 48.1808 102.851 48.1808H99.2816V51.263H101.553C102.364 51.263 102.364 50.9386 102.526 50.4519H103.013C103.013 50.9386 102.851 51.5875 102.851 52.0742C102.851 52.5608 102.851 53.2097 103.013 53.6964H102.526C102.364 53.0475 102.364 52.8853 101.553 52.8853H99.2816V56.4542H103.013C103.986 56.4542 104.148 56.1298 104.473 54.832H104.959C104.797 56.1298 104.797 57.1031 104.797 57.9143H96.0371V57.4276C96.5238 57.4276 96.8482 57.2654 96.8482 56.7787V48.0185Z" fill="white"/>
<path fill-rule="evenodd" clip-rule="evenodd" d="M107.555 62.2943C108.691 62.2943 109.502 61.4832 109.502 60.3476C109.502 59.212 108.528 58.4009 107.555 58.4009C106.42 58.4009 105.608 59.212 105.608 60.3476C105.608 61.4832 106.42 62.2943 107.555 62.2943ZM105.933 60.1854C105.933 59.212 106.582 58.5631 107.555 58.5631C108.528 58.5631 109.177 59.212 109.177 60.1854C109.177 61.1587 108.528 61.8076 107.555 61.8076C106.744 61.9699 105.933 61.1587 105.933 60.1854ZM107.231 60.3476H107.555L108.204 61.321H108.528L107.88 60.3476C108.204 60.3476 108.528 60.1854 108.528 59.6987C108.528 59.212 108.204 59.0498 107.717 59.0498H106.906V61.321H107.231V60.3476ZM107.231 60.1854V59.5365H107.717C107.88 59.5365 108.204 59.5365 108.204 59.8609C108.204 60.1854 107.88 60.1854 107.717 60.1854H107.231Z" fill="white"/>
</svg>
