<svg width="200" height="200" viewBox="0 0 200 200" fill="none" xmlns="http://www.w3.org/2000/svg">
<circle cx="100" cy="100" r="98.5" fill="#051139" stroke="#5AF7DC" stroke-width="3"/>
<g clip-path="url(#clip0_175_46)">
<path d="M147.799 69.7673C142.687 69.7673 138.553 73.8484 138.553 78.8962C138.553 83.9439 142.687 88.0251 147.799 88.0251C148.017 88.0251 148.18 88.0251 148.398 88.0251V88.6158V104.672V118.848C148.398 122.393 145.515 125.239 141.925 125.239H51.4726C47.8827 125.239 45 122.393 45 118.848V61.3902C45 57.8461 47.8827 55 51.4726 55H141.925C145.515 55 148.398 57.8461 148.398 61.3902V69.3377V69.7673H147.799ZM70.6183 104.618C70.9446 105.585 71.3797 106.766 71.8693 108.216C69.6936 107.142 62.7315 110.203 60.2295 111.008C60.2295 111.008 58.8698 109.773 57.9995 109.397C57.5644 109.183 56.5309 109.344 55.987 109.773C55.8239 109.666 55.6607 109.451 55.3343 109.881C55.1168 110.203 55.2255 110.257 55.4431 110.364C55.3343 110.525 55.1712 110.794 55.0624 111.008C54.8992 110.955 54.736 110.794 54.5185 111.223C54.2465 111.706 54.5185 111.76 54.736 111.868C54.0289 113.264 52.8867 114.123 52.1796 115.573C51.9621 115.465 51.7989 115.358 51.5813 115.949C51.4182 116.378 51.5813 116.432 51.7989 116.539C51.6901 116.969 51.5813 117.345 51.5269 117.667C51.4726 117.667 51.0918 117.56 51.0374 117.989C50.983 118.58 51.0374 118.634 51.4182 118.687C51.4182 118.956 51.4182 119.224 51.4182 119.493C51.6357 120.352 52.3972 120.513 52.8323 120.191C55.2255 118.365 57.0749 117.184 58.4346 116.271C61.9701 115.949 71.7061 115.304 74.5888 115.036C76.003 115.143 80.1911 111.545 80.2455 110.31C80.2999 108.001 80.2455 106.444 80.1367 104.618C80.0279 103.115 79.8648 101.45 79.756 99.0871L80.4087 98.8723L80.4631 93.8783L81.8229 93.932C81.8229 93.932 81.8229 93.932 81.986 93.3413C85.4127 93.7172 91.9396 94.7375 96.2365 94.4153C97.0524 94.3616 97.8139 94.6838 98.3578 95.2745C99.4456 96.1874 107.496 97.0465 114.24 97.0465C115.056 99.3019 116.905 99.6778 116.905 99.6778C117.068 99.7852 117.177 99.6778 117.558 99.5167C117.775 99.7315 117.884 99.8389 118.265 99.6778C118.591 99.5167 118.591 99.3556 118.483 99.0871L118.809 98.8723C119.026 99.0871 119.19 99.1945 119.516 98.9797C119.788 98.7649 119.842 98.7112 119.625 98.389C120.332 97.9594 124.248 95.0597 124.248 95.0597C124.411 95.2208 124.466 95.2745 124.574 95.2745C124.683 95.2745 125.064 94.9523 125.118 94.8449C125.173 94.7375 125.064 94.5764 124.955 94.469L125.608 93.932C125.717 94.0931 125.825 94.1468 125.934 94.1468C126.043 94.0931 126.26 93.932 126.369 93.7709C126.424 93.6635 126.315 93.5024 126.206 93.395L126.641 92.858C126.478 92.1062 125.717 92.1599 125.009 92.2136C123.323 92.321 118.483 93.0728 116.633 92.9654C113.152 91.8377 100.044 87.0048 99.2824 86.6826C98.4666 86.3604 97.7051 86.3067 96.8348 86.3067C93.2994 84.4272 86.6093 82.9773 86.011 82.8162C85.8478 82.7625 85.9022 82.494 85.8478 82.2792C85.8478 82.2792 82.9651 81.7422 80.5719 81.7959C81.007 80.1313 81.6597 75.0298 81.6597 73.4726C82.0404 73.6874 82.3124 73.8484 82.7475 73.8484C83.5634 73.9558 84.4336 73.3652 85.5215 72.9356C86.0654 72.7208 86.1741 73.043 86.4461 72.8282C87.1532 72.3986 87.4795 71.1635 88.513 70.358C89.1657 69.821 89.8728 69.9821 90.1447 69.3914C90.6342 68.3711 90.3623 67.673 90.1991 66.6527C89.9271 65.0418 89.5464 63.9678 88.2954 62.9475C87.262 62.142 86.4461 61.8735 85.1407 61.8735C83.6178 61.8735 81.0614 62.5716 79.6472 66.0621C78.0699 65.1492 77.4716 64.7196 75.8398 64.1289C72.7939 63.0549 63.2754 65.1492 62.1876 65.6325C62.2964 66.1158 62.242 66.5453 62.242 66.5453C62.242 66.5453 61.0998 66.599 60.6103 67.2434C58.3802 70.4654 55.7695 74.9761 55.7695 74.9761C54.8448 75.1372 54.2465 75.8353 53.8114 76.7482C53.3762 77.7148 52.9411 77.8222 51.9621 78.4129C51.3094 78.6277 51.5269 79.3258 51.9077 79.3258C52.6148 79.2721 53.2131 78.8962 53.9202 78.3592C53.5394 79.4869 52.1796 80.2924 52.1252 80.7757C52.2884 81.42 53.7026 82.2792 55.6607 80.8294C56.259 80.3461 56.9117 79.9702 57.3468 79.3795C57.5644 79.111 57.7275 77.8759 57.9995 76.963C58.4346 76.7482 61.6437 73.8484 63.9825 71.5394C63.9825 71.5394 68.7146 70.5728 70.999 70.2506C70.999 70.2506 69.2585 71.0561 67.4636 71.7005C64.5264 82.4403 64.744 87.1659 66.3214 87.7029C65.1248 89.8508 67.8987 98.5501 69.3129 102.202L70.02 102.309C69.8024 102.255 70.1287 103.115 70.6183 104.618Z" fill="#D81A22"/>
<path d="M154 78.9499C154 82.1719 151.444 84.7494 148.289 84.7494C145.134 84.7494 142.578 82.1719 142.578 78.9499C142.578 75.728 145.134 73.1504 148.289 73.1504C151.444 73.1504 154 75.728 154 78.9499Z" fill="#898888"/>
<path d="M45.6527 132.81H51.255C52.1797 132.81 52.9411 133.133 53.5938 133.723C54.1377 134.26 54.4097 135.012 54.4097 135.925C54.4097 136.677 54.1377 137.267 53.6482 137.804C53.3763 138.073 52.9955 138.288 52.6148 138.449C53.1587 138.61 53.5938 138.878 53.9202 139.201C54.4641 139.738 54.736 140.436 54.736 141.295C54.736 142.315 54.4097 143.174 53.7026 143.872C53.1587 144.409 52.2884 144.678 51.2006 144.678H45.6527V132.81ZM47.2844 134.153V137.804H51.0918C51.5814 137.804 51.9621 137.643 52.2884 137.321C52.6692 136.945 52.8324 136.462 52.8324 135.871C52.8324 135.388 52.6692 134.905 52.2884 134.582C52.0165 134.314 51.6357 134.153 51.255 134.153H47.2844ZM47.2844 139.147V143.389H50.8743C51.5814 143.389 52.1253 143.228 52.506 142.852C52.9411 142.422 53.1587 141.939 53.1587 141.348C53.1587 140.704 52.9955 140.221 52.6148 139.845C52.1797 139.415 51.6357 139.201 50.9287 139.201H47.2844V139.147Z" fill="white"/>
<path d="M57.1292 132.81H58.7609V141.134C58.7609 141.778 58.9785 142.315 59.4136 142.745C59.9032 143.228 60.6646 143.496 61.6437 143.496C62.6227 143.496 63.3842 143.228 63.8737 142.745C64.3089 142.315 64.5264 141.778 64.5264 141.134V132.81H66.1582V141.187C66.1582 142.208 65.8318 143.013 65.1791 143.658C64.4176 144.409 63.2754 144.785 61.6981 144.785C60.1207 144.785 58.9241 144.409 58.217 143.658C57.5643 143.013 57.238 142.208 57.238 141.187V132.81H57.1292Z" fill="white"/>
<path d="M68.6602 132.81H70.4007L76.003 142.154V132.81H77.6347V144.624H75.8942L70.2919 135.28V144.678H68.6602V132.81Z" fill="white"/>
<path d="M80.0823 132.81H84.2705C85.6846 132.81 86.8812 133.294 87.8603 134.26C88.8937 135.28 89.3832 136.784 89.3832 138.825C89.3832 140.758 88.8393 142.261 87.7515 143.335C86.8812 144.195 85.6846 144.624 84.2705 144.624H80.0823V132.81ZM81.6597 134.153V143.335H84.1617C85.0319 143.335 85.7934 143.067 86.3373 142.53C87.2076 141.671 87.6427 140.436 87.6427 138.878C87.6427 137.214 87.2076 135.979 86.3917 135.119C85.739 134.475 84.9775 134.153 84.1617 134.153H81.6597Z" fill="white"/>
<path d="M91.722 132.81H99.4456V134.099H93.2994V137.751H98.9561V139.039H93.2994V143.282H99.7719V144.57H91.722V132.81Z" fill="white"/>
<path d="M102.981 133.669C103.634 133.025 104.667 132.703 105.973 132.703C107.441 132.703 108.529 133.079 109.29 133.831C109.943 134.475 110.269 135.227 110.269 136.14H108.638C108.638 135.603 108.475 135.119 108.094 134.743C107.659 134.314 107.006 134.099 106.136 134.099C105.157 134.099 104.45 134.26 104.123 134.636C103.797 134.958 103.634 135.334 103.634 135.764C103.634 136.193 103.743 136.462 103.906 136.677C104.123 136.891 104.558 137.16 105.157 137.375C106.245 137.858 107.441 138.341 108.801 138.986C109.182 139.147 109.508 139.362 109.834 139.684C110.324 140.167 110.596 140.811 110.596 141.51C110.596 142.422 110.269 143.228 109.617 143.872C108.91 144.57 107.767 144.893 106.19 144.893C104.667 144.893 103.471 144.463 102.6 143.658C102.002 143.067 101.676 142.208 101.676 141.026H103.307C103.307 141.832 103.471 142.476 103.851 142.852C104.341 143.335 105.157 143.604 106.245 143.604C107.224 143.604 107.931 143.389 108.42 142.906C108.801 142.53 108.964 142.154 108.964 141.778C108.964 141.348 108.801 141.026 108.529 140.758C108.311 140.543 107.931 140.274 107.387 140.06C106.897 139.845 106.299 139.576 105.537 139.254C104.722 138.878 104.014 138.61 103.525 138.341C103.144 138.18 102.818 138.019 102.546 137.697C102.111 137.267 101.893 136.73 101.893 136.032C102.002 135.066 102.328 134.314 102.981 133.669Z" fill="white"/>
<path d="M120.169 144.893H112.826V132.542H115.382V142.852H120.169V144.893Z" fill="white"/>
<path d="M122.453 132.542H125.01V144.893H122.453V132.542Z" fill="white"/>
<path d="M137.9 144.409C137.139 144.678 135.616 145 134.093 145C132.08 145 130.503 144.517 129.361 143.496C128.219 142.476 127.566 140.758 127.566 138.825C127.566 134.636 130.557 132.434 134.419 132.434C135.779 132.434 136.921 132.649 137.574 132.971L137.03 134.904C136.432 134.636 135.67 134.475 134.474 134.475C132.08 134.475 130.285 135.817 130.285 138.825C130.285 141.671 131.917 143.12 134.147 143.12C134.8 143.12 135.235 143.067 135.453 142.959V139.952H133.494V138.073H137.9V144.409Z" fill="white"/>
<path d="M150.573 144.893H147.854L146.875 141.617H143.285L142.36 144.893H139.75L143.557 132.542H146.82L150.573 144.893ZM146.548 139.845L145.733 137.052C145.515 136.301 145.297 135.28 145.134 134.529H145.08C144.917 135.28 144.699 136.301 144.482 137.052L143.666 139.899H146.548V139.845Z" fill="white"/>
</g>
<defs>
<clipPath id="clip0_175_46">
<rect width="109" height="90" fill="white" transform="translate(45 55)"/>
</clipPath>
</defs>
</svg>
