<svg width="100" height="70" viewBox="0 0 100 70" fill="none" xmlns="http://www.w3.org/2000/svg">
<path d="M97.0707 31.3931H71.1853V37.2553H97.0707V31.3931Z" fill="white"/>
<path d="M84.862 14.6968H74.7056V20.559H82.1515C82.63 20.5589 83.1027 20.6627 83.5371 20.8634C83.9714 21.0641 84.3569 21.3568 84.667 21.7212L94.1339 32.8507L94.0276 56.6304H78.7851C79.1241 57.5834 79.262 58.5963 79.1901 59.6052C79.1182 60.6141 78.8381 61.5972 78.3675 62.4926H94.0276C95.6116 62.4926 97.1307 61.8633 98.2508 60.7433C99.3709 59.6232 100 58.1041 100 56.5201V31.263C99.9984 30.902 99.8693 30.5532 99.6357 30.2781L87.3775 15.8649C87.0683 15.4991 86.683 15.2051 86.2486 15.0033C85.8141 14.8016 85.341 14.697 84.862 14.6968Z" fill="#5AF7DC"/>
<path d="M64.882 55.6692L36.298 55.7303C36.9301 56.9643 37.2036 58.3509 37.0873 59.7325C36.971 61.1142 36.4695 62.4355 35.64 63.5465L65.4533 63.4815C64.6402 62.3616 64.1558 61.037 64.0549 59.6567C63.954 58.2765 64.2404 56.8954 64.882 55.6692Z" fill="#5AF7DC"/>
<path d="M71.6168 51.4951C72.6819 51.4975 73.7345 51.7251 74.7055 52.1629V7.22729C74.7055 5.3105 73.9441 3.47221 72.5887 2.11683C71.2333 0.761454 69.3951 0 67.4783 0H3.90812C2.87162 1.2356e-07 1.87758 0.411749 1.14466 1.14466C0.411749 1.87758 0 2.87165 0 3.90815C0 4.94465 0.411749 5.93868 1.14466 6.6716C1.87758 7.40451 2.87162 7.81626 3.90812 7.81626H66.8893V53.1892C68.2244 52.0993 69.8934 51.5013 71.6168 51.4951Z" fill="#5AF7DC"/>
<path d="M22.7159 55.7597L16.0756 55.7735V28.9524H8.25936V56.1005C8.22536 57.7826 8.75282 59.428 9.7584 60.7769C10.4332 61.6542 11.3008 62.3644 12.2942 62.8525C13.2875 63.3406 14.3799 63.5936 15.4867 63.5917H15.5024L23.4132 63.574C22.5771 62.4673 22.0686 61.1482 21.9453 59.7668C21.822 58.3853 22.089 56.9969 22.7159 55.7597Z" fill="#5AF7DC"/>
<path d="M71.617 69.6117C69.5359 69.6113 67.5016 68.9938 65.7714 67.8373C64.0412 66.6808 62.6928 65.0372 61.8966 63.1144C61.1005 61.1915 60.8924 59.0758 61.2986 57.0347C61.7049 54.9936 62.7072 53.1188 64.1789 51.6474C65.6507 50.1759 67.5256 49.174 69.5668 48.7681C71.608 48.3622 73.7237 48.5707 75.6463 49.3672C77.569 50.1637 79.2123 51.5125 80.3685 53.2429C81.5247 54.9733 82.1418 57.0077 82.1418 59.0888C82.1387 61.879 81.0287 64.554 79.0556 66.5268C77.0824 68.4996 74.4072 69.609 71.617 69.6117ZM71.617 54.4263C70.6948 54.4263 69.7934 54.6997 69.0266 55.212C68.2599 55.7244 67.6622 56.4526 67.3093 57.3045C66.9564 58.1565 66.8641 59.094 67.044 59.9985C67.2239 60.9029 67.668 61.7337 68.3201 62.3858C68.9722 63.0378 69.803 63.4819 70.7074 63.6618C71.6119 63.8417 72.5493 63.7494 73.4013 63.3965C74.2533 63.0436 74.9815 62.446 75.4938 61.6792C76.0061 60.9125 76.2796 60.011 76.2796 59.0888C76.278 57.8527 75.7863 56.6677 74.9122 55.7936C74.0381 54.9196 72.8531 54.4278 71.617 54.4263Z" fill="white"/>
<path d="M29.5097 69.6117C27.4285 69.6117 25.3941 68.9945 23.6636 67.8382C21.9332 66.682 20.5844 65.0385 19.7879 63.1158C18.9915 61.193 18.7831 59.0772 19.1891 57.036C19.5952 54.9947 20.5974 53.1197 22.069 51.6481C23.5407 50.1765 25.4157 49.1743 27.4569 48.7682C29.4981 48.3622 31.6139 48.5706 33.5367 49.3671C35.4594 50.1635 37.1029 51.5122 38.2591 53.2427C39.4154 54.9731 40.0325 57.0076 40.0325 59.0889C40.0289 61.8786 38.9191 64.5529 36.9465 66.5256C34.9738 68.4982 32.2994 69.608 29.5097 69.6117ZM29.5097 54.4263C28.5876 54.4263 27.6861 54.6997 26.9193 55.2121C26.1526 55.7244 25.555 56.4526 25.2021 57.3045C24.8492 58.1565 24.7569 59.094 24.9368 59.9985C25.1167 60.9029 25.5608 61.7337 26.2128 62.3858C26.8649 63.0379 27.6957 63.4819 28.6001 63.6618C29.5046 63.8417 30.4421 63.7494 31.294 63.3965C32.146 63.0436 32.8742 62.446 33.3866 61.6792C33.8989 60.9125 34.1723 60.011 34.1723 59.0889C34.1707 57.8527 33.679 56.6677 32.8049 55.7936C31.9309 54.9196 30.7458 54.4278 29.5097 54.4263Z" fill="white"/>
<path d="M29.4649 20.6518H5.59059C4.67686 20.6518 3.80057 20.2888 3.15446 19.6427C2.50836 18.9966 2.14539 18.1203 2.14539 17.2066C2.14539 16.2928 2.50836 15.4165 3.15446 14.7704C3.80057 14.1243 4.67686 13.7614 5.59059 13.7614H29.4649C29.9173 13.7614 30.3653 13.8505 30.7833 14.0236C31.2013 14.1967 31.5811 14.4505 31.901 14.7704C32.2209 15.0903 32.4747 15.4701 32.6478 15.8881C32.8209 16.3061 32.9101 16.7541 32.9101 17.2066C32.9101 17.659 32.8209 18.107 32.6478 18.525C32.4747 18.943 32.2209 19.3228 31.901 19.6427C31.5811 19.9626 31.2013 20.2164 30.7833 20.3895C30.3653 20.5627 29.9173 20.6518 29.4649 20.6518Z" fill="white"/>
<path d="M19.7139 31.3399L9.91605 31.1784C9.13846 31.1655 8.39786 30.8442 7.85708 30.2853C7.31629 29.7264 7.01961 28.9757 7.03225 28.1981C7.03866 27.8131 7.12083 27.4332 7.27409 27.0801C7.42735 26.7269 7.64866 26.4074 7.92543 26.1398C8.20219 25.8722 8.52896 25.6617 8.88707 25.5204C9.24519 25.3791 9.62766 25.3097 10.0126 25.3162L19.8105 25.4777C20.5881 25.4907 21.3287 25.8119 21.8695 26.3708C22.4102 26.9297 22.7069 27.6805 22.6943 28.4581C22.6808 29.2353 22.3593 29.9754 21.8005 30.5158C21.2417 31.0562 20.4912 31.3526 19.7139 31.3399Z" fill="white"/>
</svg>
