<svg width="80" height="60" viewBox="0 0 80 60" fill="none" xmlns="http://www.w3.org/2000/svg">
<path d="M39.5975 43.5446C39.3602 43.3371 39.1662 43.0848 39.0264 42.8023C38.8867 42.5197 38.804 42.2124 38.783 41.8978C38.7621 41.5833 38.8033 41.2678 38.9043 40.9692C39.0054 40.6706 39.1643 40.3948 39.3719 40.1576L60.1707 16.3846C60.5898 15.9059 61.1818 15.6133 61.8166 15.571C62.4515 15.5287 63.0771 15.7402 63.556 16.159C64.0347 16.5782 64.3274 17.1702 64.3697 17.805C64.412 18.4399 64.2005 19.0656 63.7816 19.5445L42.9829 43.3175C42.564 43.7964 41.972 44.0893 41.3372 44.1319C40.7024 44.1745 40.0766 43.9633 39.5975 43.5446Z" fill="white"/>
<path d="M60.1596 47.2115C58.5942 47.2115 57.064 46.7474 55.7624 45.8777C54.4608 45.008 53.4464 43.7719 52.8473 42.3257C52.2483 40.8795 52.0916 39.288 52.397 37.7527C52.7024 36.2174 53.4562 34.8072 54.563 33.7003C55.6699 32.5934 57.0802 31.8395 58.6155 31.5341C60.1508 31.2288 61.7422 31.3856 63.1884 31.9846C64.6346 32.5837 65.8708 33.5981 66.7404 34.8997C67.6101 36.2012 68.0743 37.7315 68.0743 39.2969C68.0718 41.3952 67.2371 43.4068 65.7533 44.8906C64.2696 46.3743 62.2579 47.209 60.1596 47.2115ZM60.1596 36.1818C59.5434 36.1818 58.9411 36.3645 58.4288 36.7069C57.9165 37.0492 57.5173 37.5359 57.2815 38.1051C57.0458 38.6744 56.9842 39.3008 57.1045 39.9051C57.2249 40.5094 57.5217 41.0645 57.9575 41.5001C58.3933 41.9356 58.9485 42.2321 59.5529 42.3522C60.1572 42.4722 60.7836 42.4102 61.3528 42.1742C61.9219 41.9382 62.4083 41.5387 62.7504 41.0263C63.0925 40.5138 63.2749 39.9114 63.2746 39.2952C63.2737 38.4695 62.9453 37.6778 62.3612 37.0941C61.7772 36.5103 60.9853 36.1822 60.1596 36.1818Z" fill="white"/>
<path d="M41.7128 28.3838C40.1474 28.3838 38.6172 27.9197 37.3156 27.05C36.014 26.1803 34.9996 24.9442 34.4005 23.498C33.8015 22.0518 33.6448 20.4603 33.9502 18.925C34.2556 17.3897 35.0094 15.9795 36.1163 14.8726C37.2232 13.7657 38.6334 13.0119 40.1687 12.7065C41.704 12.4011 43.2954 12.5579 44.7416 13.1569C46.1879 13.7559 47.424 14.7704 48.2937 16.072C49.1633 17.3735 49.6275 18.9038 49.6275 20.4692C49.625 22.5675 48.7903 24.5791 47.3066 26.0629C45.8228 27.5466 43.8111 28.3813 41.7128 28.3838ZM41.7128 17.3558C41.0966 17.3558 40.4943 17.5385 39.9821 17.8808C39.4698 18.2232 39.0705 18.7098 38.8348 19.2791C38.599 19.8484 38.5374 20.4748 38.6578 21.0791C38.7781 21.6834 39.0749 22.2383 39.5107 22.6739C39.9465 23.1095 40.5017 23.4061 41.1061 23.5261C41.7105 23.6461 42.3368 23.5842 42.906 23.3482C43.4752 23.1122 43.9615 22.7127 44.3036 22.2002C44.6457 21.6877 44.8281 21.0853 44.8278 20.4692C44.827 19.6434 44.4985 18.8518 43.9144 18.268C43.3304 17.6843 42.5386 17.3562 41.7128 17.3558Z" fill="white"/>
<path d="M26.3251 8.12097H23.1252V12.8759H26.3251V8.12097Z" fill="white"/>
<path d="M26.3251 17.5782H23.1252V27.1649H26.3251V17.5782Z" fill="white"/>
<path d="M26.3251 31.9836H23.1252V41.5703H26.3251V31.9836Z" fill="white"/>
<path d="M26.3251 45.8278H23.1252V52.0066H26.3251V45.8278Z" fill="white"/>
<path d="M70.6518 59.198H3.43978C2.52775 59.1972 1.65331 58.8345 1.00841 58.1896C0.363508 57.5447 0.000847219 56.6703 0 55.7583V42.7879C0.00306883 41.9549 0.307569 41.1512 0.857249 40.5253C1.40693 39.8995 2.1646 39.4937 2.9902 39.3832C5.39209 39.1114 7.61007 37.9656 9.22159 36.164C10.8331 34.3623 11.7256 32.0308 11.7289 29.6136C11.7323 27.1963 10.8463 24.8624 9.23983 23.0562C7.63332 21.2501 5.41852 20.0981 3.0174 19.8196C2.18686 19.7138 1.42305 19.3098 0.868014 18.683C0.312979 18.0561 0.0045273 17.2491 0 16.4118V3.43983C0.000847219 2.5278 0.363508 1.65334 1.00841 1.00844C1.65331 0.363533 2.52775 0.000847219 3.43978 0H70.6518C73.1303 0.00254121 75.5066 0.988267 77.2591 2.74085C79.0117 4.49344 79.9975 6.86974 80 9.34827V49.853C79.9966 52.3309 79.0105 54.7064 77.258 56.4583C75.5055 58.2102 73.1298 59.1955 70.6518 59.198ZM6.4044 52.7984H70.6518C71.4335 52.7976 72.183 52.4867 72.7358 51.9339C73.2886 51.3811 73.5995 50.6316 73.6004 49.8498V9.34505C73.5995 8.56328 73.2886 7.81378 72.7358 7.26099C72.183 6.7082 71.4335 6.39724 70.6518 6.39639H6.4044V13.9976C9.78614 14.9749 12.7587 17.0247 14.8743 19.8382C16.9898 22.6517 18.1337 26.0765 18.1337 29.5967C18.1337 33.1168 16.9898 36.5416 14.8743 39.3551C12.7587 42.1686 9.78614 44.2184 6.4044 45.1957V52.8001V52.7984Z" fill="#5AF7DC"/>
</svg>
