<svg width="200" height="200" viewBox="0 0 200 200" fill="none" xmlns="http://www.w3.org/2000/svg">
<circle cx="100" cy="100" r="98.5" fill="#171D8D" stroke="#2CE8DA" stroke-width="3"/>
<path d="M114.803 112.09C114.803 131.447 106.665 136.333 90.172 144.558C92.2912 145.98 95.1474 147.681 100 150C112.715 143.939 125 135.993 125 114.811V70.1299H114.803V112.09ZM105.129 70.1299H75V79.0043H94.9631V107.421C94.9631 120.408 94.1953 121.614 77.4263 129.221C78.5934 132.189 80.2826 135.096 82.4939 137.724C101.443 129.221 105.129 124.83 105.129 110.111V70.1299ZM78.9619 50.0309V57.9159C78.9619 59.9258 77.7948 61.2863 75.3378 61.2863H75V59.6166H75.3071C76.4435 59.6166 77.0885 59.0291 77.0885 57.8541V51.6698H75.3686V50.0309H78.9619ZM82.3403 59.6784H84.0602V50.0309H85.9029V59.5238C85.9029 60.6988 85.2887 61.3173 84.0602 61.3173H82.3403C81.1118 61.3173 80.4975 60.6988 80.4975 59.5238V50.0309H82.3403V59.6784ZM91.0319 56.8955V50.0309H92.8747V56.9573C92.8747 60.0804 91.2469 61.2554 88.3292 61.2554H87.4079V50.0309H89.2506V59.431H89.3428C90.5713 59.431 91.0319 58.287 91.0319 56.8955ZM96.2531 51.7316V54.731H98.4029L98.0958 56.3389H96.2838V59.5547H98.9558L98.6486 61.2554H94.3796V50.0309H98.4951L98.8022 51.7316H96.2531ZM103.716 50.0309H105.498V61.2554H103.716V57.4212L101.966 53.525H101.873V61.2554H100.092V50.0309H101.843L103.593 54.2672H103.716V50.0309ZM111.916 51.7316H110.135V61.2554H108.292V51.7316H106.511L106.818 50.0309H111.609L111.916 51.7316ZM114.742 59.6784H116.462V50.0309H118.305V59.4929C118.305 60.6679 117.69 61.2863 116.462 61.2863H114.742C113.514 61.2863 112.899 60.6679 112.899 59.4929V50.0309H114.742V59.6784ZM119.687 57.5448H121.499V59.7712H123.188V58.1942C123.188 57.4212 123.004 57.081 122.42 56.7409L120.67 55.6277C120.025 55.1948 119.717 54.4527 119.717 53.8652V51.7934C119.717 50.6184 120.485 50 121.437 50H123.157C124.386 50 124.877 50.6184 124.877 51.7934V53.1849L123.096 53.6797V51.4533H121.499V53.154C121.499 53.7106 121.683 54.0816 122.205 54.4218L123.894 55.4731C124.601 55.906 124.969 56.5863 124.969 57.483V59.6475C124.969 60.8534 124.201 61.3173 123.219 61.3173H121.529C120.301 61.3173 119.687 60.8225 119.687 59.6475V57.5448Z" fill="white"/>
</svg>
