<svg width="200" height="200" viewBox="0 0 200 200" fill="none" xmlns="http://www.w3.org/2000/svg">
<circle cx="100" cy="100" r="98.5" fill="#171D8D" stroke="#2CE8DA" stroke-width="3"/>
<path d="M100 150C127.614 150 150 127.614 150 100C150 72.3858 127.614 50 100 50C72.3858 50 50 72.3858 50 100C50 127.614 72.3858 150 100 150Z" fill="#003E81"/>
<path d="M63.1963 100C63.1963 79.675 79.6733 63.1979 100 63.1962C120.325 63.1962 136.802 79.6732 136.802 100C136.802 120.325 120.325 136.802 100 136.802C79.6751 136.802 63.1981 120.325 63.1963 100Z" fill="white"/>
<path d="M75.0281 75.0282C68.6359 81.4205 64.6836 90.2456 64.6836 100C64.6836 109.754 68.6359 118.579 75.0281 124.972C81.4203 131.364 90.2454 135.314 99.9998 135.316C109.754 135.316 118.579 131.364 124.972 124.972C131.364 118.578 135.314 109.754 135.316 100C135.316 90.2456 131.364 81.4205 124.972 75.0282C118.578 68.636 109.754 64.6837 99.9998 64.6837C90.2454 64.6837 81.4203 68.636 75.0281 75.0282Z" fill="#199FD6"/>
<path d="M79.311 118.364C82.9365 117.942 84.6273 117.518 84.6273 113.532V84.8975C81.2439 80.7297 80.2775 80.5477 79.493 80.5477V79.0371H92.2386L113.2 104.832H113.32V86.5283C113.32 82.9046 112.595 80.9099 107.701 80.5477V79.0371H120.689V80.5477C116.339 81.0919 115.977 82.4806 115.977 85.3799V120.961H114.286L87.4047 88.2209H87.2845V112.383C87.2845 116.733 88.5531 117.88 93.0231 118.364V119.875H79.311V118.364Z" fill="white"/>
</svg>
