<svg width="200" height="200" viewBox="0 0 200 200" fill="none" xmlns="http://www.w3.org/2000/svg">
<circle cx="100" cy="100" r="98.5" fill="#091C3E" stroke="#BAF30F" stroke-width="3"/>
<g clip-path="url(#clip0_186_709)">
<path d="M106.72 55.134H101.325L99.6488 50L97.9724 55.134H92.574L96.934 58.3155L95.2771 63.4495L99.6488 60.2874L104.02 63.4495L102.36 58.3155L106.72 55.134Z" fill="#B9956F"/>
<path d="M129.488 127.115C129.274 126.52 129.021 125.843 128.745 125.1C133.564 119.682 136.435 112.888 136.435 105.505C136.435 92.8766 128.041 81.9591 115.844 76.7435C116.393 74.2659 117.349 71.5784 118.415 69.6842C118.827 68.9958 119.298 68.3346 119.796 67.724L119.932 67.5645C120.702 66.6505 121.449 65.9776 122.04 65.5148L121.538 64.3402C119.088 65.4176 113.927 67.8757 110.753 70.746C109.224 69.3264 106.377 67.8718 104.265 67.2067L103.865 68.1713L104.343 68.7974C105.65 70.5438 106.346 72.3135 106.661 74.0598C104.39 73.6786 102.049 73.4764 99.6488 73.4764C97.249 73.4764 94.9115 73.6786 92.644 74.0598C92.959 72.3173 93.6552 70.5438 94.9621 68.7974L95.4366 68.1713L95.036 67.2067C92.9279 67.8757 90.0731 69.3264 88.5524 70.746C85.3786 67.8757 80.2135 65.4176 77.7671 64.3402L77.2654 65.5148C77.8604 65.9776 78.6033 66.6505 79.3734 67.5645L79.5057 67.724C80.0074 68.3346 80.4741 68.9958 80.8864 69.6842C81.9521 71.5784 82.9089 74.2659 83.4573 76.7435C71.2563 81.9552 62.863 92.8727 62.863 105.502C62.863 112.884 65.7333 119.678 70.5523 125.096C70.2761 125.839 70.0272 126.516 69.8094 127.111C67.188 132.817 63.4697 136.022 61.385 137.48L61.8712 138.491C70.7857 137.243 73.831 138.176 75.8146 138.491L78.2455 131.557C84.274 135.318 91.6639 137.535 99.6449 137.535C107.626 137.535 115.02 135.318 121.048 131.557L123.479 138.491C125.459 138.176 128.508 137.243 137.423 138.491L137.909 137.48C135.82 136.025 132.106 132.817 129.484 127.111L129.488 127.115ZM127.392 105.505C127.392 109.282 126.692 112.888 125.42 116.194C121.348 105.152 116.151 90.2124 115.459 81.823C122.67 87.027 127.392 95.6926 127.392 105.505ZM106.829 77.6614C106.7 79.5749 106.276 81.4029 105.895 83.0715C105.895 83.0715 105.502 84.8489 105.495 84.8878C105.495 84.8995 100.473 105.074 99.6488 108.22C98.8281 105.074 93.8069 84.8995 93.8069 84.8878C93.7992 84.8489 93.4063 83.0715 93.4063 83.0715C93.0174 81.4029 92.5973 79.571 92.469 77.6575C94.7559 77.0235 97.1596 76.6851 99.641 76.6851C102.122 76.6851 104.538 77.0274 106.832 77.6652L106.829 77.6614ZM71.8902 105.502C71.8902 95.6809 76.6197 87.0114 83.8384 81.8074C83.15 90.1968 77.946 105.155 73.8699 116.205C72.5942 112.895 71.8941 109.286 71.8941 105.502H71.8902ZM99.6371 134.326C92.0528 134.326 85.1803 131.164 80.1746 126.045L89.058 100.694C89.8903 103.872 91.6561 110.457 91.6561 110.445L92.0411 112.16C92.4301 113.837 92.7373 115.182 92.7373 116.427C92.7373 118.278 92.0567 119.927 89.9409 122.152L90.2831 123.171C91.3761 123.852 93.383 124.447 94.826 124.517C95.281 126.71 97.8519 130.055 99.6527 131.599C101.453 130.055 104.024 126.71 104.479 124.517C105.922 124.451 107.929 123.852 109.018 123.171L109.364 122.152C107.245 119.927 106.564 118.278 106.564 116.427C106.564 115.178 106.875 113.837 107.26 112.16L107.649 110.445C107.649 110.445 109.411 103.872 110.243 100.694L119.123 126.034C114.113 131.16 107.237 134.326 99.6488 134.326H99.6371Z" fill="#00A0DE"/>
<path d="M66.2312 144.399C65.5195 144.069 64.7299 144.038 64.1232 144.038H61V149.903H64.2126C65.4067 149.903 66.1184 149.642 66.6785 149.195C67.4758 148.565 67.6781 147.771 67.6781 146.865C67.6781 145.675 67.2347 144.862 66.2351 144.403L66.2312 144.399ZM64.0337 148.643H63.2714V145.271H63.9676C64.6521 145.271 65.1733 145.446 65.1733 146.811C65.1733 148.433 64.6638 148.643 64.0298 148.643H64.0337Z" fill="#B9956F"/>
<path d="M73.4576 147.347C74.4961 147.231 75.2973 146.717 75.2973 145.706C75.2973 144.695 74.4572 144.034 71.8552 144.034H68.8098V149.899H71.0851V147.577C71.5791 147.577 71.7813 147.655 72.1236 148.258L73.0492 149.899H75.6785C75.3868 149.459 74.6361 148.374 74.3483 147.978C74.1305 147.674 73.7649 147.406 73.4576 147.347ZM71.7307 146.465H71.0851V145.271H71.7191C72.4308 145.271 72.7692 145.403 72.7692 145.827C72.7692 146.223 72.5047 146.465 71.7307 146.465Z" fill="#B9956F"/>
<path d="M80.019 143.936C77.6854 143.936 75.9585 145.029 75.9585 147.114C75.9585 148.872 77.382 150 79.949 150C83.1072 150 83.9123 148.429 83.9123 146.745C83.9123 145.457 83.0372 143.936 80.0229 143.936H80.019ZM79.984 148.814C79.0467 148.814 78.4983 148.44 78.4983 146.947C78.4983 145.827 78.9261 145.111 79.9568 145.111C80.9875 145.111 81.3647 145.465 81.3647 146.927C81.3647 148.39 80.9486 148.814 79.9801 148.814H79.984Z" fill="#B9956F"/>
<path d="M87.3622 144.038H85.0403V149.903H87.3622V144.038Z" fill="#B9956F"/>
<path d="M88.2764 145.282H90.3339V149.899H92.6325V145.282H94.69L94.9583 144.038H88.2764V145.282Z" fill="#B9956F"/>
<path d="M99.9833 144.038L97.1401 149.903H99.5243L100.007 148.775H102.103L102.562 149.903H105.024L102.344 144.038H99.9833ZM100.504 147.612L100.862 146.655C101.01 146.258 101.076 145.94 101.1 145.722C101.115 145.94 101.181 146.286 101.267 146.546L101.648 147.616H100.504V147.612Z" fill="#B9956F"/>
<path d="M109.761 147.888C109.761 148.456 109.536 148.763 108.723 148.763C107.91 148.763 107.669 148.405 107.669 147.865V144.038H105.382V148.024C105.382 148.806 105.483 148.95 105.814 149.269C106.346 149.747 107.311 150 108.707 150C110.461 150 111.449 149.545 111.819 149.059C112.009 148.822 112.037 148.596 112.037 148.09V144.038H109.761V147.888Z" fill="#B9956F"/>
<path d="M121.371 146.772C122.347 146.562 122.678 146.006 122.678 145.477C122.678 144.399 121.636 144.038 120.352 144.038H116.432V149.903H120.025C122.044 149.903 122.997 149.164 122.997 148.094C122.997 147.386 122.235 146.927 121.371 146.776V146.772ZM118.703 145.274H119.582C120.115 145.274 120.344 145.434 120.344 145.737C120.344 146.041 120.154 146.293 119.609 146.293H118.703V145.274ZM119.566 148.647H118.703V147.487H119.543C120.239 147.487 120.383 147.748 120.383 148.044C120.383 148.405 120.142 148.647 119.57 148.647H119.566Z" fill="#B9956F"/>
<path d="M128.442 147.888C128.442 148.456 128.212 148.763 127.403 148.763C126.594 148.763 126.349 148.405 126.349 147.865V144.038H124.062V148.024C124.062 148.806 124.164 148.95 124.494 149.269C125.027 149.747 125.992 150 127.392 150C129.142 150 130.134 149.545 130.503 149.059C130.69 148.822 130.717 148.596 130.717 148.09V144.038H128.442V147.888Z" fill="#B9956F"/>
<path d="M131.616 144.038V145.282H133.673V149.899H135.976V145.282H138.029L138.298 144.038H131.616Z" fill="#B9956F"/>
</g>
<defs>
<clipPath id="clip0_186_709">
<rect width="77.2977" height="100" fill="white" transform="translate(61 50)"/>
</clipPath>
</defs>
</svg>
