<svg width="200" height="200" viewBox="0 0 200 200" fill="none" xmlns="http://www.w3.org/2000/svg">
<circle cx="100" cy="100" r="98.5" fill="#171D8D" stroke="#2CE8DA" stroke-width="3"/>
<path d="M69 100.002C69 72.5403 82.7167 50.0766 100.091 50C117.47 50.0814 131.158 72.5403 131.177 100.002C131.197 127.464 117.47 149.919 100.091 150C82.7167 149.923 69.0144 127.46 69 100.012" fill="black"/>
<path d="M102.433 130.059C102.243 130.06 102.056 130.101 101.883 130.179C101.711 130.257 101.557 130.371 101.432 130.513C101.306 130.655 101.213 130.822 101.157 131.003C101.1 131.184 101.083 131.375 101.106 131.563C101.098 131.767 101.136 131.971 101.218 132.158C101.3 132.345 101.423 132.512 101.578 132.645C101.733 132.778 101.917 132.874 102.114 132.927C102.312 132.979 102.519 132.986 102.72 132.946C102.9 132.937 103.076 132.89 103.237 132.808C103.398 132.726 103.539 132.611 103.652 132.471C103.765 132.33 103.847 132.167 103.893 131.992C103.939 131.818 103.947 131.635 103.917 131.457C103.845 130.5 103.347 129.973 102.433 130.055C102.243 130.055 102.056 130.096 101.883 130.174C101.711 130.252 101.557 130.366 101.432 130.508C101.306 130.65 101.213 130.817 101.157 130.998C101.1 131.179 101.083 131.37 101.106 131.558C101.098 131.762 101.136 131.966 101.218 132.153C101.3 132.341 101.423 132.507 101.578 132.64C101.733 132.773 101.917 132.87 102.114 132.922C102.312 132.974 102.519 132.981 102.72 132.942C102.9 132.933 103.076 132.886 103.237 132.804C103.398 132.722 103.539 132.606 103.652 132.466C103.765 132.325 103.847 132.162 103.893 131.987C103.939 131.813 103.947 131.631 103.917 131.453C103.845 130.495 103.347 129.968 102.433 130.05M111.304 129.652C110.998 128.767 110.39 128.365 109.518 128.666C109.335 128.712 109.164 128.797 109.016 128.914C108.868 129.032 108.746 129.18 108.66 129.348C108.573 129.516 108.523 129.7 108.514 129.889C108.504 130.078 108.535 130.266 108.604 130.442C108.644 130.645 108.73 130.836 108.855 131C108.981 131.164 109.142 131.298 109.327 131.39C109.512 131.483 109.715 131.532 109.922 131.533C110.128 131.535 110.333 131.489 110.519 131.4C110.692 131.348 110.852 131.259 110.988 131.14C111.124 131.021 111.234 130.875 111.31 130.711C111.385 130.547 111.425 130.368 111.426 130.187C111.428 130.007 111.391 129.828 111.318 129.662C111.012 128.776 110.404 128.374 109.533 128.676C109.349 128.722 109.178 128.807 109.03 128.924C108.882 129.042 108.761 129.189 108.674 129.357C108.588 129.525 108.538 129.71 108.528 129.899C108.519 130.087 108.549 130.276 108.618 130.452C108.658 130.655 108.745 130.845 108.87 131.01C108.995 131.174 109.156 131.307 109.341 131.4C109.526 131.492 109.729 131.541 109.936 131.543C110.143 131.545 110.347 131.499 110.533 131.41C110.706 131.357 110.866 131.269 111.003 131.15C111.139 131.031 111.248 130.885 111.324 130.72C111.399 130.556 111.439 130.378 111.441 130.197C111.442 130.016 111.406 129.837 111.333 129.672M94.8153 132.989C94.6422 132.944 94.4616 132.935 94.2848 132.963C94.108 132.99 93.9387 133.054 93.7874 133.149C93.6362 133.245 93.5061 133.371 93.4054 133.519C93.3047 133.666 93.2354 133.833 93.2019 134.009C93.1715 134.192 93.1791 134.379 93.2243 134.558C93.2695 134.738 93.3513 134.906 93.4646 135.053C93.5778 135.199 93.7201 135.321 93.8825 135.41C94.0449 135.499 94.2239 135.553 94.4084 135.57C94.5799 135.602 94.7561 135.599 94.9266 135.562C95.097 135.525 95.2583 135.454 95.4009 135.353C95.5435 135.253 95.6645 135.125 95.7568 134.976C95.8491 134.828 95.9108 134.663 95.9383 134.491C95.9658 134.319 95.9585 134.143 95.9169 133.973C95.8752 133.804 95.8001 133.644 95.6959 133.504C95.5917 133.364 95.4605 133.247 95.3101 133.158C95.1597 133.07 94.9931 133.012 94.8201 132.989M95.4856 129.743C94.6908 129.595 94.1355 129.935 94.0254 130.538C94.004 130.839 94.1013 131.136 94.2964 131.366C94.4915 131.596 94.7688 131.741 95.0691 131.769C95.21 131.809 95.3579 131.82 95.5033 131.801C95.6487 131.782 95.7886 131.732 95.914 131.656C96.0395 131.58 96.1479 131.479 96.2324 131.359C96.3168 131.239 96.3755 131.103 96.4048 130.959C96.4251 130.819 96.4173 130.676 96.3819 130.539C96.3466 130.402 96.2844 130.273 96.1989 130.16C96.1134 130.047 96.0064 129.952 95.8839 129.88C95.7615 129.809 95.6261 129.762 95.4856 129.743C94.6908 129.595 94.1355 129.935 94.0254 130.538C94.004 130.839 94.1013 131.136 94.2964 131.366C94.4915 131.596 94.7688 131.741 95.0691 131.769C95.21 131.809 95.3579 131.82 95.5033 131.801C95.6487 131.782 95.7886 131.732 95.914 131.656C96.0395 131.58 96.1479 131.479 96.2324 131.359C96.3168 131.239 96.3755 131.103 96.4048 130.959C96.4251 130.819 96.4173 130.676 96.3819 130.539C96.3466 130.402 96.2844 130.273 96.1989 130.16C96.1134 130.047 96.0064 129.952 95.8839 129.88C95.7615 129.809 95.6261 129.762 95.4856 129.743ZM94.8201 132.989C94.647 132.944 94.4664 132.935 94.2896 132.963C94.1128 132.99 93.9435 133.054 93.7922 133.149C93.641 133.245 93.5109 133.371 93.4102 133.519C93.3095 133.666 93.2402 133.833 93.2067 134.009C93.1763 134.192 93.1839 134.379 93.2291 134.558C93.2743 134.738 93.3561 134.906 93.4694 135.053C93.5826 135.199 93.7249 135.321 93.8873 135.41C94.0497 135.499 94.2287 135.553 94.4132 135.57C94.5847 135.602 94.7609 135.599 94.9314 135.562C95.1018 135.525 95.2631 135.454 95.4057 135.353C95.5483 135.253 95.6693 135.125 95.7616 134.976C95.8539 134.828 95.9156 134.663 95.9431 134.491C95.9706 134.319 95.9633 134.143 95.9217 133.973C95.88 133.804 95.8049 133.644 95.7007 133.504C95.5965 133.364 95.4653 133.247 95.3149 133.158C95.1645 133.07 94.9979 133.012 94.8249 132.989M101.528 103.866V125.377C103.583 125.257 105.615 124.884 107.579 124.266V103.88L101.528 103.866ZM101.528 74.6613V95.3201H107.579V75.7481C105.603 75.1319 103.56 74.7558 101.494 74.6278M117.025 81.0433V95.2914H125.083C124.045 89.7825 121.209 84.7734 117.021 81.0481M117.021 103.861V118.942C121.422 115.022 124.316 109.688 125.203 103.861H117.021ZM90.7937 64.0949L88.2849 69.2656L91.9236 67.8293L90.7937 64.0949ZM90.7937 64.0949L88.2849 69.2656L91.9236 67.8293L90.7937 64.0949ZM117.763 69.0214C113.224 61.0931 106.971 56.2288 100.115 56.224H100.082C93.2258 56.224 86.9683 61.1074 82.4344 69.0214C79.5618 73.9815 77.4313 80.1767 76.2104 87.0805C78.5382 82.7767 81.9869 79.1827 86.1911 76.6794C90.3952 74.1761 95.1983 72.8567 100.091 72.8611C102.612 72.8608 105.119 73.2154 107.541 73.9144L107.632 73.9479C111.088 74.9457 114.312 76.6199 117.116 78.8735C119.921 81.127 122.249 83.915 123.967 87.0757C122.756 80.1623 120.616 73.9623 117.743 69.0023M93.0678 71.669L92.4311 69.4667L87.1646 71.5541L85.4794 75.0156C84.5325 75.6168 83.6257 76.2789 82.7648 76.9977L89.5968 62.8262L91.7656 61.4378L94.7435 71.2764C94.1881 71.3913 93.628 71.5158 93.087 71.6642M100.57 70.7977C99.5673 70.7979 98.5803 70.5483 97.6983 70.0712C96.8163 69.5941 96.0671 68.9046 95.5186 68.0652C94.97 67.2258 94.6394 66.2629 94.5566 65.2635C94.4737 64.2642 94.6413 63.2599 95.0442 62.3417C95.447 61.4234 96.0725 60.62 96.8639 60.0042C97.6553 59.3884 98.5877 58.9796 99.5769 58.8148C100.566 58.65 101.581 58.7343 102.529 59.0602C103.477 59.3861 104.329 59.9433 105.008 60.6813L103.711 61.8687C103.128 61.2366 102.369 60.7951 101.531 60.6017C100.694 60.4083 99.8175 60.4721 99.0169 60.7848C98.2163 61.0974 97.5287 61.6444 97.0439 62.3541C96.5592 63.0638 96.2998 63.9033 96.2998 64.7628C96.2998 65.6223 96.5592 66.4618 97.0439 67.1715C97.5287 67.8812 98.2163 68.4282 99.0169 68.7408C99.8175 69.0535 100.694 69.1173 101.531 68.9239C102.369 68.7305 103.128 68.289 103.711 67.6569L105.008 68.8443C104.445 69.4608 103.76 69.953 102.995 70.2894C102.231 70.6257 101.405 70.7989 100.57 70.7977ZM114.799 75.0587L112.884 68.5522L111.069 73.0479C110.773 72.9186 110.466 72.7845 110.16 72.6648L108.867 65.919L107.12 71.6642C106.579 71.5158 106.009 71.3865 105.454 71.2668L108.455 61.4186L109.892 62.3762L111.136 68.2889L112.625 64.5881L113.674 65.4211L116.982 76.6099C116.278 76.0497 115.546 75.5422 114.794 75.0491M88.2897 69.2273L91.9284 67.791L90.7937 64.0949L88.2897 69.2273ZM90.7985 64.0566L88.2897 69.2273L91.9284 67.791L90.7985 64.0566ZM90.7985 64.0566L88.2897 69.2273L91.9284 67.791L90.7985 64.0566ZM94.7914 132.951C94.6182 132.906 94.4376 132.897 94.2608 132.924C94.084 132.952 93.9147 133.015 93.7635 133.111C93.6122 133.207 93.4822 133.332 93.3815 133.48C93.2808 133.628 93.2115 133.795 93.1779 133.971C93.1475 134.154 93.1552 134.341 93.2004 134.52C93.2456 134.7 93.3274 134.868 93.4406 135.015C93.5539 135.161 93.6962 135.283 93.8586 135.372C94.021 135.461 94.2 135.515 94.3844 135.532C94.556 135.564 94.7322 135.561 94.9026 135.524C95.0731 135.486 95.2344 135.415 95.377 135.315C95.5196 135.214 95.6406 135.086 95.7329 134.938C95.8252 134.79 95.8869 134.625 95.9144 134.453C95.9419 134.28 95.9346 134.104 95.8929 133.935C95.8513 133.765 95.7762 133.606 95.6719 133.466C95.5677 133.326 95.4365 133.208 95.2861 133.12C95.1357 133.032 94.9691 132.974 94.7962 132.951M95.4617 129.705C94.6669 129.557 94.1115 129.897 94.0014 130.5C93.9801 130.801 94.0774 131.098 94.2725 131.328C94.4675 131.558 94.7449 131.702 95.0451 131.73C95.1861 131.771 95.3339 131.782 95.4794 131.763C95.6248 131.743 95.7646 131.694 95.8901 131.618C96.0156 131.542 96.1239 131.441 96.2084 131.321C96.2929 131.201 96.3516 131.065 96.3809 130.921C96.4011 130.781 96.3934 130.638 96.358 130.501C96.3227 130.363 96.2604 130.234 96.175 130.121C96.0895 130.008 95.9824 129.913 95.86 129.842C95.7376 129.77 95.6022 129.724 95.4617 129.705C94.6669 129.557 94.1115 129.897 94.0014 130.5C93.9801 130.801 94.0774 131.098 94.2725 131.328C94.4675 131.558 94.7449 131.702 95.0451 131.73C95.1861 131.771 95.3339 131.782 95.4794 131.763C95.6248 131.743 95.7646 131.694 95.8901 131.618C96.0156 131.542 96.1239 131.441 96.2084 131.321C96.2929 131.201 96.3516 131.065 96.3809 130.921C96.4011 130.781 96.3934 130.638 96.358 130.501C96.3227 130.363 96.2604 130.234 96.175 130.121C96.0895 130.008 95.9824 129.913 95.86 129.842C95.7376 129.77 95.6022 129.724 95.4617 129.705ZM94.7962 132.951C94.623 132.906 94.4424 132.897 94.2656 132.924C94.0888 132.952 93.9195 133.015 93.7683 133.111C93.617 133.207 93.487 133.332 93.3863 133.48C93.2856 133.628 93.2163 133.795 93.1827 133.971C93.1523 134.154 93.16 134.341 93.2052 134.52C93.2504 134.7 93.3322 134.868 93.4454 135.015C93.5587 135.161 93.701 135.283 93.8634 135.372C94.0258 135.461 94.2048 135.515 94.3892 135.532C94.6409 135.547 94.8917 135.49 95.1116 135.367C95.3316 135.243 95.5113 135.059 95.6294 134.837C95.7474 134.614 95.7988 134.362 95.7773 134.11C95.7558 133.859 95.6623 133.62 95.5081 133.42C95.3539 133.221 95.1455 133.07 94.9078 132.986C94.6701 132.902 94.4132 132.888 94.1679 132.946C93.9225 133.004 93.6991 133.132 93.5244 133.313C93.3497 133.495 93.2311 133.723 93.1827 133.971C93.1523 134.154 93.16 134.341 93.2052 134.52C93.2504 134.7 93.3322 134.868 93.4454 135.015C93.5587 135.161 93.701 135.283 93.8634 135.372C94.0258 135.461 94.2048 135.515 94.3892 135.532C94.5608 135.564 94.737 135.561 94.9074 135.524C95.0779 135.486 95.2392 135.415 95.3817 135.315C95.5243 135.214 95.6453 135.086 95.7376 134.938C95.8299 134.79 95.8917 134.625 95.9191 134.453C95.9466 134.28 95.9394 134.104 95.8977 133.935C95.8561 133.765 95.7809 133.606 95.6767 133.466C95.5725 133.326 95.4413 133.208 95.2909 133.12C95.1405 133.032 94.9739 132.974 94.801 132.951M95.4664 129.705C94.6717 129.557 94.1163 129.897 94.0062 130.5C93.9849 130.801 94.0822 131.098 94.2772 131.328C94.4723 131.558 94.7497 131.702 95.0499 131.73C95.1909 131.771 95.3387 131.782 95.4841 131.763C95.6296 131.743 95.7694 131.694 95.8949 131.618C96.0203 131.542 96.1287 131.441 96.2132 131.321C96.2977 131.201 96.3564 131.065 96.3857 130.921C96.4059 130.781 96.3981 130.638 96.3628 130.501C96.3274 130.363 96.2652 130.234 96.1797 130.121C96.0943 130.008 95.9872 129.913 95.8648 129.842C95.7423 129.77 95.607 129.724 95.4664 129.705ZM102.447 130.031C102.257 130.031 102.07 130.072 101.898 130.15C101.725 130.228 101.571 130.342 101.446 130.484C101.321 130.626 101.227 130.793 101.171 130.974C101.115 131.155 101.098 131.346 101.121 131.534C101.113 131.738 101.151 131.942 101.232 132.129C101.314 132.317 101.437 132.483 101.593 132.616C101.748 132.749 101.931 132.846 102.129 132.898C102.326 132.95 102.533 132.957 102.734 132.918C102.914 132.909 103.091 132.862 103.251 132.78C103.412 132.698 103.554 132.582 103.667 132.442C103.78 132.301 103.862 132.138 103.907 131.964C103.953 131.789 103.961 131.607 103.931 131.429C103.859 130.471 103.361 129.944 102.447 130.026M111.318 129.629C111.012 128.743 110.404 128.341 109.533 128.642C109.349 128.688 109.178 128.773 109.03 128.891C108.882 129.008 108.761 129.156 108.674 129.324C108.588 129.492 108.538 129.676 108.528 129.865C108.519 130.054 108.549 130.243 108.618 130.418C108.658 130.621 108.745 130.812 108.87 130.976C108.995 131.14 109.156 131.274 109.341 131.366C109.526 131.459 109.729 131.508 109.936 131.509C110.143 131.511 110.347 131.465 110.533 131.376C110.706 131.324 110.866 131.235 111.003 131.116C111.139 130.997 111.248 130.851 111.324 130.687C111.399 130.523 111.439 130.344 111.441 130.163C111.442 129.983 111.406 129.804 111.333 129.638C111.026 128.752 110.418 128.35 109.547 128.652C109.364 128.698 109.192 128.783 109.044 128.9C108.896 129.018 108.775 129.165 108.688 129.333C108.602 129.501 108.552 129.686 108.543 129.875C108.533 130.063 108.564 130.252 108.633 130.428C108.673 130.631 108.759 130.821 108.884 130.986C109.009 131.15 109.171 131.283 109.356 131.376C109.54 131.468 109.744 131.517 109.95 131.519C110.157 131.521 110.361 131.475 110.548 131.386C110.721 131.333 110.881 131.245 111.017 131.126C111.153 131.007 111.263 130.861 111.338 130.696C111.414 130.532 111.454 130.354 111.455 130.173C111.457 129.992 111.42 129.813 111.347 129.648M102.476 130.045C102.286 130.046 102.099 130.086 101.927 130.165C101.754 130.243 101.6 130.357 101.475 130.499C101.349 130.641 101.256 130.808 101.2 130.989C101.144 131.17 101.126 131.36 101.149 131.548C101.141 131.753 101.18 131.956 101.261 132.144C101.343 132.331 101.466 132.498 101.621 132.631C101.776 132.764 101.96 132.86 102.157 132.912C102.355 132.964 102.562 132.971 102.763 132.932C102.943 132.923 103.119 132.876 103.28 132.794C103.441 132.712 103.582 132.597 103.696 132.456C103.809 132.316 103.891 132.153 103.936 131.978C103.982 131.803 103.99 131.621 103.96 131.443C103.888 130.486 103.39 129.959 102.476 130.04M95.4952 129.715C94.7004 129.566 94.1451 129.906 94.0349 130.509C94.0136 130.81 94.1109 131.107 94.306 131.337C94.501 131.567 94.7784 131.712 95.0786 131.74C95.2196 131.78 95.3675 131.791 95.5129 131.772C95.6583 131.753 95.7981 131.704 95.9236 131.628C96.0491 131.552 96.1575 131.45 96.2419 131.331C96.3264 131.211 96.3851 131.075 96.4144 130.931C96.4346 130.79 96.4269 130.648 96.3915 130.51C96.3562 130.373 96.294 130.244 96.2085 130.131C96.123 130.018 96.0159 129.923 95.8935 129.851C95.7711 129.78 95.6357 129.733 95.4952 129.715ZM94.8297 132.961C94.6565 132.916 94.476 132.907 94.2991 132.934C94.1223 132.962 93.953 133.025 93.8018 133.121C93.6505 133.216 93.5205 133.342 93.4198 133.49C93.3191 133.638 93.2498 133.805 93.2162 133.98C93.1858 134.163 93.1935 134.35 93.2387 134.53C93.2839 134.709 93.3657 134.878 93.4789 135.024C93.5922 135.171 93.7345 135.292 93.8969 135.381C94.0593 135.47 94.2383 135.525 94.4227 135.541C94.6744 135.557 94.9252 135.5 95.1451 135.376C95.3651 135.253 95.5448 135.069 95.6629 134.846C95.7809 134.623 95.8323 134.371 95.8108 134.12C95.7893 133.869 95.6958 133.629 95.5416 133.43C95.3874 133.23 95.179 133.079 94.9413 132.995C94.7036 132.911 94.4467 132.897 94.2014 132.955C93.956 133.014 93.7326 133.141 93.5579 133.323C93.3832 133.505 93.2646 133.733 93.2162 133.98C93.1858 134.163 93.1935 134.35 93.2387 134.53C93.2839 134.709 93.3657 134.878 93.4789 135.024C93.5922 135.171 93.7345 135.292 93.8969 135.381C94.0593 135.47 94.2383 135.525 94.4227 135.541C94.5943 135.573 94.7705 135.57 94.9409 135.533C95.1114 135.496 95.2727 135.425 95.4153 135.324C95.5579 135.224 95.6789 135.096 95.7712 134.948C95.8635 134.8 95.9252 134.635 95.9527 134.462C95.9801 134.29 95.9729 134.114 95.9312 133.944C95.8896 133.775 95.8145 133.616 95.7102 133.476C95.606 133.336 95.4748 133.218 95.3244 133.13C95.174 133.041 95.0074 132.984 94.8345 132.961M95.5 129.715C94.7052 129.566 94.1498 129.906 94.0397 130.509C94.0184 130.81 94.1157 131.107 94.3108 131.337C94.5058 131.567 94.7832 131.712 95.0834 131.74C95.2244 131.78 95.3722 131.791 95.5177 131.772C95.6631 131.753 95.8029 131.704 95.9284 131.628C96.0539 131.552 96.1622 131.45 96.2467 131.331C96.3312 131.211 96.3899 131.075 96.4192 130.931C96.4394 130.79 96.4317 130.648 96.3963 130.51C96.361 130.373 96.2987 130.244 96.2133 130.131C96.1278 130.018 96.0207 129.923 95.8983 129.851C95.7759 129.78 95.6405 129.733 95.5 129.715ZM102.48 130.04C102.291 130.041 102.104 130.082 101.931 130.16C101.759 130.238 101.605 130.352 101.48 130.494C101.354 130.636 101.26 130.803 101.204 130.984C101.148 131.165 101.131 131.356 101.154 131.544C101.146 131.748 101.184 131.951 101.266 132.139C101.348 132.326 101.471 132.493 101.626 132.626C101.781 132.759 101.965 132.855 102.162 132.907C102.36 132.96 102.567 132.966 102.768 132.927C102.948 132.918 103.124 132.871 103.285 132.789C103.446 132.707 103.587 132.592 103.7 132.451C103.813 132.311 103.895 132.148 103.941 131.973C103.986 131.798 103.995 131.616 103.965 131.438C103.893 130.481 103.395 129.954 102.48 130.035M111.352 129.638C111.046 128.752 110.437 128.35 109.566 128.652C109.383 128.698 109.211 128.783 109.063 128.9C108.915 129.018 108.794 129.165 108.708 129.333C108.621 129.501 108.571 129.686 108.562 129.875C108.552 130.063 108.583 130.252 108.652 130.428C108.692 130.631 108.778 130.821 108.903 130.986C109.029 131.15 109.19 131.283 109.375 131.376C109.559 131.468 109.763 131.517 109.97 131.519C110.176 131.521 110.38 131.475 110.567 131.386C110.74 131.333 110.9 131.245 111.036 131.126C111.172 131.007 111.282 130.861 111.357 130.696C111.433 130.532 111.473 130.354 111.474 130.173C111.476 129.992 111.439 129.813 111.366 129.648C111.06 128.762 110.452 128.36 109.58 128.661C109.397 128.708 109.226 128.792 109.078 128.91C108.93 129.027 108.808 129.175 108.722 129.343C108.635 129.511 108.586 129.695 108.576 129.884C108.566 130.073 108.597 130.262 108.666 130.438C108.706 130.64 108.792 130.831 108.918 130.995C109.043 131.16 109.204 131.293 109.389 131.385C109.574 131.478 109.777 131.527 109.984 131.528C110.191 131.53 110.395 131.485 110.581 131.395C110.754 131.343 110.914 131.254 111.05 131.135C111.187 131.017 111.296 130.87 111.372 130.706C111.447 130.542 111.487 130.363 111.489 130.183C111.49 130.002 111.453 129.823 111.381 129.657M102.509 130.055C102.32 130.055 102.133 130.096 101.96 130.174C101.788 130.252 101.634 130.366 101.508 130.508C101.383 130.65 101.289 130.817 101.233 130.998C101.177 131.179 101.16 131.37 101.183 131.558C101.175 131.762 101.213 131.966 101.295 132.153C101.376 132.341 101.5 132.507 101.655 132.64C101.81 132.773 101.993 132.87 102.191 132.922C102.389 132.974 102.596 132.981 102.796 132.942C102.977 132.933 103.153 132.886 103.314 132.804C103.474 132.722 103.616 132.606 103.729 132.466C103.842 132.325 103.924 132.162 103.97 131.987C104.015 131.813 104.023 131.631 103.993 131.453C103.921 130.495 103.424 129.968 102.509 130.05M95.5287 129.724C94.7339 129.576 94.1786 129.916 94.0684 130.519C94.0471 130.82 94.1444 131.117 94.3395 131.347C94.5345 131.577 94.8119 131.721 95.1122 131.749C95.2531 131.79 95.401 131.801 95.5464 131.782C95.6918 131.762 95.8316 131.713 95.9571 131.637C96.0826 131.561 96.191 131.46 96.2754 131.34C96.3599 131.22 96.4186 131.084 96.4479 130.94C96.4682 130.8 96.4604 130.657 96.425 130.52C96.3897 130.383 96.3275 130.254 96.242 130.141C96.1565 130.027 96.0494 129.932 95.927 129.861C95.8046 129.79 95.6692 129.743 95.5287 129.724ZM94.8632 132.97C94.69 132.925 94.5095 132.916 94.3327 132.944C94.1558 132.971 93.9866 133.035 93.8353 133.13C93.684 133.226 93.554 133.351 93.4533 133.499C93.3526 133.647 93.2833 133.814 93.2498 133.99C93.2194 134.173 93.227 134.36 93.2722 134.539C93.3174 134.719 93.3992 134.887 93.5124 135.034C93.6257 135.18 93.768 135.302 93.9304 135.391C94.0928 135.48 94.2718 135.534 94.4562 135.551C94.6278 135.583 94.804 135.58 94.9744 135.543C95.1449 135.506 95.3062 135.435 95.4488 135.334C95.5914 135.233 95.7124 135.105 95.8047 134.957C95.897 134.809 95.9587 134.644 95.9862 134.472C96.0137 134.3 96.0064 134.123 95.9647 133.954C95.9231 133.785 95.848 133.625 95.7438 133.485C95.6395 133.345 95.5084 133.228 95.358 133.139C95.2075 133.051 95.0409 132.993 94.868 132.97M100.091 127.158C95.2035 127.16 90.4056 125.843 86.2041 123.346C82.0026 120.848 78.5532 117.262 76.22 112.967C77.4409 119.847 79.5714 126.028 82.444 130.998C86.9779 138.907 93.2354 143.766 100.101 143.766H100.24C107.048 143.714 113.257 138.864 117.772 130.998C120.621 126.028 122.751 119.847 123.972 112.967C121.64 117.266 118.19 120.853 113.986 123.352C109.782 125.85 104.981 127.165 100.091 127.158ZM88.419 135.101L86.7146 134.517L88.5004 129.274C87.8831 129.437 87.2284 129.381 86.6476 129.116L86.3172 129.006L86.4848 128.527L86.8247 127.57L87.0785 127.646C87.5119 127.813 87.9891 127.828 88.4318 127.688C88.8746 127.547 89.2566 127.261 89.5154 126.876L91.0618 127.407L88.419 135.101ZM97.9943 131.074C97.9438 131.419 97.7907 131.74 97.555 131.996C97.3193 132.252 97.012 132.432 96.6729 132.511C97.0607 132.719 97.3685 133.05 97.5486 133.452C97.7287 133.854 97.771 134.304 97.6688 134.732C97.4868 135.766 96.4719 137.255 94.1068 136.829C91.7416 136.403 91.2342 134.914 91.4448 133.784C91.4938 133.332 91.6884 132.908 91.9992 132.575C92.31 132.243 92.7203 132.02 93.1684 131.941C92.8634 131.766 92.6215 131.499 92.4771 131.178C92.3327 130.858 92.2931 130.5 92.364 130.155C92.6082 128.757 93.9679 128.13 95.5383 128.408C97.3815 128.748 98.2002 129.916 97.9943 131.055M102.906 137.155C101.508 137.279 100.412 136.676 100.034 135.613L101.293 135.134C101.422 135.416 101.649 135.642 101.931 135.771C102.213 135.899 102.532 135.921 102.83 135.833C103.543 135.68 104.266 135.153 104.123 133.439H104.094C103.899 133.696 103.648 133.903 103.36 134.047C103.072 134.191 102.754 134.266 102.433 134.268C100.695 134.411 99.5886 133.31 99.4785 131.931C99.3062 129.906 100.541 128.858 102.313 128.719C105.444 128.46 105.75 131.524 105.846 132.683C106.109 135.867 104.549 137.021 102.916 137.164M111.725 135.436C110.394 135.915 109.197 135.594 108.556 134.656L109.667 133.885C109.859 134.126 110.131 134.29 110.434 134.348C110.737 134.406 111.051 134.354 111.318 134.201C111.979 133.87 112.534 133.191 111.979 131.539H111.955C111.833 131.838 111.643 132.104 111.399 132.316C111.155 132.528 110.865 132.68 110.552 132.76C108.905 133.325 107.565 132.525 107.115 131.223C106.459 129.308 107.402 127.986 109.078 127.393C112.051 126.373 113.09 129.274 113.478 130.361C114.507 133.396 113.277 134.905 111.725 135.436ZM109.499 128.666C109.316 128.712 109.144 128.797 108.996 128.914C108.848 129.032 108.727 129.18 108.641 129.348C108.554 129.516 108.504 129.7 108.495 129.889C108.485 130.078 108.516 130.266 108.585 130.442C108.625 130.645 108.711 130.836 108.836 131C108.962 131.164 109.123 131.298 109.308 131.39C109.492 131.483 109.696 131.532 109.903 131.533C110.109 131.535 110.313 131.489 110.5 131.4C110.673 131.348 110.833 131.259 110.969 131.14C111.105 131.021 111.215 130.875 111.29 130.711C111.366 130.547 111.406 130.368 111.407 130.187C111.409 130.007 111.372 129.828 111.299 129.662C110.993 128.776 110.385 128.374 109.513 128.676M102.428 130.059C102.238 130.06 102.051 130.101 101.879 130.179C101.706 130.257 101.552 130.371 101.427 130.513C101.302 130.655 101.208 130.822 101.152 131.003C101.096 131.184 101.079 131.375 101.102 131.563C101.093 131.767 101.132 131.971 101.213 132.158C101.295 132.345 101.418 132.512 101.573 132.645C101.729 132.778 101.912 132.874 102.11 132.927C102.307 132.979 102.514 132.986 102.715 132.946C102.895 132.937 103.072 132.89 103.232 132.808C103.393 132.726 103.535 132.611 103.648 132.471C103.761 132.33 103.843 132.167 103.888 131.992C103.934 131.818 103.942 131.635 103.912 131.457C103.84 130.5 103.342 129.973 102.428 130.055M95.4473 129.729C94.6525 129.581 94.0972 129.921 93.9871 130.524C93.9657 130.825 94.063 131.122 94.2581 131.352C94.4532 131.582 94.7305 131.726 95.0308 131.754C95.1717 131.795 95.3196 131.806 95.465 131.787C95.6104 131.767 95.7503 131.718 95.8757 131.642C96.0012 131.566 96.1096 131.465 96.194 131.345C96.2785 131.225 96.3372 131.089 96.3665 130.945C96.3868 130.805 96.379 130.662 96.3436 130.525C96.3083 130.387 96.2461 130.258 96.1606 130.145C96.0751 130.032 95.9681 129.937 95.8456 129.866C95.7232 129.794 95.5878 129.748 95.4473 129.729ZM94.7818 132.975C94.6087 132.93 94.4281 132.921 94.2513 132.948C94.0745 132.976 93.9052 133.039 93.7539 133.135C93.6027 133.231 93.4726 133.356 93.3719 133.504C93.2712 133.652 93.2019 133.819 93.1684 133.995C93.138 134.178 93.1456 134.365 93.1908 134.544C93.236 134.724 93.3178 134.892 93.4311 135.039C93.5443 135.185 93.6866 135.307 93.849 135.396C94.0114 135.485 94.1904 135.539 94.3749 135.556C94.6265 135.571 94.8773 135.514 95.0973 135.391C95.3172 135.267 95.497 135.083 95.615 134.861C95.7331 134.638 95.7844 134.386 95.7629 134.134C95.7414 133.883 95.6479 133.644 95.4937 133.444C95.3395 133.245 95.1311 133.094 94.8934 133.01C94.6557 132.926 94.3988 132.912 94.1535 132.97C93.9081 133.028 93.6847 133.156 93.51 133.337C93.3353 133.519 93.2167 133.747 93.1684 133.995C93.138 134.178 93.1456 134.365 93.1908 134.544C93.236 134.724 93.3178 134.892 93.4311 135.039C93.5443 135.185 93.6866 135.307 93.849 135.396C94.0114 135.485 94.1904 135.539 94.3749 135.556C94.5464 135.588 94.7226 135.585 94.8931 135.548C95.0635 135.51 95.2248 135.439 95.3674 135.339C95.51 135.238 95.631 135.11 95.7233 134.962C95.8156 134.814 95.8773 134.649 95.9048 134.477C95.9323 134.304 95.925 134.128 95.8834 133.959C95.8417 133.789 95.7666 133.63 95.6624 133.49C95.5582 133.35 95.427 133.232 95.2766 133.144C95.1262 133.056 94.9596 132.998 94.7866 132.975M95.4521 129.729C94.6573 129.581 94.102 129.921 93.9918 130.524C93.9705 130.825 94.0678 131.122 94.2629 131.352C94.458 131.582 94.7353 131.726 95.0356 131.754C95.1765 131.795 95.3244 131.806 95.4698 131.787C95.6152 131.767 95.755 131.718 95.8805 131.642C96.006 131.566 96.1144 131.465 96.1988 131.345C96.2833 131.225 96.342 131.089 96.3713 130.945C96.3916 130.805 96.3838 130.662 96.3484 130.525C96.3131 130.387 96.2509 130.258 96.1654 130.145C96.0799 130.032 95.9728 129.937 95.8504 129.866C95.728 129.794 95.5926 129.748 95.4521 129.729ZM102.433 130.055C102.243 130.055 102.056 130.096 101.883 130.174C101.711 130.252 101.557 130.366 101.432 130.508C101.306 130.65 101.213 130.817 101.157 130.998C101.1 131.179 101.083 131.37 101.106 131.558C101.098 131.762 101.136 131.966 101.218 132.153C101.3 132.341 101.423 132.507 101.578 132.64C101.733 132.773 101.917 132.87 102.114 132.922C102.312 132.974 102.519 132.981 102.72 132.942C102.9 132.933 103.076 132.886 103.237 132.804C103.398 132.722 103.539 132.606 103.652 132.466C103.765 132.325 103.847 132.162 103.893 131.987C103.939 131.813 103.947 131.631 103.917 131.453C103.845 130.495 103.347 129.968 102.433 130.05M111.304 129.652C110.998 128.767 110.39 128.365 109.518 128.666C109.335 128.712 109.164 128.797 109.016 128.914C108.868 129.032 108.746 129.18 108.66 129.348C108.573 129.516 108.523 129.7 108.514 129.889C108.504 130.078 108.535 130.266 108.604 130.442C108.644 130.645 108.73 130.836 108.855 131C108.981 131.164 109.142 131.298 109.327 131.39C109.512 131.483 109.715 131.532 109.922 131.533C110.128 131.535 110.333 131.489 110.519 131.4C110.692 131.348 110.852 131.259 110.988 131.14C111.124 131.021 111.234 130.875 111.31 130.711C111.385 130.547 111.425 130.368 111.426 130.187C111.428 130.007 111.391 129.828 111.318 129.662C111.012 128.776 110.404 128.374 109.533 128.676C109.349 128.722 109.178 128.807 109.03 128.924C108.882 129.042 108.761 129.189 108.674 129.357C108.588 129.525 108.538 129.71 108.528 129.899C108.519 130.087 108.549 130.276 108.618 130.452C108.658 130.655 108.745 130.845 108.87 131.01C108.995 131.174 109.156 131.307 109.341 131.4C109.526 131.492 109.729 131.541 109.936 131.543C110.143 131.545 110.347 131.499 110.533 131.41C110.706 131.357 110.866 131.269 111.003 131.15C111.139 131.031 111.248 130.885 111.324 130.72C111.399 130.556 111.439 130.378 111.441 130.197C111.442 130.016 111.406 129.837 111.333 129.672M102.461 130.069C102.272 130.07 102.085 130.11 101.912 130.189C101.74 130.267 101.586 130.381 101.46 130.523C101.335 130.665 101.241 130.832 101.185 131.013C101.129 131.194 101.112 131.384 101.135 131.572C101.127 131.777 101.165 131.98 101.247 132.168C101.329 132.355 101.452 132.522 101.607 132.655C101.762 132.788 101.945 132.884 102.143 132.936C102.341 132.988 102.548 132.995 102.748 132.956C102.929 132.947 103.105 132.9 103.266 132.818C103.427 132.736 103.568 132.621 103.681 132.48C103.794 132.339 103.876 132.176 103.922 132.002C103.967 131.827 103.975 131.645 103.945 131.467C103.874 130.509 103.376 129.983 102.461 130.064M95.4808 129.739C94.6861 129.59 94.1307 129.93 94.0206 130.533C93.9993 130.834 94.0965 131.131 94.2916 131.361C94.4867 131.591 94.764 131.736 95.0643 131.764C95.2052 131.804 95.3531 131.815 95.4985 131.796C95.6439 131.777 95.7838 131.728 95.9092 131.652C96.0347 131.576 96.1431 131.474 96.2276 131.354C96.312 131.235 96.3708 131.098 96.4 130.955C96.4203 130.814 96.4125 130.671 96.3772 130.534C96.3418 130.397 96.2796 130.268 96.1941 130.155C96.1086 130.042 96.0016 129.947 95.8791 129.875C95.7567 129.804 95.6213 129.757 95.4808 129.739ZM94.8153 132.985C94.6422 132.94 94.4616 132.93 94.2848 132.958C94.108 132.985 93.9387 133.049 93.7874 133.145C93.6362 133.24 93.5061 133.366 93.4054 133.514C93.3047 133.662 93.2354 133.829 93.2019 134.004C93.1715 134.187 93.1791 134.374 93.2243 134.554C93.2695 134.733 93.3513 134.902 93.4646 135.048C93.5778 135.195 93.7201 135.316 93.8825 135.405C94.0449 135.494 94.2239 135.549 94.4084 135.565C94.66 135.581 94.9108 135.523 95.1308 135.4C95.3507 135.277 95.5305 135.093 95.6485 134.87C95.7666 134.647 95.8179 134.395 95.7964 134.144C95.7749 133.893 95.6815 133.653 95.5273 133.454C95.3731 133.254 95.1646 133.103 94.9269 133.019C94.6892 132.935 94.4323 132.921 94.187 132.979C93.9417 133.038 93.7183 133.165 93.5435 133.347C93.3688 133.529 93.2502 133.757 93.2019 134.004C93.1715 134.187 93.1791 134.374 93.2243 134.554C93.2695 134.733 93.3513 134.902 93.4646 135.048C93.5778 135.195 93.7201 135.316 93.8825 135.405C94.0449 135.494 94.2239 135.549 94.4084 135.565C94.5799 135.597 94.7561 135.594 94.9266 135.557C95.097 135.52 95.2583 135.449 95.4009 135.348C95.5435 135.248 95.6645 135.12 95.7568 134.972C95.8491 134.824 95.9108 134.659 95.9383 134.486C95.9658 134.314 95.9585 134.138 95.9169 133.968C95.8752 133.799 95.8001 133.64 95.6959 133.5C95.5917 133.36 95.4605 133.242 95.3101 133.154C95.1597 133.065 94.9931 133.008 94.8201 132.985M95.4856 129.739C94.6908 129.59 94.1355 129.93 94.0254 130.533C94.004 130.834 94.1013 131.131 94.2964 131.361C94.4915 131.591 94.7688 131.736 95.0691 131.764C95.21 131.804 95.3579 131.815 95.5033 131.796C95.6487 131.777 95.7886 131.728 95.914 131.652C96.0395 131.576 96.1479 131.474 96.2324 131.354C96.3168 131.235 96.3755 131.098 96.4048 130.955C96.4251 130.814 96.4173 130.671 96.3819 130.534C96.3466 130.397 96.2844 130.268 96.1989 130.155C96.1134 130.042 96.0064 129.947 95.8839 129.875C95.7615 129.804 95.6261 129.757 95.4856 129.739ZM102.466 130.064C102.277 130.065 102.089 130.106 101.917 130.184C101.744 130.262 101.59 130.376 101.465 130.518C101.34 130.66 101.246 130.827 101.19 131.008C101.134 131.189 101.117 131.38 101.14 131.568C101.132 131.772 101.17 131.975 101.252 132.163C101.333 132.35 101.456 132.517 101.612 132.65C101.767 132.783 101.95 132.879 102.148 132.931C102.346 132.984 102.553 132.99 102.753 132.951C102.934 132.942 103.11 132.895 103.271 132.813C103.431 132.731 103.573 132.616 103.686 132.475C103.799 132.335 103.881 132.172 103.927 131.997C103.972 131.822 103.98 131.64 103.95 131.462C103.878 130.505 103.38 129.978 102.466 130.059C102.277 130.06 102.089 130.101 101.917 130.179C101.744 130.257 101.59 130.371 101.465 130.513C101.34 130.655 101.246 130.822 101.19 131.003C101.134 131.184 101.117 131.375 101.14 131.563C101.132 131.767 101.17 131.971 101.252 132.158C101.333 132.345 101.456 132.512 101.612 132.645C101.767 132.778 101.95 132.874 102.148 132.927C102.346 132.979 102.553 132.986 102.753 132.946C102.934 132.937 103.11 132.89 103.271 132.808C103.431 132.726 103.573 132.611 103.686 132.471C103.799 132.33 103.881 132.167 103.927 131.992C103.972 131.818 103.98 131.635 103.95 131.457C103.878 130.5 103.38 129.973 102.466 130.055M95.4856 129.729C94.6908 129.581 94.1355 129.921 94.0254 130.524C94.004 130.825 94.1013 131.122 94.2964 131.352C94.4915 131.582 94.7688 131.726 95.0691 131.754C95.21 131.795 95.3579 131.806 95.5033 131.787C95.6487 131.767 95.7886 131.718 95.914 131.642C96.0395 131.566 96.1479 131.465 96.2324 131.345C96.3168 131.225 96.3755 131.089 96.4048 130.945C96.4251 130.805 96.4173 130.662 96.3819 130.525C96.3466 130.387 96.2844 130.258 96.1989 130.145C96.1134 130.032 96.0064 129.937 95.8839 129.866C95.7615 129.794 95.6261 129.748 95.4856 129.729ZM94.8201 132.975C94.647 132.93 94.4664 132.921 94.2896 132.948C94.1128 132.976 93.9435 133.039 93.7922 133.135C93.641 133.231 93.5109 133.356 93.4102 133.504C93.3095 133.652 93.2402 133.819 93.2067 133.995C93.1763 134.178 93.1839 134.365 93.2291 134.544C93.2743 134.724 93.3561 134.892 93.4694 135.039C93.5826 135.185 93.7249 135.307 93.8873 135.396C94.0497 135.485 94.2287 135.539 94.4132 135.556C94.5847 135.588 94.7609 135.585 94.9314 135.548C95.1018 135.51 95.2631 135.439 95.4057 135.339C95.5483 135.238 95.6693 135.11 95.7616 134.962C95.8539 134.814 95.9156 134.649 95.9431 134.477C95.9706 134.304 95.9633 134.128 95.9217 133.959C95.88 133.789 95.8049 133.63 95.7007 133.49C95.5965 133.35 95.4653 133.232 95.3149 133.144C95.1645 133.056 94.9979 132.998 94.8249 132.975" fill="white"/>
<path d="M121.296 65.2679C115.814 56.3964 108.302 51.0054 100.096 51.0198C91.8899 51.0342 84.3781 56.4011 78.8914 65.2679C73.4047 74.1347 70.0007 86.4246 70.0103 100.002C70.0198 113.58 73.4143 125.856 78.8866 134.732C84.3589 143.608 91.8803 148.985 100.091 148.975C108.302 148.966 115.809 143.589 121.291 134.732C126.773 125.875 130.177 113.585 130.172 100.002C130.167 86.4198 126.773 74.149 121.291 65.2583M100.091 146.17C84.7084 146.093 72.6866 125.344 72.6674 100.012C72.6483 74.6804 84.7132 53.9259 100.091 53.8397C115.474 53.9259 127.496 74.6804 127.51 100.012C127.525 125.344 115.479 146.089 100.091 146.17ZM101.489 102.526V96.6511H108.886V76.179C111.33 77.0783 113.619 78.3527 115.67 79.9565V96.6511H125.274C125.427 97.7618 125.509 98.8812 125.518 100.002C125.517 100.843 125.474 101.684 125.389 102.521H115.68V120.039C113.626 121.644 111.336 122.922 108.891 123.826V102.535L101.489 102.526ZM96.7398 74.8145V125.19C95.1258 124.979 93.5356 124.615 91.9905 124.104V75.9061C93.5347 75.3899 95.1252 75.0244 96.7398 74.8145ZM87.2459 78.0701V121.925C85.5341 120.922 83.9437 119.726 82.5061 118.358V81.6369C83.9473 80.2726 85.5372 79.0746 87.2459 78.0653M74.6687 100.002C74.6614 95.737 75.7284 91.5384 77.7711 87.7939V112.187C75.7284 108.451 74.6613 104.26 74.6687 100.002Z" fill="#E71C29"/>
</svg>
