<svg width="200" height="200" viewBox="0 0 200 200" fill="none" xmlns="http://www.w3.org/2000/svg">
<circle cx="100" cy="100" r="98.5" fill="#171D8D" stroke="#2CE8DA" stroke-width="3"/>
<path d="M100 149C127.614 149 150 126.614 150 99C150 71.3858 127.614 49 100 49C72.3858 49 50 71.3858 50 99C50 126.614 72.3858 149 100 149Z" stroke="#E5B236" stroke-width="15"/>
<path d="M100 143.927C124.813 143.927 144.927 123.812 144.927 99.0002C144.927 74.1879 124.813 54.0736 100 54.0736C75.188 54.0736 55.0737 74.1879 55.0737 99.0002C55.0737 123.812 75.188 143.927 100 143.927Z" fill="#FFFFFC" stroke="#712927" stroke-width="10"/>
<path d="M122.985 97.2462V85.2743L114.599 78.7443L108.076 62.8851C108.076 62.8851 97.0507 67.7051 97.0507 77.8116L84.7829 69.4151C84.7829 69.4151 79.5028 74.5463 79.5028 83.5642C79.5028 83.5642 79.1925 89.6281 83.0745 93.0487L76.5519 96.7801L83.0745 101.911L75.7755 107.353L84.1612 109.53L70.9614 124.3L91.4597 119.636V124.3L100.932 119.791V124.3L105.281 120.569L107.61 120.413C107.61 120.413 115.53 126.166 120.81 123.367C122.829 122.59 125.779 117.925 125.779 117.925H119.723L114.754 120.569L114.443 117.925L111.648 117.77L110.871 115.127L108.387 114.971L108.076 113.416C108.076 113.416 104.349 113.572 104.349 109.373C104.349 109.373 109.139 107.926 124.191 114.385L132.911 108.644L122.985 97.2462Z" fill="#403A3A"/>
<path d="M101.536 96.0892C101.536 96.0892 104.963 99.9788 109.324 100.135C109.324 100.135 113.218 99.9788 115.554 98.2674C115.554 98.2674 113.841 94.0664 107.922 93.7554C107.922 93.7554 104.339 93.2884 101.536 96.0892Z" fill="#835356"/>
</svg>
