<svg width="200" height="200" viewBox="0 0 200 200" fill="none" xmlns="http://www.w3.org/2000/svg">
<circle cx="100" cy="100" r="98.5" fill="#171D8D" stroke="#2CE8DA" stroke-width="3"/>
<g clip-path="url(#clip0_186_1085)">
<path d="M100 50C90.111 50 80.444 52.9325 72.2215 58.4265C63.9991 63.9206 57.5904 71.7295 53.806 80.8658C50.0217 90.0021 49.0315 100.055 50.9608 109.755C52.89 119.454 57.6521 128.363 64.6447 135.355C71.6373 142.348 80.5465 147.11 90.2455 149.039C99.9446 150.969 109.998 149.978 119.134 146.194C128.27 142.41 136.079 136.001 141.574 127.779C147.068 119.556 150 109.889 150 100C150.005 93.4325 148.715 86.9285 146.204 80.8601C143.693 74.7916 140.01 69.2777 135.366 64.6337C130.722 59.9898 125.208 56.3071 119.14 53.7961C113.071 51.2851 106.567 49.9951 100 50ZM100 142.857C76.3571 142.857 57.1435 123.643 57.1435 100C57.1435 76.3571 76.3571 57.1435 100 57.1435C123.643 57.1435 142.857 76.3571 142.857 100C142.857 123.643 123.643 142.857 100 142.857Z" fill="black"/>
<path d="M74.1509 124.642L75.0797 114C72.698 109.717 71.4416 104.9 71.428 100C71.4208 94.1503 73.2127 88.4398 76.5605 83.6429L73.2024 76.357C67.2949 83.0666 64.1155 91.7459 64.2911 100.684C64.4667 109.622 67.9845 118.169 74.1509 124.642ZM125.866 124.642C132.03 118.167 135.544 109.618 135.716 100.68C135.888 91.7421 132.705 83.0641 126.795 76.357L123.439 83.6429C126.787 88.4398 128.579 94.1503 128.571 100C128.561 104.9 127.307 109.716 124.929 114L125.866 124.642ZM75.8574 73.6429L81.2155 85.1434L77.4368 127.715C79.5384 129.406 81.815 130.866 84.2276 132.072L87.2265 97.9299L92.9899 110.357V93.4282L81.715 69.2858C79.6423 70.5693 77.6827 72.0269 75.8574 73.6429ZM107.01 110.357L112.795 97.9277L115.794 132.07C118.206 130.864 120.483 129.403 122.585 127.713L118.786 85.1434L124.144 73.6429C122.319 72.0269 120.359 70.5693 118.287 69.2858L107.01 93.4282V110.357ZM84.9373 67.6407L87.9362 74.0701C90.5972 72.8125 93.4435 71.9922 96.3656 71.6407V128.355C93.5944 128.008 90.8931 127.237 88.3568 126.068L87.715 133.568C95.6564 136.426 104.345 136.426 112.287 133.568L111.643 126.068C109.106 127.226 106.409 127.996 103.643 128.353V71.6429C106.565 71.9944 109.411 72.8147 112.072 74.0723L115.071 67.6429C110.354 65.432 105.209 64.2859 99.9998 64.2859C94.7906 64.2859 89.6452 65.432 84.9286 67.6429L84.9373 67.6407Z" fill="white"/>
<path d="M100 57.1434C76.3571 57.1434 57.1436 76.357 57.1436 100C57.1436 123.643 76.3571 142.856 100 142.856C123.643 142.856 142.857 123.643 142.857 100C142.857 76.357 123.643 57.1434 100 57.1434ZM75.0713 114L74.1512 124.642C67.9875 118.167 64.4733 109.618 64.3014 100.68C64.1294 91.7421 67.3123 83.0641 73.2224 76.357L76.5609 83.6429C73.213 88.4398 71.4212 94.1503 71.4283 100C71.4392 104.9 72.6926 109.716 75.0713 114ZM84.2148 132.072C81.8022 130.866 79.5256 129.406 77.424 127.715L81.2093 85.1434L75.8511 73.6429C77.6764 72.0269 79.636 70.5692 81.7087 69.2858L92.9902 93.4282V110.357L87.2049 97.9277L84.2148 132.072ZM100 135.706C95.8124 135.705 91.6564 134.98 87.7153 133.564L88.3571 126.068C90.8908 127.235 93.5891 128.006 96.3571 128.353V71.6429C93.4351 71.9944 90.5888 72.8147 87.9278 74.0722L84.9289 67.6429C89.6456 65.432 94.7909 64.2859 100 64.2859C105.209 64.2859 110.355 65.432 115.071 67.6429L112.072 74.0722C109.411 72.8147 106.565 71.9944 103.643 71.6429V128.357C106.409 127.999 109.106 127.228 111.643 126.068L112.285 133.568C108.343 134.983 104.188 135.706 100 135.706ZM115.785 132.063L112.786 97.9277L107.01 110.357V93.4282L118.296 69.2858C120.369 70.5692 122.328 72.0269 124.153 73.6429L118.795 85.1434L122.563 127.715C120.466 129.405 118.193 130.866 115.785 132.072V132.063ZM125.862 124.635L124.933 113.993C127.309 109.711 128.561 104.897 128.572 100C128.579 94.1503 126.787 88.4398 123.439 83.6429L126.797 76.357C132.705 83.0666 135.884 91.7459 135.709 100.684C135.533 109.622 132.015 118.169 125.849 124.642L125.862 124.635Z" fill="#001EA0"/>
</g>
<defs>
<clipPath id="clip0_186_1085">
<rect width="100" height="100" fill="white" transform="translate(50 50)"/>
</clipPath>
</defs>
</svg>
