<svg width="200" height="200" viewBox="0 0 200 200" fill="none" xmlns="http://www.w3.org/2000/svg">
<circle cx="100" cy="100" r="98.5" fill="#091C3E" stroke="#BAF30F" stroke-width="3"/>
<mask id="mask0_186_756" style="mask-type:luminance" maskUnits="userSpaceOnUse" x="59" y="50" width="82" height="100">
<path d="M140.96 50H59V150H140.96V50Z" fill="white"/>
</mask>
<g mask="url(#mask0_186_756)">
<path d="M127.362 50.2849C119.931 52.1612 110.212 53.2002 99.989 53.2177H99.7698C89.6563 53.2177 79.9899 52.2094 72.5505 50.3814L71.4282 50.1052L63.3093 60.2582L64.0414 61.3629C65.7164 64.3287 66.3927 67.7547 65.9703 71.1345C65.7161 73.3746 64.7648 77.3289 63.6556 81.9144C61.5733 90.4848 59 101.155 59 108.695C59 122.421 64.6069 129.256 81.2174 135.766L82.927 136.432C89.3362 138.913 96.2583 141.074 98.5336 146.339C99.1879 147.486 99.675 148.72 99.9802 150.004C100.304 148.722 100.799 147.489 101.453 146.339C104.671 140.579 110.659 138.918 117.06 136.436L118.769 135.77C135.468 129.225 140.851 122.671 140.921 108.796C140.96 101.545 138.4 90.7478 136.344 82.0547C135.24 77.3946 134.284 73.3659 134.034 71.1213C133.612 67.7415 134.288 64.3155 135.963 61.3497L136.686 60.2494L135.871 59.2148L128.488 49.9824L127.362 50.2849Z" fill="#FEBD11"/>
<path d="M132.237 71.3406C131.496 64.7648 134.459 60.381 134.459 60.381L127.805 52.0516C120.514 53.8929 110.743 55.0239 99.9934 55.037H99.7699C89.1215 55.037 79.42 53.9455 72.1209 52.1481L65.5451 60.3722C65.5451 60.3722 68.5086 64.756 67.7677 71.3318C67.0269 77.9076 60.8237 97.293 60.8237 108.687C60.8237 121.198 65.5583 127.669 81.8925 134.073C89.5204 137.063 99.9014 140.649 100.007 146.291C100.112 140.645 110.497 137.059 118.121 134.073C134.455 127.669 139.058 121.636 139.124 108.77C139.181 97.8103 132.986 77.912 132.25 71.3274" fill="#E03127"/>
<path d="M99.9934 55.0238H99.7699C89.1215 55.0238 79.42 53.9323 72.1209 52.1349L65.5451 60.359C65.5451 60.359 68.5086 64.7428 67.7677 71.3186C67.0269 77.8944 60.8237 97.2798 60.8237 108.673C60.8237 121.185 65.5583 127.655 81.8925 134.06C89.5204 137.05 99.9014 140.636 100.007 146.278V55.0238H99.9934Z" fill="#061922"/>
<path d="M71.2747 109.638C70.8733 109.254 70.3397 109.039 69.7842 109.037C69.2406 109.037 68.5567 109.248 68.5567 109.914C68.5567 111.229 71.8271 111.199 71.8271 112.956C71.8271 113.974 70.7618 114.925 69.2757 114.925C68.6964 114.93 68.1207 114.834 67.5748 114.64L67.2986 113.452C67.8802 113.948 68.6163 114.227 69.3809 114.241C69.9201 114.241 70.7399 113.917 70.7399 113.25C70.7399 111.768 67.4696 112.031 67.4696 110.015C67.4696 108.818 68.697 108.362 69.8588 108.362C70.3386 108.361 70.816 108.432 71.2747 108.573V109.638Z" fill="white"/>
<path d="M74.5143 113.526C74.5143 114.07 74.5143 114.438 75.0097 114.736V114.763H73.1246V114.736C73.5981 114.557 73.563 113.86 73.563 113.421V109.182H72.7257C72.315 109.163 71.9118 109.297 71.5947 109.559H71.5684L71.9015 108.428H71.9322C72.049 108.464 72.1697 108.486 72.2917 108.494H76.0793C76.2285 108.503 76.3779 108.481 76.5177 108.428H76.5353L76.2328 109.559H76.2021C76.0793 109.226 75.6979 109.182 75.3823 109.182H74.5055L74.5143 113.526Z" fill="white"/>
<path d="M77.5655 112.417L77.0702 113.759C76.8685 114.293 76.8027 114.565 77.2587 114.741V114.767H75.5051V114.741C76.0575 114.464 76.2197 113.934 76.4257 113.39L78.0127 109.445C78.1486 109.103 78.3283 108.704 77.868 108.568V108.542H79.3717L81.3576 113.386C81.5768 113.93 81.7477 114.46 82.2913 114.736V114.763H80.3405V114.736C80.8052 114.526 80.7307 114.421 80.472 113.754L79.9591 112.413L77.5655 112.417ZM78.7536 109.318L77.811 111.716H79.6829L78.7536 109.318Z" fill="white"/>
<path d="M83.0236 109.809C83.0236 109.37 83.0893 108.678 82.5852 108.533V108.507H84.9174C87.083 108.507 88.4245 109.686 88.4245 111.576C88.4245 113.465 86.9866 114.763 84.856 114.763H82.572V114.736C83.0455 114.412 83.0104 113.956 83.0104 113.395L83.0236 109.809ZM83.9924 114.013C84.2204 114.059 84.4525 114.081 84.685 114.079C86.101 114.079 87.368 113.338 87.368 111.69C87.368 110.041 86.4386 109.191 84.8472 109.191C84.5519 109.192 84.2577 109.227 83.9705 109.296L83.9924 114.013Z" fill="white"/>
<path d="M90.292 113.965L91.502 114.079C91.8169 114.107 92.1342 114.071 92.4353 113.975C92.7364 113.879 93.0153 113.723 93.2555 113.518H93.2862L92.8478 114.763H88.9023V114.736C89.389 114.565 89.3407 113.859 89.3407 113.421V109.835C89.3407 109.397 89.3977 108.704 88.9023 108.52V108.494H91.9447C92.0926 108.511 92.2426 108.495 92.3831 108.445H92.4138V109.559H92.3831C92.239 109.412 92.0623 109.301 91.8674 109.235C91.6725 109.168 91.4647 109.149 91.2609 109.178C90.9366 109.171 90.6124 109.193 90.292 109.243V110.997H91.4406C91.5892 111.013 91.7394 110.993 91.879 110.94V111.948H91.8527C91.6992 111.672 91.3003 111.681 91.0066 111.681H90.3052L90.292 113.965Z" fill="white"/>
<path d="M98.2574 108.507C99.5331 108.507 100.226 109.173 100.226 110.037C100.192 110.443 100.026 110.827 99.7528 111.13C99.4795 111.432 99.1143 111.637 98.7134 111.711L100.081 113.434C100.525 113.949 101.046 114.393 101.624 114.749H100.747C100.538 114.77 100.328 114.737 100.134 114.654C99.9413 114.571 99.7722 114.441 99.6428 114.276L98.4854 112.838L97.6086 111.497C98.3714 111.383 99.2526 111.032 99.2526 110.138C99.2489 109.985 99.2132 109.835 99.1479 109.697C99.0826 109.559 98.9891 109.436 98.8734 109.337C98.7577 109.237 98.6225 109.163 98.4764 109.119C98.3302 109.075 98.1765 109.062 98.0251 109.081C97.8089 109.091 97.5936 109.116 97.3807 109.156V113.417C97.3807 113.855 97.3237 114.548 97.8191 114.732V114.763H96.0042V114.732C96.4864 114.561 96.4425 113.855 96.4425 113.417V109.831C96.4425 109.392 96.5083 108.7 96.0042 108.516V108.489L98.2574 108.507Z" fill="white"/>
<path d="M102.694 113.965L103.904 114.079C104.219 114.107 104.536 114.071 104.837 113.975C105.138 113.879 105.417 113.723 105.657 113.518H105.688L105.25 114.763H101.304V114.736C101.791 114.565 101.743 113.859 101.743 113.421V109.835C101.743 109.397 101.8 108.704 101.304 108.52V108.494H104.347C104.494 108.511 104.644 108.495 104.785 108.445H104.811V109.559H104.785C104.641 109.412 104.464 109.301 104.269 109.235C104.074 109.168 103.867 109.149 103.663 109.178C103.338 109.171 103.014 109.193 102.694 109.243V110.997H103.825C103.973 111.013 104.124 110.993 104.263 110.94H104.29V111.948H104.263C104.11 111.672 103.711 111.681 103.417 111.681H102.711L102.694 113.965Z" fill="white"/>
<path d="M107.108 113.526C107.108 114.061 107.108 114.438 107.604 114.736V114.763H105.907V114.736C106.411 114.443 106.411 114.061 106.411 113.526V109.734C106.411 109.199 106.411 108.822 105.916 108.533V108.507H107.306C107.333 108.597 107.381 108.679 107.446 108.748L107.582 108.936L111.063 113.32V109.717C111.063 109.182 111.063 108.805 110.567 108.516V108.489H112.242V108.516C111.747 108.801 111.747 109.182 111.747 109.717V115.052C111.173 114.861 110.682 114.479 110.357 113.969L107.095 109.831L107.108 113.526Z" fill="white"/>
<path d="M113.715 113.526C113.715 114.061 113.715 114.438 114.21 114.736V114.763H112.527V114.736C113.031 114.443 113.031 114.061 113.031 113.526V109.734C113.031 109.199 113.031 108.822 112.536 108.533V108.507H113.925C113.953 108.597 114.001 108.679 114.066 108.748L114.201 108.936L117.682 113.32V109.717C117.682 109.182 117.682 108.805 117.187 108.516V108.489H118.862V108.516C118.366 108.801 118.366 109.182 118.366 109.717V115.052C117.792 114.861 117.301 114.479 116.976 113.969L113.715 109.831V113.526Z" fill="white"/>
<path d="M120.926 112.417L120.431 113.759C120.229 114.293 120.164 114.565 120.62 114.741V114.767H118.866V114.741C119.418 114.464 119.576 113.934 119.787 113.39L121.374 109.445C121.505 109.103 121.685 108.704 121.229 108.568V108.542H122.733L124.71 113.421C124.929 113.965 125.1 114.495 125.639 114.771V114.798H123.688V114.771C124.157 114.561 124.078 114.456 123.82 113.789L123.307 112.448L120.926 112.417ZM122.114 109.318L121.176 111.716H123.048L122.114 109.318Z" fill="white"/>
<path d="M126.393 109.848C126.393 109.41 126.459 108.717 125.955 108.533V108.507H127.761V108.533C127.283 108.713 127.322 109.41 127.322 109.848V113.434C127.322 113.873 127.265 114.557 127.761 114.749V114.78H125.955V114.749C126.428 114.578 126.393 113.873 126.393 113.434V109.848Z" fill="white"/>
<path d="M131.925 109.638C131.524 109.254 130.99 109.039 130.435 109.037C129.891 109.037 129.207 109.248 129.207 109.914C129.207 111.229 132.478 111.199 132.478 112.956C132.478 113.974 131.412 114.925 129.926 114.925C129.346 114.93 128.768 114.834 128.221 114.64L127.945 113.452C128.526 113.948 129.263 114.227 130.027 114.241C130.566 114.241 131.386 113.917 131.386 113.25C131.386 111.768 128.116 112.031 128.116 110.015C128.116 108.818 129.343 108.362 130.505 108.362C130.985 108.361 131.462 108.432 131.921 108.573L131.925 109.638Z" fill="white"/>
<path d="M78.0608 121.067C78.0608 121.308 78.017 121.693 78.2844 121.794H77.2805C77.5523 121.698 77.5216 121.303 77.5216 121.067V119.063C77.5216 118.818 77.5523 118.432 77.2805 118.331H78.9814C79.0656 118.342 79.1512 118.333 79.2313 118.305V118.923C79.1491 118.843 79.05 118.784 78.9415 118.748C78.8329 118.712 78.7177 118.702 78.6044 118.717C78.4225 118.712 78.2406 118.724 78.0608 118.752V119.743H78.6965C78.7738 119.749 78.8516 119.738 78.9245 119.712V120.273C78.8412 120.115 78.6176 120.124 78.451 120.124H78.0565L78.0608 121.067Z" fill="white"/>
<path d="M83.7161 120.019C83.7127 120.271 83.6592 120.519 83.5587 120.75C83.4582 120.982 83.3128 121.19 83.1308 121.364C82.9488 121.539 82.7339 121.675 82.4987 121.765C82.2635 121.856 82.0127 121.898 81.7609 121.891C81.5111 121.901 81.2618 121.862 81.0277 121.774C80.7937 121.686 80.5797 121.552 80.3984 121.38C80.2172 121.208 80.0725 121.001 79.973 120.771C79.8734 120.542 79.821 120.295 79.8188 120.045C79.8267 119.795 79.8843 119.548 79.9883 119.32C80.0923 119.092 80.2406 118.887 80.4246 118.717C80.6086 118.547 80.8246 118.415 81.0601 118.329C81.2955 118.243 81.5457 118.205 81.796 118.217C82.0399 118.208 82.2832 118.247 82.5117 118.333C82.7401 118.419 82.9491 118.55 83.1263 118.718C83.3036 118.885 83.4455 119.087 83.5438 119.31C83.642 119.534 83.6946 119.775 83.6986 120.019M80.4063 119.997C80.3975 120.187 80.4265 120.378 80.4918 120.557C80.557 120.736 80.6572 120.901 80.7864 121.041C80.9156 121.181 81.0714 121.294 81.2447 121.374C81.418 121.454 81.6054 121.498 81.796 121.505C81.9747 121.505 82.1517 121.469 82.316 121.399C82.4803 121.328 82.6285 121.225 82.7516 121.095C82.8747 120.966 82.9701 120.812 83.0319 120.644C83.0937 120.477 83.1207 120.298 83.1111 120.12C83.1267 119.933 83.1048 119.745 83.0468 119.566C82.9889 119.388 82.896 119.223 82.7735 119.081C82.6511 118.939 82.5016 118.823 82.3338 118.739C82.1659 118.656 81.9831 118.606 81.796 118.594C81.6131 118.589 81.4311 118.622 81.2617 118.691C81.0923 118.76 80.9392 118.864 80.8121 118.995C80.685 119.127 80.5868 119.283 80.5237 119.455C80.4606 119.627 80.4341 119.81 80.4457 119.992" fill="white"/>
<path d="M88.2359 120.019C88.2325 120.271 88.179 120.52 88.0785 120.751C87.978 120.982 87.8325 121.19 87.6506 121.365C87.4686 121.539 87.2537 121.675 87.0185 121.765C86.7833 121.856 86.5325 121.898 86.2807 121.891C86.0309 121.901 85.7816 121.862 85.5475 121.774C85.3134 121.686 85.0994 121.552 84.9182 121.38C84.737 121.208 84.5923 121.001 84.4927 120.771C84.3932 120.542 84.3408 120.295 84.3386 120.045C84.3464 119.793 84.4046 119.545 84.5097 119.316C84.6148 119.087 84.7647 118.881 84.9506 118.711C85.1365 118.54 85.3546 118.409 85.592 118.324C85.8295 118.239 86.0815 118.203 86.3333 118.217C86.5772 118.208 86.8205 118.247 87.049 118.333C87.2774 118.419 87.4864 118.55 87.6637 118.718C87.8409 118.886 87.9828 119.087 88.0811 119.311C88.1793 119.534 88.232 119.775 88.2359 120.019ZM84.9436 119.997C84.9245 120.377 85.0566 120.75 85.3112 121.033C85.5659 121.317 85.9222 121.488 86.3026 121.509C86.4814 121.51 86.6583 121.473 86.8226 121.403C86.9869 121.333 87.1352 121.229 87.2583 121.1C87.3813 120.97 87.4767 120.817 87.5385 120.649C87.6003 120.481 87.6273 120.303 87.6177 120.124C87.6333 119.937 87.6114 119.749 87.5535 119.571C87.4955 119.392 87.4026 119.227 87.2802 119.085C87.1577 118.943 87.0082 118.827 86.8404 118.744C86.6725 118.66 86.4897 118.611 86.3026 118.598C86.1197 118.593 85.9378 118.626 85.7684 118.695C85.5989 118.764 85.4458 118.868 85.3187 119C85.1917 119.131 85.0934 119.288 85.0303 119.46C84.9673 119.631 84.9407 119.814 84.9524 119.997" fill="white"/>
<path d="M90.1955 121.115C90.1955 121.417 90.1955 121.623 90.4716 121.79H89.4195C89.6869 121.689 89.6519 121.299 89.6519 121.062V118.691H89.1828C88.953 118.681 88.7279 118.758 88.5515 118.905L88.74 118.274C88.8054 118.295 88.8731 118.309 88.9417 118.313H91.0591C91.1428 118.318 91.2264 118.304 91.3046 118.274L91.1336 118.905C91.0635 118.717 90.853 118.691 90.6952 118.691H90.2174L90.1955 121.115Z" fill="white"/>
<path d="M92.3654 119.05C92.3654 118.809 92.4049 118.423 92.1331 118.322H93.3912C94.0926 118.322 94.5003 118.62 94.5003 119.094C94.4957 119.25 94.4419 119.4 94.3466 119.524C94.2514 119.647 94.1195 119.738 93.9699 119.782C94.2054 119.806 94.4241 119.915 94.5853 120.089C94.7466 120.262 94.8394 120.488 94.8467 120.725C94.8376 120.923 94.7733 121.116 94.661 121.28C94.5487 121.444 94.3929 121.574 94.211 121.654C93.8312 121.799 93.4235 121.856 93.0186 121.821H92.1418C92.4092 121.72 92.3742 121.33 92.3742 121.088L92.3654 119.05ZM93.3693 121.422C93.8077 121.461 94.2461 121.264 94.2461 120.755C94.2461 120.247 93.7463 120.019 93.2772 120.045H92.9046V121.36L93.3693 121.422ZM93.08 119.716C93.4263 119.716 93.9217 119.598 93.9217 119.164C93.9179 119.084 93.8972 119.007 93.861 118.936C93.8248 118.865 93.7739 118.802 93.7117 118.752C93.6495 118.703 93.5774 118.667 93.5002 118.647C93.4231 118.627 93.3426 118.624 93.2641 118.638L92.909 118.677V119.716H93.08Z" fill="white"/>
<path d="M96.609 120.492L96.3328 121.242C96.2232 121.54 96.1838 121.68 96.438 121.79H95.4604C95.592 121.704 95.7055 121.594 95.7942 121.464C95.883 121.335 95.9454 121.189 95.9777 121.036L96.8545 118.818C96.929 118.625 97.0299 118.401 96.7756 118.322H97.6173L98.722 121.049C98.7937 121.358 98.9802 121.627 99.2437 121.803H98.1565C98.4152 121.685 98.3757 121.628 98.231 121.255L97.9461 120.505L96.609 120.492ZM97.2754 118.739L96.7493 120.08H97.797L97.2754 118.739Z" fill="white"/>
<path d="M101.37 121.422C101.714 121.441 102.053 121.325 102.312 121.097L102.036 121.803H99.8442C100.116 121.707 100.085 121.312 100.085 121.075V119.072C100.085 118.826 100.116 118.441 99.8442 118.34H100.857C100.585 118.441 100.625 118.835 100.625 119.072V121.391L101.37 121.422Z" fill="white"/>
<path d="M104.504 121.422C104.849 121.441 105.187 121.325 105.447 121.097L105.171 121.803H102.979C103.251 121.707 103.22 121.312 103.22 121.075V119.072C103.22 118.826 103.251 118.441 102.979 118.34H103.996C103.724 118.441 103.759 118.835 103.759 119.072V121.391L104.504 121.422Z" fill="white"/>
<path d="M112.15 118.967C111.858 118.775 111.517 118.67 111.168 118.664C110.997 118.66 110.827 118.692 110.67 118.757C110.512 118.823 110.37 118.921 110.253 119.045C110.135 119.169 110.045 119.316 109.988 119.477C109.932 119.638 109.909 119.809 109.923 119.979C109.912 120.166 109.938 120.352 110 120.528C110.062 120.704 110.159 120.866 110.285 121.004C110.411 121.142 110.564 121.253 110.733 121.331C110.903 121.408 111.086 121.451 111.273 121.457C111.674 121.444 112.064 121.329 112.409 121.124L112.137 121.742C111.884 121.852 111.61 121.906 111.334 121.9C110.081 121.9 109.305 121.198 109.305 120.063C109.294 119.816 109.335 119.57 109.425 119.341C109.516 119.112 109.654 118.904 109.83 118.731C110.006 118.559 110.217 118.425 110.448 118.34C110.679 118.254 110.926 118.218 111.172 118.235C111.499 118.241 111.824 118.285 112.141 118.366L112.15 118.967Z" fill="white"/>
<path d="M114.881 121.422C115.226 121.441 115.564 121.325 115.824 121.097L115.547 121.803H113.355C113.627 121.707 113.592 121.312 113.592 121.075V119.072C113.592 118.826 113.627 118.441 113.355 118.34H114.368C114.101 118.441 114.136 118.835 114.136 119.072V121.391L114.881 121.422Z" fill="white"/>
<path d="M118.918 121.452C118.657 121.719 118.303 121.874 117.93 121.887C117.557 121.899 117.193 121.767 116.915 121.518C116.802 121.37 116.72 121.202 116.673 121.022C116.627 120.842 116.616 120.654 116.643 120.47V119.05C116.643 118.809 116.678 118.423 116.411 118.322H117.424C117.156 118.423 117.191 118.813 117.191 119.05V120.47C117.191 121.176 117.489 121.505 118.037 121.505C118.187 121.509 118.335 121.477 118.47 121.412C118.605 121.348 118.723 121.252 118.813 121.132C118.907 120.99 118.946 120.819 118.923 120.65V119.05C118.923 118.809 118.958 118.423 118.69 118.322H119.703C119.431 118.423 119.462 118.813 119.462 119.054V121.067C119.462 121.308 119.431 121.693 119.703 121.794H118.923L118.918 121.452Z" fill="white"/>
<path d="M120.711 119.05C120.711 118.809 120.746 118.423 120.479 118.322H121.737C122.439 118.322 122.851 118.62 122.851 119.094C122.846 119.25 122.792 119.4 122.697 119.524C122.602 119.647 122.47 119.738 122.32 119.782C122.556 119.806 122.774 119.915 122.936 120.089C123.097 120.262 123.19 120.488 123.197 120.725C123.188 120.924 123.123 121.116 123.01 121.281C122.896 121.445 122.74 121.574 122.557 121.654C122.179 121.798 121.772 121.855 121.369 121.821H120.492C120.76 121.72 120.724 121.33 120.724 121.088L120.711 119.05ZM121.715 121.422C122.154 121.461 122.592 121.264 122.592 120.755C122.592 120.247 122.092 120.019 121.623 120.045H121.251V121.36L121.715 121.422ZM121.426 119.716C121.772 119.716 122.268 119.598 122.268 119.164C122.264 119.084 122.243 119.007 122.207 118.936C122.171 118.865 122.12 118.802 122.058 118.752C121.995 118.703 121.923 118.667 121.846 118.647C121.769 118.627 121.689 118.624 121.61 118.638L121.255 118.677V119.716H121.426Z" fill="white"/>
<path d="M93.2204 126.937C93.652 126.786 94.0167 126.488 94.2506 126.095V128.808C94.2506 129.085 94.2506 129.304 94.4917 129.475H93.4791C93.7772 129.33 93.764 129.102 93.764 128.808V126.95H93.2073L93.2204 126.937Z" fill="#FEBD11"/>
<path d="M97.0169 129.286C97.4121 129.209 97.7707 129.003 98.0371 128.701C98.3034 128.399 98.4626 128.018 98.4899 127.616C98.5045 127.494 98.4945 127.37 98.4606 127.251C98.4266 127.133 98.3694 127.023 98.2922 126.927C98.215 126.831 98.1195 126.751 98.0111 126.693C97.9028 126.634 97.7839 126.598 97.6613 126.586C97.5668 126.585 97.4731 126.604 97.3859 126.64C97.2988 126.677 97.22 126.731 97.1544 126.799C97.0888 126.867 97.0377 126.948 97.0043 127.036C96.9708 127.125 96.9557 127.219 96.9599 127.314C96.9527 127.414 96.9662 127.515 96.9998 127.61C97.0333 127.705 97.0861 127.792 97.1548 127.866C97.2235 127.939 97.3067 127.998 97.3991 128.038C97.4916 128.078 97.5913 128.099 97.692 128.098C97.8722 128.094 98.0479 128.041 98.2005 127.945L97.8717 128.344C97.7473 128.392 97.6149 128.415 97.4816 128.414C97.3486 128.418 97.2161 128.395 97.0922 128.347C96.9683 128.298 96.8556 128.225 96.7609 128.131C96.6662 128.038 96.5915 127.926 96.5413 127.803C96.4911 127.68 96.4665 127.547 96.4689 127.414C96.4704 127.254 96.5044 127.096 96.5687 126.95C96.6331 126.803 96.7265 126.671 96.8433 126.562C96.96 126.452 97.0978 126.368 97.2482 126.313C97.3986 126.259 97.5585 126.235 97.7183 126.244C97.8884 126.243 98.0569 126.277 98.2135 126.344C98.37 126.41 98.5114 126.508 98.6287 126.631C98.7461 126.754 98.8371 126.9 98.8962 127.06C98.9552 127.219 98.981 127.389 98.9721 127.559C98.9645 127.836 98.8956 128.108 98.7706 128.355C98.6455 128.602 98.4673 128.818 98.2488 128.988C97.8206 129.318 97.3092 129.523 96.7714 129.58L97.0169 129.286Z" fill="#FEBD11"/>
<path d="M101.059 127.914C101.059 127.037 101.497 126.244 102.343 126.244C103.189 126.244 103.614 127.121 103.614 127.888C103.614 128.655 103.229 129.567 102.326 129.567C101.572 129.567 101.059 128.804 101.059 127.919M101.571 127.87C101.571 128.357 101.729 129.185 102.352 129.185C102.83 129.185 103.097 128.598 103.097 127.919C103.097 127.239 102.808 126.603 102.321 126.603C101.712 126.603 101.571 127.384 101.571 127.848" fill="#FEBD11"/>
<path d="M105.635 126.937C106.067 126.786 106.432 126.488 106.665 126.095V128.808C106.665 129.085 106.665 129.304 106.907 129.475H105.907C106.205 129.33 106.192 129.102 106.192 128.808V126.95H105.635V126.937Z" fill="#FEBD11"/>
<path d="M108.739 102.085L119.787 90.818V72.8179L109.033 61.9197H90.84L80.082 72.8179V90.818L91.1293 102.085H108.739Z" fill="white"/>
<path d="M90.9407 102.527L79.6392 90.9978V72.6382L90.6514 61.4769H109.217L120.229 72.6382V90.9934L109.055 102.391L108.923 102.523L90.9407 102.527ZM80.5247 73.0021V90.6339L91.3134 101.637H108.538L119.326 90.6339V73.0021L108.844 62.3625H91.0021L80.5247 73.0021Z" fill="white"/>
<path d="M99.691 61.9197H90.8356L80.082 72.8179V90.818L91.1293 102.085H99.691V61.9197Z" fill="#E03127"/>
<path d="M100.182 61.9197H109.033L119.786 72.8179V90.818L108.739 102.085H100.182V61.9197Z" fill="#061922"/>
<path d="M99.9188 79.6919C100.743 79.6919 101.548 79.4476 102.233 78.99C102.917 78.5324 103.451 77.8819 103.766 77.121C104.082 76.36 104.164 75.5226 104.003 74.7147C103.843 73.9069 103.446 73.1648 102.864 72.5824C102.281 71.9999 101.539 71.6033 100.731 71.4426C99.9234 71.2819 99.0861 71.3643 98.3251 71.6796C97.5641 71.9948 96.9136 72.5286 96.456 73.2134C95.9984 73.8983 95.7542 74.7035 95.7542 75.5272C95.7542 76.6317 96.1929 77.691 96.974 78.4721C97.755 79.2531 98.8143 79.6919 99.9188 79.6919Z" fill="white"/>
<path d="M101.085 70.6829L101.195 69.2363C102.676 69.2433 104.109 69.7604 105.254 70.7005C105.254 70.7005 106.788 66.2026 108.95 65.2513C108.95 65.2513 109.094 65.8344 109.239 65.8739C109.384 65.9133 109.896 65.3259 110.046 65.3609C110.195 65.396 109.861 67.3731 114.429 69.0916L114.175 70.2972C114.175 70.2972 108.577 69.8588 108.577 73.1861C108.577 74.6854 110.734 77.285 111.098 77.7585C111.462 78.2319 113.807 80.1345 114.136 85.211C114.136 85.211 114.977 84.5885 114.977 82.9796C114.977 81.3708 114.026 78.1574 114.026 76.9781C114.026 75.7989 113.842 72.66 117.025 72.66V74.2689C117.025 74.2689 115.946 74.2382 115.819 75.6586C115.709 76.8642 117.283 82.1686 116.551 84.1808C115.951 85.8335 115.635 86.4867 114.469 87.3986C113.303 88.3104 109.568 91.2739 113.154 93.9086L109.853 99.9583C109.853 99.9583 107.915 100.655 107.77 100.655C107.626 100.655 107.222 100.73 107.512 100.401C107.801 100.072 110.366 97.6962 110.366 95.0966C110.366 92.497 106.6 91.6947 106.6 87.78C106.6 85.1847 108.866 83.6109 108.866 83.6109C108.674 83.1407 108.401 82.7076 108.06 82.3308C107.656 82.002 105.429 80.6869 105.096 79.8802C105.096 79.8802 102.904 81.6733 101.151 81.7829C100.916 81.3759 100.756 80.9306 100.677 80.4677C100.677 80.4677 105.061 79.9066 104.978 75.3167C104.908 71.4677 101.116 70.6873 101.116 70.6873" fill="white"/>
<path d="M98.7746 70.6829L98.665 69.2363C97.1838 69.2429 95.7501 69.76 94.6056 70.7005C94.6056 70.7005 93.0712 66.2026 90.91 65.2513C90.91 65.2513 90.7653 65.8344 90.6163 65.8739C90.4672 65.9133 89.9587 65.3259 89.8097 65.3609C89.6606 65.396 89.9938 67.3731 85.4258 69.0916L85.6801 70.2972C85.6801 70.2972 91.2783 69.8588 91.2783 73.1861C91.2783 74.6854 89.1214 77.285 88.7532 77.7585C88.3849 78.2319 86.0483 80.1345 85.7195 85.211C85.7195 85.211 84.8778 84.5885 84.8778 82.9796C84.8778 81.3708 85.8291 78.1574 85.8291 76.9781C85.8291 75.7989 86.0132 72.66 82.8306 72.66V74.2689C82.8306 74.2689 83.909 74.2382 84.0361 75.6586C84.1457 76.8642 82.5719 82.1686 83.304 84.1808C83.9046 85.8335 84.2203 86.4867 85.3907 87.3986C86.5612 88.3104 90.2919 91.2739 86.7059 93.9086L90.0332 99.9451C90.0332 99.9451 91.9709 100.642 92.1199 100.642C92.269 100.642 92.6679 100.717 92.3786 100.388C92.0893 100.059 89.5247 97.6831 89.5247 95.0835C89.5247 92.4838 93.2948 91.6816 93.2948 87.7668C93.2948 85.1716 91.0284 83.5978 91.0284 83.5978C91.2205 83.1273 91.4935 82.6941 91.835 82.3177C92.2383 81.9889 94.4653 80.6737 94.7985 79.8671C94.7985 79.8671 96.9904 81.6601 98.7439 81.7697C98.9782 81.3627 99.1385 80.9174 99.2174 80.4545C99.2174 80.4545 94.8336 79.8934 94.9168 75.3035C94.987 71.4545 98.779 70.6742 98.779 70.6742" fill="white"/>
<path d="M92.291 94.0357L95.6578 98.9106L97.6831 99.2525C97.6831 99.2525 98.0251 99.2525 97.8278 98.9588C97.6305 98.6651 95.3641 96.0348 95.1449 95.3728C94.9257 94.7109 94.4128 94.1541 95.3159 92.9091C96.2189 91.6641 97.9462 90.4936 97.9462 88.008C97.9462 85.5223 95.8244 83.5145 93.045 83.5715C91.8 83.5978 92.8039 84.3474 92.9223 84.4965C93.5891 85.3588 94.0034 86.3893 94.1191 87.4731C94.2035 88.5038 93.9645 89.5351 93.4352 90.4235C93.4352 90.8399 94.0709 90.9101 94.0709 91.9578C94.0709 93.1765 92.291 94.0314 92.291 94.0314" fill="white"/>
<path d="M107.516 94.0357L104.154 98.9106L102.128 99.2525C102.128 99.2525 101.786 99.2525 101.984 98.9588C102.181 98.6651 104.447 96.0348 104.666 95.3728C104.886 94.7109 105.399 94.1541 104.496 92.9091C103.592 91.6641 101.865 90.4936 101.865 88.008C101.865 85.5223 103.987 83.5145 106.766 83.5715C108.011 83.5978 107.007 84.3474 106.889 84.4965C106.221 85.3581 105.807 86.3889 105.692 87.4731C105.607 88.5038 105.846 89.5354 106.376 90.4235C106.376 90.8399 105.741 90.9101 105.741 91.9578C105.741 93.1765 107.52 94.0314 107.52 94.0314" fill="white"/>
</g>
</svg>
