<svg width="200" height="200" viewBox="0 0 200 200" fill="none" xmlns="http://www.w3.org/2000/svg">
<circle cx="100" cy="100" r="98.5" fill="#091C3E" stroke="#BAF30F" stroke-width="3"/>
<g clip-path="url(#clip0_186_708)">
<path d="M100.076 135.804L102.039 135.837V136.974C102.039 137.742 101.173 138.244 100.097 138.226C99.7975 138.23 99.4997 138.175 99.2217 138.062C98.9438 137.949 98.6915 137.781 98.4798 137.569C98.2681 137.356 98.1013 137.104 97.9895 136.825C97.8776 136.547 97.823 136.249 97.8288 135.949C97.8346 135.649 97.9008 135.354 98.0233 135.08C98.1459 134.806 98.3223 134.56 98.5421 134.356C98.7619 134.152 99.0206 133.994 99.3027 133.892C99.5847 133.79 99.8845 133.746 100.184 133.762C100.524 133.762 100.861 133.834 101.172 133.972C101.483 134.111 101.761 134.314 101.988 134.567L101.555 135C101.398 134.805 101.199 134.648 100.973 134.54C100.747 134.433 100.499 134.378 100.249 134.379C99.1122 134.361 98.4447 135.101 98.4447 135.985C98.4448 136.206 98.4901 136.426 98.5779 136.629C98.6658 136.832 98.7942 137.016 98.9553 137.168C99.1165 137.32 99.307 137.437 99.5151 137.513C99.7233 137.589 99.9448 137.621 100.166 137.609C100.909 137.609 101.443 137.284 101.451 136.919V136.44L100.105 136.418L100.076 135.804Z" fill="white"/>
<path d="M106.748 133.214L106.835 133.823L103.973 134.235L104.135 135.346L105.575 135.141L105.665 135.75L104.222 135.96L104.41 137.251L107.376 136.826L107.463 137.435L103.886 137.948L103.277 133.708L106.748 133.214Z" fill="white"/>
<path d="M100 50C72.4271 50 50 72.4299 50 99.9982C50 127.566 72.4271 150.004 100 150.004C127.573 150.004 150 127.57 150 100.002C150 72.4335 127.569 50 100 50Z" fill="#004170"/>
<path d="M99.9315 55.4307C108.751 55.4307 117.372 58.046 124.704 62.9457C132.037 67.8455 137.752 74.8097 141.126 82.9575C144.5 91.1052 145.382 100.071 143.661 108.72C141.939 117.369 137.691 125.313 131.454 131.548C125.217 137.783 117.271 142.028 108.621 143.747C99.9711 145.466 91.0057 144.581 82.8587 141.204C74.7117 137.827 67.7491 132.11 62.8516 124.776C57.954 117.442 55.3414 108.821 55.3443 100.002C55.3481 88.1795 60.0474 76.8427 68.4087 68.4844C76.77 60.1261 88.1087 55.4307 99.9315 55.4307ZM99.9315 53.5904C89.1915 53.593 78.7847 57.3192 70.4841 64.1341C62.1834 70.949 56.5025 80.431 54.4092 90.9646C52.3159 101.498 53.9397 112.432 59.004 121.902C64.0682 131.373 72.2596 138.795 82.1825 142.903C92.1055 147.012 103.146 147.553 113.423 144.435C123.7 141.316 132.578 134.731 138.545 125.801C144.511 116.871 147.196 106.149 146.143 95.4608C145.09 84.773 140.364 74.7809 132.769 67.1869C128.467 62.8616 123.349 59.4327 117.713 57.0989C112.076 54.765 106.032 53.5725 99.9315 53.5904Z" fill="white"/>
<path d="M112.493 72.6824L116.906 62.0701C116.184 61.7453 115.451 61.4422 114.705 61.1608L110.295 71.7659C111.043 72.0425 111.776 72.3481 112.493 72.6824Z" fill="white"/>
<path d="M99.78 69.8787V66.4038H102.688L105.214 70.3731C106.201 70.5513 107.178 70.7789 108.141 71.0551L105.135 66.2595C106.856 65.7976 108.264 64.2785 108.264 62.4742C108.264 60.3092 106.214 58.5447 104.049 58.5447H97.4741V69.9725C98.2391 69.9112 99.0114 69.8751 99.7944 69.8751L99.78 69.8787ZM99.78 60.5798H104.049C104.552 60.5798 105.034 60.7796 105.39 61.1352C105.745 61.4908 105.945 61.9731 105.945 62.4761C105.945 62.979 105.745 63.4613 105.39 63.8169C105.034 64.1725 104.552 64.3723 104.049 64.3723H99.78V60.5798Z" fill="white"/>
<path d="M79.0126 78.1239L76.4109 75.7532L79.6333 72.2025C81.0767 70.604 81.0767 68.0276 79.4926 66.5698C78.6887 65.8798 77.6479 65.5298 76.5904 65.5938C75.533 65.6577 74.542 66.1307 73.8272 66.9126L69.0422 72.1809L77.378 79.7585C77.9012 79.1848 78.4605 78.6399 79.0126 78.1059M72.1095 71.8128L75.2381 68.3812C75.4059 68.1971 75.6082 68.0479 75.8337 67.942C76.0591 67.8361 76.3032 67.7756 76.552 67.7641C76.8008 67.7525 77.0494 67.7901 77.2837 67.8746C77.518 67.9591 77.7334 68.089 77.9175 68.2567C78.1016 68.4245 78.2508 68.6268 78.3567 68.8523C78.4626 69.0777 78.5231 69.3218 78.5346 69.5706C78.5462 69.8194 78.5086 70.068 78.4241 70.3023C78.3396 70.5365 78.2097 70.7519 78.0419 70.936L74.9097 74.382L72.1095 71.8128Z" fill="white"/>
<path d="M122.546 68.4967C124.268 68.0926 127.425 71.2319 128.031 73.3572C128.533 72.9747 129.651 72.152 129.651 72.152C128.316 68.3524 122.997 64.5491 120.471 66.927C118.974 68.3415 119.822 70.5354 121.132 71.8994L122.402 73.2345C123.697 74.5985 124.83 75.9589 123.788 76.8141C122.68 77.7306 119.576 75.4357 117.711 71.4881L116.04 72.7474C116.637 74.1605 117.487 75.453 118.548 76.5615C119.916 78.0049 121.41 78.9431 122.745 79.2065C123.795 79.4121 124.841 79.257 125.531 78.6147C127.252 77.0198 126.613 74.6887 123.921 71.8417L122.799 70.6617C121.554 69.3483 122.077 68.6013 122.546 68.4967Z" fill="white"/>
<path d="M87.2509 60.4536C86.4354 60.7158 85.6295 61.0021 84.8332 61.3124L83.9744 74.3316C84.7466 73.8505 85.5393 73.4126 86.3524 73.0181L86.4751 69.9834C88.0583 69.2847 89.6945 68.7127 91.3683 68.2731L93.3674 70.568C94.2479 70.3768 95.1392 70.2072 96.045 70.1133L87.2509 60.4536ZM86.5617 67.8869L86.7566 62.9759L90.0042 66.6854C88.8399 67.025 87.6944 67.4261 86.5725 67.8869" fill="white"/>
<path d="M99.9639 108.301C93.9953 108.301 89.1743 112.905 89.1743 118.574C89.1756 120.508 89.7467 122.398 90.8162 124.009C96.7146 126.278 103.246 126.278 109.144 124.009C110.214 122.398 110.785 120.508 110.786 118.574C110.786 112.909 105.947 108.312 99.9819 108.312" fill="#004170"/>
<path d="M109.404 100.68H90.5095C87.3623 105.841 83.3314 110.408 78.6013 114.172C80.6477 117.285 83.3467 119.917 86.5112 121.883C86.3918 121.199 86.3314 120.506 86.3308 119.812C86.3308 112.776 92.4329 107.067 99.9603 107.067C107.488 107.067 113.59 112.772 113.59 119.812C113.589 120.506 113.529 121.199 113.409 121.883C116.571 119.92 119.267 117.292 121.312 114.183C116.581 110.417 112.55 105.847 109.404 100.684" fill="#E30613"/>
<path d="M108.816 99.6842C104.821 92.6803 102.461 84.4098 102.284 74.7356C101.519 74.6671 100.747 74.6238 99.9638 74.6238C99.1807 74.6238 98.3977 74.6671 97.6255 74.7356C97.4486 84.4062 95.0995 92.6767 91.094 99.6806L108.816 99.6842Z" fill="#E30613"/>
<path d="M99.964 72.7908C94.5495 72.7915 89.2567 74.3976 84.755 77.4061C80.2532 80.4146 76.7447 84.6904 74.6729 89.6927C72.6012 94.6951 72.0593 100.199 73.1158 105.51C74.1724 110.82 76.7798 115.698 80.6084 119.526C84.4371 123.355 89.3151 125.962 94.6256 127.019C99.9361 128.075 105.441 127.533 110.443 125.462C115.446 123.39 119.722 119.882 122.73 115.38C125.739 110.878 127.345 105.586 127.346 100.171C127.334 92.9131 124.446 85.9554 119.313 80.823C114.181 75.6906 107.223 72.8022 99.964 72.7908ZM99.964 74.6311C100.751 74.6311 101.519 74.6708 102.288 74.7429C102.461 84.4135 104.814 92.684 108.819 99.6879H91.0942C95.0889 92.684 97.4525 84.4135 97.6257 74.7429C98.3943 74.6744 99.1774 74.6311 99.964 74.6311ZM74.4227 100.171C74.4238 94.022 76.6432 88.0793 80.6736 83.4346C84.7039 78.79 90.2746 75.7551 96.3627 74.8873C95.2405 91.2983 88.4023 103.199 77.1436 111.643C75.3494 108.085 74.4161 104.156 74.4191 100.171M109.126 124.009C103.228 126.278 96.6969 126.278 90.7983 124.009C89.7352 122.396 89.1705 120.506 89.1745 118.574C89.1745 112.909 94.0135 108.312 99.9785 108.312C105.943 108.312 110.786 112.906 110.786 118.574C110.785 120.508 110.214 122.398 109.144 124.009M113.428 121.883C113.547 121.199 113.607 120.506 113.608 119.812C113.608 112.776 107.506 107.067 99.9785 107.067C92.451 107.067 86.349 112.772 86.349 119.812C86.3497 120.506 86.4113 121.2 86.533 121.883C83.3676 119.918 80.6683 117.286 78.6231 114.172C83.3528 110.408 87.3835 105.841 90.5313 100.68H109.426C112.572 105.844 116.603 110.413 121.334 114.179C119.29 117.289 116.593 119.917 113.431 121.88M103.569 74.8873C107.58 75.4591 111.398 76.9772 114.706 79.3161C118.015 81.655 120.72 84.7476 122.597 88.3383C124.474 91.929 125.469 95.9148 125.501 99.9664C125.533 104.018 124.601 108.019 122.781 111.639C111.547 103.199 104.691 91.2983 103.569 74.8873Z" fill="white"/>
<path d="M100.87 121.62C100.719 121.529 100.588 121.41 100.484 121.269C100.38 121.128 100.305 120.967 100.263 120.797C100.244 120.732 100.205 120.675 100.15 120.634C100.096 120.593 100.03 120.571 99.9621 120.571C99.8942 120.571 99.8282 120.593 99.7739 120.634C99.7195 120.675 99.6799 120.732 99.6608 120.797C99.6189 120.967 99.5438 121.128 99.4398 121.269C99.3357 121.41 99.2048 121.529 99.0546 121.62C99.0004 121.652 98.9968 121.678 99.0185 121.721C99.2285 122.144 99.5219 122.521 99.8809 122.829C99.9351 122.872 99.9531 122.872 99.9639 122.872C99.9748 122.872 99.9964 122.872 100.047 122.829C100.407 122.522 100.7 122.145 100.909 121.721C100.931 121.678 100.909 121.656 100.873 121.62" fill="#CEAB5D"/>
<path d="M101.743 115.879C101.743 114.836 100.379 111.581 99.9638 111.581C99.9257 111.585 99.8901 111.601 99.8628 111.628C99.3648 112.029 98.1848 114.912 98.1848 115.883C98.1848 116.662 99.7581 118.712 99.7581 119.827C99.7581 119.882 99.78 119.934 99.8189 119.973C99.8578 120.012 99.9106 120.034 99.9656 120.034C100.021 120.034 100.073 120.012 100.112 119.973C100.151 119.934 100.173 119.882 100.173 119.827C100.173 118.712 101.746 116.666 101.746 115.89" fill="#CEAB5D"/>
<path d="M99.0761 119.733C98.3544 117.788 97.0662 116.723 95.7454 116.723C95.2669 116.723 94.808 116.913 94.4696 117.252C94.1313 117.59 93.9412 118.049 93.9412 118.527C93.9412 119.006 94.1313 119.465 94.4696 119.803C94.808 120.142 95.2669 120.332 95.7454 120.332C96.0307 120.331 96.3043 120.219 96.5068 120.018C96.5909 119.935 96.6521 119.832 96.6844 119.719C96.7167 119.606 96.7189 119.486 96.6909 119.372C96.6865 119.36 96.6798 119.349 96.6712 119.34C96.6626 119.331 96.6523 119.324 96.6409 119.319C96.6295 119.314 96.6172 119.311 96.6047 119.311C96.5922 119.311 96.5798 119.313 96.5682 119.318H96.4599C96.3766 119.324 96.2929 119.313 96.214 119.286C96.1351 119.258 96.0627 119.215 96.0014 119.158C95.9401 119.101 95.8911 119.033 95.8577 118.956C95.8242 118.879 95.807 118.797 95.807 118.713C95.807 118.63 95.8242 118.547 95.8577 118.471C95.8911 118.394 95.9401 118.325 96.0014 118.268C96.0627 118.212 96.1351 118.168 96.214 118.141C96.2929 118.113 96.3766 118.102 96.4599 118.109C97.0517 118.109 98.1054 118.679 98.6684 119.913C98.6869 119.951 98.7157 119.982 98.7515 120.004C98.7873 120.026 98.8286 120.037 98.8704 120.036C98.9001 120.036 98.9295 120.03 98.9569 120.018C98.9843 120.007 99.0091 119.99 99.0299 119.969C99.0508 119.948 99.0672 119.923 99.0782 119.895C99.0892 119.868 99.0946 119.838 99.0942 119.808C99.094 119.776 99.0866 119.744 99.0725 119.715" fill="#CEAB5D"/>
<path d="M104.125 116.727C102.8 116.727 101.53 117.809 100.794 119.736C100.78 119.765 100.772 119.798 100.772 119.83C100.772 119.859 100.777 119.889 100.788 119.916C100.799 119.943 100.815 119.968 100.835 119.989C100.856 120.01 100.88 120.027 100.907 120.039C100.934 120.051 100.963 120.057 100.992 120.057C101.034 120.057 101.075 120.045 101.11 120.024C101.146 120.002 101.175 119.971 101.194 119.935C101.757 118.715 102.807 118.13 103.403 118.13C103.564 118.13 103.718 118.194 103.832 118.308C103.945 118.422 104.009 118.576 104.009 118.737C104.009 118.897 103.945 119.052 103.832 119.165C103.718 119.279 103.564 119.343 103.403 119.343H103.295C103.271 119.335 103.245 119.335 103.222 119.346C103.2 119.356 103.182 119.374 103.172 119.397C103.145 119.512 103.147 119.632 103.179 119.746C103.212 119.859 103.272 119.963 103.356 120.047C103.558 120.247 103.832 120.36 104.117 120.36C104.596 120.36 105.055 120.17 105.393 119.832C105.732 119.494 105.922 119.035 105.922 118.556C105.922 118.078 105.732 117.619 105.393 117.281C105.055 116.942 104.596 116.752 104.117 116.752" fill="#CEAB5D"/>
<path d="M77.1508 130.601L76.6023 130.19L77.0678 128.66L75.6244 127.422L74.181 128.111L73.6577 127.66L77.9338 125.64L78.4571 126.083L77.1508 130.601ZM77.7029 126.437L76.227 127.137L77.2518 128.007L77.7029 126.437Z" fill="white"/>
<path d="M81.3798 128.241L78.9801 131.879L78.4641 131.543L80.8638 127.906L81.3798 128.241Z" fill="white"/>
<path d="M83.2601 129.439L83.9998 133.502L84.0107 133.506L85.5263 130.626L86.0711 130.912L84.0792 134.708L83.5416 134.462L82.7946 130.352L82.7838 130.345L81.2465 133.271L80.7161 132.961L82.7152 129.151L83.2601 129.439Z" fill="white"/>
<path d="M90.6647 132.604L90.4626 133.185L89.0445 132.694L87.8248 136.187L87.2438 135.985L88.4599 132.488L87.0417 131.998L87.2438 131.413L90.6647 132.604Z" fill="white"/>
<path d="M110.638 132.135C111.291 131.936 112.024 132.081 112.273 132.918C112.543 133.809 112.031 134.267 111.692 134.401L113.03 135.844L112.381 136.075L111.053 134.632L109.53 135.09L110.043 136.811L109.454 136.977L108.22 132.878L110.638 132.135ZM108.989 133.275L109.35 134.484L111.186 133.921C111.279 133.908 111.368 133.874 111.446 133.822C111.524 133.771 111.589 133.702 111.637 133.622C111.686 133.542 111.716 133.452 111.725 133.359C111.734 133.266 111.723 133.172 111.692 133.084C111.555 132.618 111.161 132.611 110.822 132.723L108.989 133.275Z" fill="white"/>
<path d="M123.918 129.67L123.38 130.1L122.055 129.288L120.497 130.395L120.8 131.947L120.251 132.308L119.345 127.7L119.905 127.307L123.918 129.67ZM120.056 128.122L120.37 129.728L121.453 128.948L120.056 128.122Z" fill="white"/>
<path d="M122.579 125.16L125.505 128.306L125.043 128.714L122.127 125.578L122.579 125.16Z" fill="white"/>
<path d="M124.278 123.482L128.403 123.767L128.406 123.76L125.989 121.58L126.4 121.122L129.586 123.987L129.215 124.445L125.051 124.16L125.04 124.171L127.49 126.376L127.057 126.816L123.867 123.94L124.278 123.482Z" fill="white"/>
<path d="M117.025 129.237L116.477 129.519L116.383 132.553L113.871 130.843L113.323 131.128L115.192 134.978L115.751 134.729L114.452 131.99L114.463 131.983L116.953 133.672L117.05 130.67L117.061 130.663L118.519 133.326L119.05 133.022L117.025 129.237Z" fill="white"/>
<path d="M75.5342 123.72C75.1733 122.414 73.8598 121.133 72.8566 121.133C72.6425 121.129 72.4332 121.196 72.2612 121.324C72.1637 121.393 72.0814 121.481 72.0193 121.582C71.9572 121.684 71.9167 121.798 71.9004 121.916C71.8663 122.383 72.0151 122.845 72.3153 123.204L72.77 123.814C73.1309 124.286 73.4629 124.781 73.3907 125.171C73.3746 125.246 73.3428 125.317 73.2974 125.379C73.252 125.441 73.194 125.493 73.1273 125.531C73.0454 125.583 72.9499 125.61 72.853 125.607C72.2323 125.607 71.1859 124.503 70.6879 122.922V122.894L70.2368 123.316C70.4085 123.909 70.6873 124.465 71.0596 124.958C71.4341 125.513 71.9655 125.944 72.586 126.195C72.7409 126.246 72.9028 126.273 73.0659 126.275C73.2686 126.28 73.468 126.222 73.6361 126.109C73.7511 126.03 73.8488 125.928 73.9233 125.811C73.9977 125.693 74.0474 125.561 74.0691 125.423C74.1449 124.918 73.8778 124.25 73.2716 123.442L72.8674 122.901C72.5463 122.471 72.5571 122.179 72.6257 122.031C72.655 121.964 72.7013 121.905 72.7602 121.861C72.819 121.816 72.8883 121.788 72.9613 121.779H73.0334C73.7551 121.779 74.8088 122.998 75.0795 123.944V123.965H75.1011L75.5414 123.713L75.5342 123.72Z" fill="white"/>
<path d="M94.3562 135.981L92.8298 135.646L92.9706 135.029L94.4934 135.375L94.3562 135.981Z" fill="white"/>
</g>
<defs>
<clipPath id="clip0_186_708">
<rect width="100" height="100" fill="white" transform="translate(50 50)"/>
</clipPath>
</defs>
</svg>
