<svg width="200" height="200" viewBox="0 0 200 200" fill="none" xmlns="http://www.w3.org/2000/svg">
<circle cx="100" cy="100" r="98.5" fill="#091C3E" stroke="#BAF30F" stroke-width="3"/>
<path d="M143.226 50H57V123.52C57 128.041 58.1949 131.534 60.6087 133.912C63.0225 136.29 66.4639 137.385 70.9648 137.497C83.886 137.855 92.0275 140.723 98.4124 147.893L100.141 150L101.87 147.893C108.243 140.723 116.396 137.855 129.317 137.497C133.802 137.37 137.284 136.258 139.673 133.912C142.063 131.566 143.282 128.041 143.282 123.52L143.226 50Z" fill="#D39E46"/>
<path d="M129.289 135.231C115.795 135.665 106.55 138.72 100.113 146.124C93.6764 138.72 84.4316 135.665 70.9368 135.231C63.1897 134.988 59.2305 131.391 59.2305 123.524V83.5537H140.992V123.524C140.992 131.391 137.033 134.988 129.281 135.231" fill="#14387F"/>
<path d="M59.2386 52.2385H140.988L140.992 81.3152H59.2346L59.2386 52.2385Z" fill="#DB0812"/>
<path d="M109.804 89.2854V129.399H135.38V116.637H123.948V89.2854H109.804Z" fill="#D39E46"/>
<path d="M122.208 91.026V118.378H133.639V127.659H111.541V91.026H122.208Z" fill="white"/>
<path d="M63.2615 109.34C63.2615 113.5 64.4949 117.566 66.8058 121.024C69.1167 124.483 72.4013 127.179 76.2442 128.77C80.087 130.362 84.3156 130.779 88.3952 129.967C92.4748 129.156 96.2221 127.153 99.1634 124.211C102.105 121.27 104.108 117.523 104.919 113.443C105.731 109.364 105.314 105.135 103.722 101.292C102.13 97.4494 99.4349 94.1648 95.9764 91.8539C92.5179 89.543 88.4518 88.3096 84.2923 88.3096C78.7165 88.3159 73.3709 90.5337 69.4282 94.4763C65.4856 98.419 63.2678 103.765 63.2615 109.34Z" fill="#D39E46"/>
<path d="M65.1057 109.34C65.1057 105.546 66.231 101.836 68.3392 98.6809C70.4475 95.5257 73.444 93.0665 76.95 91.6143C80.4559 90.1621 84.3136 89.7822 88.0355 90.5225C91.7573 91.2628 95.1761 93.0902 97.8594 95.7735C100.543 98.4568 102.37 101.875 103.11 105.597C103.851 109.319 103.471 113.177 102.019 116.683C100.566 120.189 98.1071 123.185 94.9519 125.294C91.7967 127.402 88.0871 128.527 84.2924 128.527C79.2054 128.522 74.3282 126.499 70.7312 122.902C67.1341 119.305 65.111 114.427 65.1057 109.34Z" fill="white"/>
<path d="M83.3483 98.9564C81.3568 99.8447 79.7237 99.7889 78.2101 98.9564C78.5407 100.028 81.3966 101.43 83.3483 98.9564ZM83.3483 96.2758C83.3483 96.2758 83.2408 95.9213 83.6829 95.8337C84.125 95.746 84.6588 96.0368 85.0651 96.1762C84.8235 96.3662 84.5297 96.4779 84.2229 96.4964C83.9161 96.5149 83.611 96.4393 83.3483 96.2798M95.4729 97.4189C94.278 97.9089 93.7204 97.0206 93.557 96.4431C93.4348 96.5592 93.3369 96.6985 93.2689 96.8527C93.2009 97.007 93.1641 97.1732 93.1608 97.3418C93.1575 97.5103 93.1876 97.6779 93.2495 97.8347C93.3113 97.9915 93.4037 98.1345 93.5212 98.2554C93.1716 98.4273 92.8734 98.6883 92.6566 99.012C92.4399 99.3357 92.3122 99.7108 92.2864 100.1C92.6537 100.19 93.0356 100.203 93.4083 100.139C93.781 100.076 94.1367 99.936 94.4532 99.7291C94.513 100.048 94.9472 100.586 95.8712 100.406C95.3933 99.9004 95.1702 98.9883 95.8513 98.6059L96.0306 98.5143C96.1894 98.4389 96.3619 98.3966 96.5375 98.3901C96.7132 98.3835 96.8884 98.4128 97.0524 98.4762C97.2164 98.5395 97.3658 98.6356 97.4914 98.7586C97.617 98.8816 97.7163 99.0288 97.7831 99.1914C97.9444 99.5394 97.9684 99.9354 97.8502 100.3C97.7321 100.665 97.4805 100.972 97.1458 101.159L92.6768 103.465C90.3785 104.624 90.6096 106.779 91.0836 107.767L93.1388 111.838C93.2081 111.979 93.2475 112.132 93.2545 112.289C93.2615 112.446 93.2359 112.602 93.1794 112.748C93.1229 112.895 93.0367 113.028 92.9262 113.139C92.8157 113.25 92.6833 113.338 92.5374 113.395C92.2269 113.542 91.8724 113.565 91.5456 113.46C91.2187 113.355 90.944 113.129 90.7768 112.83L88.0166 107.429C88.1508 107.522 88.3063 107.581 88.469 107.6C88.6317 107.619 88.7965 107.597 88.9486 107.536C87.7537 105.568 89.8846 105.648 89.1796 103.868C89.3007 103.98 89.4474 104.062 89.6071 104.105C89.7667 104.148 89.9345 104.151 90.0957 104.115C89.0123 101.685 91.4619 101.725 90.2152 99.7809C90.3587 99.8338 90.5127 99.8516 90.6644 99.8329C90.8161 99.8142 90.9612 99.7595 91.0875 99.6734C89.5699 98.1598 90.9362 97.1401 89.096 96.5227C89.2562 96.5072 89.4075 96.4421 89.5289 96.3364C89.6503 96.2307 89.7357 96.0898 89.7731 95.9333C88.5065 96.0209 87.905 94.3838 86.0887 94.6188C85.387 94.7244 84.6964 94.8937 84.0255 95.1247C83.6272 95.2442 83.3563 95.1247 83.0058 95.28C82.8839 95.4491 82.7886 95.6358 82.723 95.8337C82.249 95.9372 81.4763 96.1523 81.2652 96.3794C81.2135 96.6009 81.2462 96.8338 81.3568 97.0326C81.3927 97.0469 81.4243 97.0702 81.4487 97.1001C81.4731 97.1301 81.4894 97.1658 81.4962 97.2039C81.5694 97.7981 81.8255 98.3548 82.2291 98.7971L83.3483 98.5183C83.8606 98.8 84.2768 99.2287 84.5433 99.7491C84.7106 100.179 84.6389 100.45 84.1131 100.458C83.5466 100.415 82.9837 100.334 82.4282 100.215C82.2809 100.613 82.2131 101.322 82.5437 101.577C82.723 101.709 83.671 101.661 83.9578 101.641C83.8861 102.673 83.1611 103.298 81.8706 102.884C78.2261 101.689 75.8959 101.358 74.5616 98.3988C74.6094 98.1917 74.8643 96.1643 73.4025 95.6465C73.6296 96.2139 73.6903 96.8342 73.5778 97.4349C73.4912 96.973 73.2283 96.5629 72.8446 96.2916C72.461 96.0202 71.9868 95.9088 71.5225 95.9811C72.1518 96.4272 72.5422 96.9888 72.5501 97.5743C72.2611 97.3912 71.9329 97.2792 71.5923 97.2473C71.2517 97.2155 70.9083 97.2647 70.5904 97.3911C73.6096 98.7533 72.582 101.079 71.2476 101.295C71.7973 101.749 72.6895 101.625 73.2392 101.295L75.0475 103.609C74.719 103.687 74.4336 103.89 74.2509 104.174C74.6694 104.127 75.0914 104.226 75.4458 104.453C75.676 105.084 75.7011 105.771 75.5175 106.417C75.7906 106.292 76.0314 106.106 76.2212 105.873C76.4111 105.64 76.5451 105.367 76.6129 105.074L79.2736 106.632C77.9313 107.341 73.9163 109.36 71.869 108.412C71.5543 108.269 69.5389 107.405 68.4276 108.532C69.1804 108.504 69.9133 108.815 70.0447 109.117C69.2481 109.201 68.328 109.544 68.093 110.408C68.6629 110.203 69.275 110.144 69.8735 110.237C69.6142 110.452 69.4113 110.728 69.2822 111.039C69.1531 111.351 69.1018 111.689 69.1326 112.025C69.1326 112.025 70.7537 110.523 72.0841 110.91C72.7055 111.089 72.4027 112.172 72.2793 112.435C72.5876 112.382 72.8729 112.237 73.098 112.02C73.3232 111.803 73.4778 111.523 73.5419 111.216L76.6408 111.089C76.8479 111.193 76.9355 111.631 76.7443 111.985C76.9717 111.93 77.1778 111.809 77.3371 111.638C77.4964 111.466 77.6019 111.252 77.6405 111.021C77.9377 111.049 78.2138 111.187 78.4143 111.408C78.6148 111.63 78.7252 111.918 78.7239 112.216C78.9057 112.005 79.0219 111.746 79.058 111.47C79.0941 111.194 79.0486 110.913 78.9271 110.663L82.3008 109.866L83.4718 111.161C83.4718 111.161 77.4374 114.933 75.3821 114.833C75.7008 115.562 77.1825 115.478 77.8636 115.231C77.742 115.526 77.721 115.852 77.8038 116.159C77.9915 116.145 78.1731 116.086 78.3337 115.987C78.4943 115.889 78.6294 115.754 78.7279 115.594C78.7279 115.594 79.6321 117.398 79.4887 117.721C79.0665 118.649 76.111 118.852 76.111 118.852C75.5733 118.422 74.0956 117.924 73.2711 118.549C73.528 118.559 73.7774 118.638 73.9928 118.778C74.2082 118.919 74.3814 119.115 74.4939 119.346C74.1474 119.346 72.9405 119.493 72.6656 120.613C73.21 120.351 73.8288 120.289 74.4142 120.437C74.1507 120.629 73.9437 120.888 73.8147 121.187C73.6858 121.487 73.6397 121.815 73.6813 122.138C74.5496 121.218 75.7605 120.8 76.5691 120.983C77.0391 121.087 77.063 121.78 76.9276 122.297C77.2054 122.192 77.4566 122.027 77.6632 121.814C77.8698 121.6 78.0266 121.344 78.1225 121.063L81.3528 120.059C81.4264 120.3 81.46 120.552 81.4524 120.804C81.6632 120.75 81.854 120.637 82.0017 120.477C82.1494 120.317 82.2478 120.118 82.2848 119.904C82.2848 119.904 82.8903 120.824 83.8422 120.66C83.2886 119.728 82.5278 117.323 82.5318 116.705C82.5318 115.909 84.8898 115.462 85.2841 115.347L86.4233 117.012C86.4233 117.012 85.2642 117.577 85.0651 118.322C85.713 118.004 86.4406 117.885 87.1562 117.98C87.4354 118.307 87.6211 118.703 87.6939 119.127C87.8457 119.007 87.9715 118.858 88.064 118.688C88.1564 118.518 88.2134 118.332 88.2316 118.139C90.8127 118.956 90.8167 119.334 90.1874 121.959C89.0163 121.843 87.1482 121.788 86.7419 122.983C87.3923 122.824 88.0747 122.859 88.7056 123.082C88.1599 123.269 87.1721 123.839 87.4111 124.97C87.4111 124.97 88.3631 123.903 89.4624 124.09C88.8729 124.452 88.14 125.209 88.7853 126.157C89.027 125.72 89.3993 125.37 89.8501 125.156C90.3008 124.942 90.8074 124.874 91.2986 124.962L92.0953 123.21C92.4258 122.501 93.33 122.588 93.4296 123.492C94.286 122.441 93.326 121.294 93.0313 121.154L93.7682 119.561C94.0032 119.581 94.6206 119.74 94.9631 119.314C94.612 119.217 94.3079 118.996 94.1067 118.693C94.4851 118.721 95.4849 118.872 95.9629 118.219C94.3696 117.896 90.6016 115.606 90.3148 114.196C90.6929 114.499 91.1469 114.692 91.6274 114.755C92.1078 114.817 92.5962 114.746 93.0392 114.55C93.6215 114.297 94.0808 113.825 94.3178 113.236C94.987 111.858 96.7475 112.977 97.0184 110.428C96.3134 111.428 94.7639 110.762 94.4572 112.021C93.8359 109.273 97.7951 111.069 97.823 106.923C96.8471 108.615 93.3499 108.014 93.6367 110.157C92.1391 105.728 98.8506 108.6 98.4842 102.852C97.1737 105.445 91.9678 104.76 92.4617 107.831L92.1789 107.265C92.0601 107.036 91.9895 106.784 91.9715 106.527C91.9536 106.269 91.9886 106.01 92.0744 105.767C92.1603 105.523 92.2951 105.299 92.4706 105.11C92.6461 104.92 92.8586 104.769 93.095 104.664L97.6875 102.298C98.3014 101.967 98.7663 101.415 98.9882 100.754C99.2101 100.093 99.1723 99.3717 98.8825 98.7374C98.7483 98.4224 98.5513 98.1382 98.3034 97.9021C98.0555 97.666 97.762 97.4831 97.4409 97.3645C97.1198 97.2459 96.7778 97.1941 96.436 97.2124C96.0941 97.2307 95.7597 97.3186 95.453 97.4707" fill="#D39E46"/>
<path d="M85.8655 70.2382C85.6946 70.0561 85.4868 69.9125 85.2561 69.817C85.0253 69.7215 84.7768 69.6764 84.5272 69.6845C84.2752 69.6764 84.0244 69.7215 83.791 69.8169C83.5576 69.9123 83.347 70.0559 83.1729 70.2382C82.7746 70.6723 82.6631 71.1543 82.6631 73.1498C82.6631 75.1454 82.7667 75.6234 83.1729 76.0575C83.3473 76.2394 83.558 76.3827 83.7913 76.4781C84.0246 76.5735 84.2753 76.6188 84.5272 76.6112C84.7767 76.6188 85.0251 76.5734 85.2558 76.478C85.4865 76.3825 85.6943 76.2392 85.8655 76.0575C86.2638 75.6234 86.3913 75.1414 86.3913 73.1498C86.3913 71.1583 86.2718 70.6763 85.8655 70.2382ZM87.415 77.2803C86.6284 78.0093 85.5956 78.4143 84.5232 78.4143C83.4508 78.4143 82.418 78.0093 81.6315 77.2803C80.552 76.2328 80.5799 74.9383 80.5799 73.1498C80.5799 71.3614 80.5481 70.0629 81.6315 69.0154C82.418 68.2864 83.4508 67.8813 84.5232 67.8813C85.5956 67.8813 86.6284 68.2864 87.415 69.0154C88.4944 70.0629 88.4824 71.3574 88.4824 73.1498C88.4824 74.9422 88.4824 76.2328 87.415 77.2803Z" fill="white"/>
<path d="M70.9448 76.5196H66.4717V68.0754L66.3602 67.9639H64.4961L64.3806 68.0754V78.2124L64.4961 78.3239H70.9448L71.0563 78.2124V76.6311L70.9448 76.5196Z" fill="white"/>
<path d="M78.9829 67.9679H76.8838L74.9121 72.1422L72.9166 67.9679H70.7617L70.686 68.0396L73.8606 74.078V78.2125L73.9721 78.324H75.8242L75.9358 78.2125V74.078L79.0904 68.0754L78.9829 67.9679Z" fill="white"/>
<path d="M97.7114 67.9679L97.5999 68.0794V74.309L93.3658 67.9679H91.6132L91.5017 68.0794V78.2125L91.6132 78.324H93.4773L93.5889 78.2125V71.9669L97.8269 78.324H99.5755L99.687 78.2125V68.0794L99.5755 67.9679H97.7114Z" fill="white"/>
<path d="M116.607 74.791L117.957 71.0229L119.264 74.791H116.607ZM118.766 68.0794L118.654 67.9679H117.153L117.045 68.0754L113.229 78.2443L113.309 78.328H115.376L116.022 76.4957H119.822L120.455 78.328H122.522L122.602 78.2483L118.766 68.0794Z" fill="white"/>
<path d="M124.621 67.9679L124.506 68.0794V78.2125L124.621 78.324H126.485L126.597 78.2125V68.0794L126.485 67.9679H124.621Z" fill="white"/>
<path d="M109.282 67.9679L109.167 68.0794V74.309L104.933 67.9679H103.18L103.069 68.0794V78.2125L103.18 78.324H105.044L105.156 78.2125V71.9669L109.394 78.324H111.146L111.258 78.2125V68.0794L111.146 67.9679H109.282Z" fill="white"/>
<path d="M136.021 73.0742C135.439 72.6029 134.725 72.3244 133.978 72.2776L132.715 72.1063C132.353 72.0723 132.008 71.9339 131.723 71.708C131.615 71.6104 131.53 71.4901 131.475 71.3558C131.419 71.2215 131.394 71.0765 131.401 70.9313C131.401 70.2183 131.942 69.6208 133.054 69.6208C133.815 69.5692 134.568 69.8004 135.169 70.2701H135.324L136.491 69.1508V69.0074C135.595 68.2108 134.547 67.8643 133.117 67.8643C130.803 67.8643 129.389 69.1588 129.389 71.0069C129.368 71.3807 129.425 71.7548 129.557 72.1052C129.689 72.4557 129.892 72.7748 130.154 73.0423C130.74 73.5362 131.465 73.8355 132.229 73.8987L133.524 74.0739C133.869 74.0913 134.199 74.2183 134.468 74.4364C134.582 74.5505 134.67 74.6877 134.727 74.8389C134.784 74.99 134.809 75.1515 134.798 75.3127C134.798 76.1412 134.133 76.5913 132.906 76.5913C132.001 76.6486 131.107 76.3644 130.401 75.7946H130.245L129.051 76.9497V77.1051C130.086 78.077 131.293 78.3956 132.874 78.3956C135.113 78.3956 136.857 77.2604 136.857 75.2529C136.884 74.8489 136.825 74.4438 136.682 74.0647C136.54 73.6855 136.319 73.3411 136.033 73.0543" fill="white"/>
<path d="M68.83 57.8348C68.6695 57.6572 68.4725 57.5164 68.2525 57.4222C68.0325 57.328 67.7946 57.2826 67.5554 57.2891C67.315 57.2831 67.0761 57.3286 66.8549 57.4228C66.6336 57.5169 66.4351 57.6574 66.2728 57.8348C65.8745 58.265 65.7869 58.735 65.7869 60.6947C65.7869 62.6544 65.8864 63.1244 66.2728 63.5546C66.4353 63.7315 66.6339 63.8714 66.8552 63.9648C67.0765 64.0583 67.3153 64.1031 67.5554 64.0963C67.7944 64.1035 68.0321 64.0589 68.2521 63.9653C68.4722 63.8718 68.6693 63.7317 68.83 63.5546C69.2283 63.1244 69.3318 62.6544 69.3318 60.6947C69.3318 58.735 69.2163 58.265 68.83 57.8348ZM70.2997 64.7535C69.9441 65.1199 69.516 65.4082 69.0429 65.6002C68.5697 65.7922 68.0618 65.8837 67.5514 65.8688C67.0393 65.8829 66.5298 65.7912 66.0548 65.5993C65.5798 65.4074 65.1496 65.1194 64.7911 64.7535C63.7634 63.7218 63.7913 62.4512 63.7913 60.6947C63.7913 58.9381 63.7634 57.6635 64.7911 56.6319C65.1493 56.2656 65.5795 55.9774 66.0545 55.7855C66.5296 55.5935 67.0392 55.502 67.5514 55.5166C68.0618 55.5015 68.5698 55.5928 69.043 55.7848C69.5162 55.9768 69.9442 56.2653 70.2997 56.6319C71.3314 57.6635 71.3154 58.9341 71.3154 60.6947C71.3154 62.4552 71.3154 63.7218 70.2997 64.7535Z" fill="white"/>
<path d="M116.265 62.7538L115.504 61.9971L114.448 63.0406L115.337 63.9169C115.141 64.0435 114.912 64.1074 114.679 64.1001C114.438 64.1068 114.199 64.0615 113.977 63.9673C113.755 63.8732 113.556 63.7324 113.393 63.5545C112.994 63.1243 112.903 62.6543 112.903 60.6946C112.903 58.7349 113.006 58.2649 113.393 57.8347C113.556 57.6575 113.755 57.5174 113.977 57.424C114.199 57.3305 114.439 57.2859 114.679 57.293C114.918 57.2863 115.155 57.3313 115.374 57.4248C115.593 57.5183 115.79 57.6581 115.95 57.8347C116.348 58.2649 116.452 58.7349 116.452 60.6946C116.499 61.385 116.437 62.0787 116.269 62.7499M118.607 65.0879L117.81 64.2913C118.451 63.3473 118.439 62.2201 118.439 60.7065C118.439 58.95 118.439 57.6754 117.424 56.6438C116.686 55.9279 115.699 55.5275 114.671 55.5275C113.644 55.5275 112.656 55.9279 111.919 56.6438C110.891 57.6754 110.919 58.946 110.919 60.7065C110.919 62.4671 110.891 63.7377 111.919 64.7653C112.552 65.3707 113.365 65.7528 114.235 65.8534C115.105 65.9541 115.984 65.7678 116.739 65.323L117.559 66.1435H117.718L118.607 65.2592V65.0879Z" fill="white"/>
<path d="M79.174 64.0086H75.1113V55.7158L74.9997 55.6042H73.2352L73.1277 55.7158V65.6696L73.2352 65.7811H79.174L79.2856 65.6696V64.1201L79.174 64.0086Z" fill="white"/>
<path d="M86.0012 55.6042H84.0096L82.1375 59.7069L80.2336 55.6042H78.2421L78.1345 55.7158L81.1378 61.6068V65.6736L81.2493 65.7851H82.9979L83.1094 65.6736V61.6068L86.1127 55.7158L86.0012 55.6042Z" fill="white"/>
<path d="M94.6404 55.6042L91.9957 61.1089L89.331 55.6042H87.4868L87.3752 55.7158V65.6736L87.4868 65.7851H89.2513L89.3628 65.6736V59.8502L91.3225 63.7099H92.6648L94.6086 59.8502V65.6736L94.7201 65.7851H96.4846L96.6001 65.6736V55.7158L96.4886 55.6042H94.6404Z" fill="white"/>
<path d="M107.307 55.6042L107.195 55.7158V65.6696L107.307 65.7851H109.071L109.183 65.6696V55.7158L109.071 55.6042H107.307Z" fill="white"/>
<path d="M125.804 55.6042L125.693 55.7158V62.2242C125.693 63.3952 124.992 64.0962 123.92 64.0962C122.849 64.0962 122.164 63.3952 122.164 62.2242V55.7158L122.052 55.6042H120.288L120.176 55.7158V62.2959C120.176 64.4547 121.833 65.8807 123.924 65.8807C126.015 65.8807 127.672 64.4667 127.672 62.2959V55.7158L127.561 55.6042H125.804Z" fill="white"/>
<path d="M131.468 64.0086V61.5351H135.376L135.487 61.4236V59.8741L135.376 59.7626H131.468V57.3767H136.077L136.188 57.2612V55.7158L136.077 55.6042H129.596L129.485 55.7158V65.6696L129.596 65.7811H136.077L136.188 65.6696V64.1201L136.077 64.0086H131.468Z" fill="white"/>
<path d="M102.352 60.5193H100.492V57.3886H102.352C102.724 57.4509 103.061 57.643 103.305 57.9307C103.548 58.2183 103.682 58.5831 103.682 58.96C103.682 59.3369 103.548 59.7016 103.305 59.9893C103.061 60.277 102.724 60.469 102.352 60.5313M102.451 55.6161H98.6157L98.5042 55.7277V65.6854L98.6157 65.797H100.38L100.492 65.6854V62.3197H102.451C102.901 62.3352 103.35 62.26 103.77 62.0985C104.19 61.9371 104.574 61.6927 104.897 61.3799C105.221 61.0671 105.478 60.6924 105.654 60.278C105.83 59.8636 105.921 59.4181 105.921 58.9679C105.921 58.5178 105.83 58.0722 105.654 57.6578C105.478 57.2435 105.221 56.8687 104.897 56.5559C104.574 56.2432 104.19 55.9988 103.77 55.8373C103.35 55.6758 102.901 55.6006 102.451 55.6161Z" fill="white"/>
</svg>
