<svg width="200" height="200" viewBox="0 0 200 200" fill="none" xmlns="http://www.w3.org/2000/svg">
<circle cx="100" cy="100" r="98.5" fill="#091C3E" stroke="#BAF30F" stroke-width="3"/>
<g clip-path="url(#clip0_186_705)">
<path d="M84.169 75.3334C84.2621 75.3865 84.3697 75.409 84.4764 75.3977C84.5785 75.3877 84.6727 75.3386 84.7394 75.2606C84.806 75.1826 84.8399 75.0819 84.8338 74.9795C84.8225 74.8884 84.7824 74.8032 84.7194 74.7364C84.7194 74.6721 83.1645 73.1922 81.7096 71.5586C80.0653 69.7355 79.2717 68.1519 79.5934 67.1689C79.7057 66.792 79.9124 66.45 80.194 66.1754C80.4755 65.9008 80.8224 65.7026 81.202 65.5997C80.8803 65.0273 80.6271 64.419 80.4478 63.7873C79.9089 63.7426 79.3673 63.7426 78.8285 63.7873C78.0722 63.8503 77.3395 64.0811 76.6837 64.4629C75.8732 64.9319 75.2818 65.7032 75.0394 66.6077C74.1386 70.5648 81.2092 73.8821 84.169 75.3334Z" fill="#D9AA05"/>
<path d="M91.5791 74.5326C91.6722 74.5987 91.7832 74.6348 91.8973 74.6362C92.0104 74.6374 92.1199 74.5967 92.2047 74.5218C92.2801 74.4656 92.3302 74.3818 92.3443 74.2888C92.3583 74.1958 92.3352 74.101 92.2798 74.025C89.8955 71.2189 85.5416 65.5674 87.1109 62.0464C88.387 59.6336 92.1368 60.7703 93.0054 60.949C93.4916 61.0777 93.849 61.1778 94.1028 60.8096C94.3566 60.4414 93.9634 60.2877 93.8848 60.2091C93.0914 59.3074 92.1245 58.5749 91.0417 58.0553C89.9589 57.5357 88.7825 57.2397 87.5827 57.1849H87.2896C86.269 57.1987 85.2709 57.4867 84.3999 58.0188C83.5288 58.5508 82.8169 59.3073 82.3388 60.2091C80.4871 63.6014 83.6149 67.1367 85.706 69.5031C87.4656 71.398 89.4361 73.0855 91.5791 74.5326Z" fill="#D9AA05"/>
<path d="M84.8301 69.9892L84.7157 69.8606L84.1152 69.1456C83.9283 69.6028 83.863 70.1005 83.9257 70.5904C83.9883 71.0803 84.1768 71.5456 84.4727 71.941C84.9563 72.8348 85.511 73.6883 86.1313 74.4933C86.1313 74.4933 87.4074 74.3539 89.5522 74.2001C87.8425 72.9565 86.2607 71.5459 84.8301 69.9892Z" fill="#CE1417"/>
<path d="M93.302 73.7534C93.302 73.7534 93.5201 73.9821 93.5701 74.0608C94.9999 74.0608 96.4655 73.9571 98.0348 73.9464C97.0088 71.0108 96.407 67.9439 96.2475 64.8383C93.6559 65.1208 91.1127 65.7434 88.6836 66.6899C89.8994 69.2408 91.4528 71.6166 93.302 73.7534Z" fill="#CE1417"/>
<path d="M99.0716 55.101C98.6032 55.2242 98.1883 55.4983 97.8912 55.8807C97.594 56.2632 97.431 56.7329 97.4273 57.2172C97.4273 57.8197 97.6666 58.3975 98.0926 58.8235C98.5186 59.2495 99.0965 59.4889 99.6989 59.4889C100.301 59.4889 100.879 59.2495 101.305 58.8235C101.731 58.3975 101.971 57.8197 101.971 57.2172C101.966 56.7367 101.806 56.2707 101.514 55.8891C101.222 55.5075 100.814 55.231 100.351 55.101V53.135H102.378V51.9375H100.351V49.9965H99.0752V51.9375H97.0591V53.135H99.0752L99.0716 55.101Z" fill="#D9AA05"/>
<path d="M126.693 82.8007C126.375 82.647 118.196 79.7015 99.7079 79.7015C81.22 79.7015 73.0412 82.647 72.7231 82.8007C71.5445 88.5386 70.9671 94.3837 71.0001 100.241C71.0001 108.842 72.7231 119.991 78.7713 128.82C84.8196 137.65 97.4738 148.749 99.7079 150C101.942 148.724 114.61 137.625 120.659 128.82C126.707 120.016 128.416 108.842 128.416 100.241C128.449 94.3837 127.871 88.5386 126.693 82.8007Z" fill="#D9AA05"/>
<path d="M114.675 74.7506C114.603 74.8223 114.563 74.9193 114.563 75.0205C114.563 75.1217 114.603 75.2187 114.675 75.2904C114.736 75.3527 114.817 75.393 114.903 75.4048C115.013 75.4029 115.12 75.3811 115.222 75.3404C118.221 73.8748 125.248 70.5683 124.294 66.6398C124.172 66.1908 123.963 65.7702 123.678 65.4021C123.394 65.0341 123.039 64.7258 122.635 64.495C121.978 64.1167 121.246 63.8861 120.491 63.8194C119.952 63.7749 119.41 63.7749 118.871 63.8194C118.714 64.4386 118.487 65.0382 118.196 65.6067C118.584 65.7079 118.94 65.9064 119.23 66.1834C119.521 66.4605 119.735 66.8071 119.854 67.1903C120.172 68.159 119.382 69.7426 117.738 71.5799C116.23 73.1885 114.721 74.672 114.675 74.7506Z" fill="#D9AA05"/>
<path d="M106.432 60.9205C107.3 60.6917 111 59.6444 112.326 62.0322C113.895 65.5425 109.545 71.194 107.157 74C107.123 74.0333 107.096 74.0731 107.078 74.117C107.059 74.1609 107.05 74.208 107.05 74.2556C107.05 74.3032 107.059 74.3504 107.078 74.3943C107.096 74.4382 107.123 74.4779 107.157 74.5112C107.242 74.586 107.352 74.6268 107.465 74.6256C107.579 74.6242 107.69 74.588 107.783 74.5219C109.933 73.0581 111.902 71.3446 113.649 69.4174C115.69 67.0688 118.868 63.5371 117.03 60.1234C116.541 59.234 115.823 58.4911 114.951 57.9709C114.079 57.4508 113.084 57.1721 112.069 57.1636H111.826C110.627 57.2286 109.453 57.5302 108.371 58.0511C107.29 58.572 106.322 59.3018 105.524 60.1984C105.524 60.1984 105.216 60.5309 105.331 60.7346C105.445 60.9384 105.946 61.0349 106.432 60.9205Z" fill="#D9AA05"/>
<path d="M115.297 69.1349L114.696 69.8248L114.582 69.9535C113.154 71.5402 111.568 72.9775 109.849 74.243C112.044 74.3824 113.281 74.5254 113.281 74.5254C113.897 73.7174 114.451 72.8642 114.939 71.9731C115.243 71.5731 115.436 71.1002 115.498 70.6019C115.561 70.1037 115.491 69.5977 115.297 69.1349Z" fill="#CE1417"/>
<path d="M105.845 74.0608C105.845 73.9857 106.099 73.7927 106.114 73.7534C107.968 71.6135 109.531 69.2371 110.761 66.6864C108.326 65.7411 105.778 65.1186 103.182 64.8347C103.029 67.9411 102.427 71.0089 101.395 73.9428C102.896 73.9571 104.401 73.9965 105.845 74.0608Z" fill="#CE1417"/>
<path d="M99.7079 60.1162C98.5711 60.1162 97.6167 61.9786 97.6811 65.757C97.8124 68.659 98.4024 71.522 99.429 74.2395C99.5327 74.4183 99.6221 74.4826 99.7114 74.4826C99.8008 74.4826 99.8902 74.4183 99.9938 74.2395C101.008 71.5394 101.598 68.6985 101.742 65.8177C101.799 61.9786 100.845 60.1162 99.7079 60.1162Z" fill="#D9AA05"/>
<path d="M99.7078 75.605C92.462 75.605 86.8713 76.1662 86.8713 76.1662V78.5505C86.8713 78.5505 92.4084 77.9893 99.7078 77.9893C107.007 77.9893 112.544 78.5505 112.544 78.5505V76.1769C112.544 76.1769 106.943 75.605 99.7078 75.605Z" fill="#D9AA05"/>
<path d="M123.897 85.0956C123.615 84.9669 116.09 82.8507 99.6576 82.8507C83.2251 82.8507 75.7577 84.9848 75.4003 85.0956C74.5226 90.4817 74.0958 95.9316 74.1241 101.389C74.1241 108.953 75.6541 119.187 81.0124 126.904C86.3708 134.622 97.5629 144.638 99.7077 145.878C101.852 144.602 112.987 134.64 118.296 126.958C123.604 119.276 125.184 108.956 125.184 101.442C125.205 95.9673 124.775 90.4998 123.897 85.0956Z" fill="white"/>
<path d="M117.123 125.131C112.119 132.281 101.62 142.075 99.7077 143.133C97.7952 142.061 87.3073 132.277 82.3064 125.131C77.3055 117.986 75.9257 108.545 75.9257 101.539C75.9032 96.4955 76.3038 91.4591 77.1232 86.4826C77.3913 86.3682 84.4333 84.5309 99.7684 84.5309C115.104 84.5309 122.031 86.3682 122.349 86.4826C123.169 91.4591 123.569 96.4955 123.547 101.539C123.554 108.52 122.138 117.975 117.123 125.131Z" fill="#D9AA05"/>
<path d="M121.945 98.479H77.47C77.3806 99.487 77.3806 100.52 77.3806 101.542C77.3806 105.728 78.0062 116.341 83.5683 124.266C88.3113 130.487 93.7236 136.168 99.7077 141.206C105.691 136.17 111.099 130.488 115.833 124.263C121.409 116.341 122.035 105.725 122.035 101.539C122.035 100.52 122.035 99.487 121.945 98.479Z" fill="white"/>
<path d="M80.4941 116.967C81.3527 119.46 82.5456 121.826 84.0402 123.998C85.5695 126.134 87.2264 128.175 89.0017 130.111V99.7551H80.4941V116.967Z" fill="url(#paint0_linear_186_705)"/>
<path d="M94.782 99.7551V136.002C96.8231 137.979 98.6104 139.576 99.7078 140.491C100.78 139.598 102.593 137.939 104.634 136.002V99.7551H94.782Z" fill="url(#paint1_linear_186_705)"/>
<path d="M121.945 98.479C121.781 93.8857 121.309 89.5425 121.041 87.7552C118.871 87.2833 112.104 86.0715 99.7077 86.0715C87.3109 86.0715 80.5692 87.2833 78.3744 87.7552C78.1063 89.5425 77.6344 93.8785 77.47 98.479H121.945Z" fill="#CE1417"/>
<path d="M110.414 130.043C112.187 128.128 113.844 126.108 115.375 123.995C116.865 121.842 118.058 119.499 118.921 117.028V99.7551H110.414V130.043Z" fill="url(#paint2_linear_186_705)"/>
<path d="M83.6219 91.9231C83.6148 91.7953 83.6573 91.6697 83.7405 91.5725C83.8238 91.4753 83.9413 91.4139 84.0687 91.4012H84.1581C84.3432 91.4009 84.5245 91.4543 84.68 91.5549L84.9087 90.7113C84.6306 90.5463 84.3134 90.4586 83.9901 90.4575C83.6152 90.4641 83.2579 90.6176 82.9951 90.8851C82.7324 91.1525 82.5852 91.5124 82.5852 91.8874V92.0161C82.5834 92.344 82.673 92.666 82.8442 92.9457C83.0153 93.2255 83.2611 93.4519 83.554 93.5996C83.8614 93.8034 84.1795 93.9571 84.1795 94.3646C84.1814 94.4383 84.1688 94.5116 84.1423 94.5805C84.1159 94.6493 84.0761 94.7122 84.0253 94.7657C83.9745 94.8191 83.9137 94.862 83.8463 94.892C83.7789 94.9219 83.7063 94.9382 83.6326 94.9401C83.4572 94.9378 83.2839 94.9026 83.1214 94.8364L82.8283 95.6657C83.0961 95.8351 83.4052 95.9278 83.722 95.9338C84.1183 95.9407 84.5016 95.7924 84.7901 95.5206C85.0786 95.2488 85.2495 94.875 85.2662 94.479V94.2788C85.2662 92.8489 83.6719 92.7989 83.6719 91.9195" fill="white"/>
<path d="M85.7382 95.8517H87.2574L87.4361 91.2726V91.387L88.3405 95.8517H89.1448L89.9598 91.2726L90.2672 95.8517H91.6971C91.5663 95.6588 91.4909 95.4338 91.479 95.2011C91.479 94.8186 90.9428 89.7927 90.8785 89.1528L89.1698 89.2672L88.6837 93.2493L88.0831 89.3459L86.4388 89.5496C86.3637 90.4433 85.9812 94.9723 85.9419 95.2905C85.9217 95.5137 85.8468 95.7286 85.7239 95.916" fill="white"/>
<path d="M96.823 95.8516H98.2528V92.4593L98.1885 91.7694L99.7077 95.8659H100.905V89.6318C100.905 89.3824 100.967 89.1369 101.084 88.9169H99.6541V92.1054C99.6499 92.449 99.6846 92.792 99.7578 93.1278L98.2528 88.9169H96.9767V95.2082C96.9921 95.4291 96.9343 95.649 96.8123 95.8338" fill="white"/>
<path d="M105.91 92.4915C105.863 92.8964 105.898 93.3065 106.01 93.6983C106.122 94.0901 106.311 94.4558 106.565 94.7746C106.819 95.0933 107.133 95.3588 107.49 95.5559C107.847 95.753 108.239 95.8778 108.644 95.9231H108.694H108.798C109.109 95.9514 109.42 95.884 109.692 95.7301L109.398 94.5683C109.243 94.6285 109.079 94.6635 108.912 94.672C107.79 94.672 107.293 93.4602 107.293 92.4772C107.293 91.4942 107.79 90.4218 108.912 90.4218C109.076 90.4234 109.24 90.445 109.398 90.4861L109.717 89.4137C109.49 89.3064 109.249 89.2329 109.002 89.1957H108.709C107.904 89.2764 107.163 89.6685 106.643 90.2883C106.123 90.9081 105.867 91.7064 105.928 92.5129" fill="white"/>
<path d="M117.263 91.5264L117.581 90.5433H115.029V95.8516H116.101V93.6461H116.98V92.6631H116.101V91.5264H117.263Z" fill="white"/>
<path d="M119.904 94.9723C119.011 94.9723 118.514 94.1036 118.475 93.2243C118.435 92.3449 118.946 91.4906 119.751 91.4906C119.882 91.4714 120.016 91.4714 120.148 91.4906L120.366 90.6863C120.141 90.5852 119.896 90.541 119.651 90.5576C118.969 90.6273 118.339 90.9548 117.891 91.4732C117.443 91.9915 117.209 92.6616 117.238 93.3464C117.268 94.0311 117.557 94.6789 118.048 95.1572C118.539 95.6355 119.194 95.9082 119.879 95.9195C120.134 95.939 120.388 95.8668 120.594 95.7158L120.312 94.9258C120.185 94.9869 120.045 95.0175 119.904 95.0151" fill="white"/>
<path d="M94.1565 94.6363C93.3129 94.6363 93.2628 92.9276 93.2628 92.3914C93.2628 91.8552 93.3272 90.1465 94.1565 90.1465C94.9858 90.1465 95.0502 91.7909 95.0502 92.3914C95.0502 92.9919 94.9858 94.6363 94.1565 94.6363ZM94.1565 88.9169C93.0341 88.9169 91.9224 89.8749 91.9224 92.3986C91.9224 94.9222 93.0341 95.9195 94.1565 95.9195C95.2789 95.9195 96.3906 94.9759 96.3906 92.4379C96.3906 89.8999 95.2789 88.9562 94.1565 88.9562" fill="white"/>
<path d="M103.536 91.6658L103.665 90.8115L103.804 91.6658L104.162 93.4781H103.282L103.536 91.6658ZM102.9 95.8517L103.129 94.5755H104.405L104.634 95.8517H106.063C105.926 95.6624 105.822 95.4508 105.756 95.2261C105.681 94.8687 104.558 89.7641 104.39 88.9741H103.05L101.57 95.8767L102.9 95.8517Z" fill="white"/>
<path d="M112.008 94.7936C111.164 94.7936 111.104 93.185 111.104 92.6881C111.104 92.1912 111.168 90.5827 112.008 90.5827C112.848 90.5827 112.902 92.1269 112.902 92.6881C112.902 93.2493 112.902 94.7936 112.008 94.7936ZM112.008 89.4316C110.871 89.4316 109.749 90.3253 109.749 92.6988C109.749 95.0724 110.871 95.941 112.008 95.941C113.145 95.941 114.253 95.0474 114.253 92.6738C114.253 90.3003 113.105 89.4316 112.008 89.4316Z" fill="white"/>
<path d="M80.2011 94.0036L80.4191 92.613L80.5335 91.9767L80.6479 92.613L80.9017 94.0036H80.2011ZM81.1198 90.6327H80.0474L78.7712 95.8516H79.7936L79.9866 94.8043H81.0983L81.2913 95.8516H82.5031C82.4081 95.7272 82.3421 95.5831 82.3101 95.4298C82.2458 95.1474 81.1627 90.6327 81.1627 90.6327" fill="white"/>
</g>
<defs>
<linearGradient id="paint0_linear_186_705" x1="84.7574" y1="88.0009" x2="84.7574" y2="128.531" gradientUnits="userSpaceOnUse">
<stop stop-color="#E30613"/>
<stop offset="0.3" stop-color="#E10613"/>
<stop offset="0.49" stop-color="#DC0812"/>
<stop offset="0.65" stop-color="#D10A10"/>
<stop offset="0.8" stop-color="#C30D0E"/>
<stop offset="0.93" stop-color="#B00F0A"/>
<stop offset="1" stop-color="#A31008"/>
</linearGradient>
<linearGradient id="paint1_linear_186_705" x1="99.7063" y1="100.724" x2="99.7063" y2="141.091" gradientUnits="userSpaceOnUse">
<stop stop-color="#E30613"/>
<stop offset="0.3" stop-color="#E10613"/>
<stop offset="0.49" stop-color="#DC0812"/>
<stop offset="0.65" stop-color="#D10A10"/>
<stop offset="0.8" stop-color="#C30D0E"/>
<stop offset="0.93" stop-color="#B00F0A"/>
<stop offset="1" stop-color="#A31008"/>
</linearGradient>
<linearGradient id="paint2_linear_186_705" x1="114.677" y1="88.0009" x2="114.677" y2="128.531" gradientUnits="userSpaceOnUse">
<stop stop-color="#E30613"/>
<stop offset="0.3" stop-color="#E10613"/>
<stop offset="0.49" stop-color="#DC0812"/>
<stop offset="0.65" stop-color="#D10A10"/>
<stop offset="0.8" stop-color="#C30D0E"/>
<stop offset="0.93" stop-color="#B00F0A"/>
<stop offset="1" stop-color="#A31008"/>
</linearGradient>
<clipPath id="clip0_186_705">
<rect width="57.4155" height="100" fill="white" transform="translate(71 50)"/>
</clipPath>
</defs>
</svg>
