<svg width="200" height="200" viewBox="0 0 200 200" fill="none" xmlns="http://www.w3.org/2000/svg">
<circle cx="100" cy="100" r="98.5" fill="#171D8D" stroke="#2CE8DA" stroke-width="3"/>
<path d="M73.0117 83.3429V114.081C73.0117 145.744 99.9277 149.951 100.198 149.988L100.284 150L100.37 149.988C100.64 149.947 127.561 145.74 127.561 114.081V83.3429H73.0117Z" fill="#213881"/>
<path d="M100.284 149.39C100.284 149.39 73.6182 145.584 73.6182 114.085V83.9532H126.95V114.085C126.95 145.584 100.284 149.39 100.284 149.39Z" fill="#00A0C6"/>
<path d="M75.4448 85.776V114.081C75.4448 142.189 97.6461 147.055 100.173 147.518L100.284 147.538L100.395 147.518C102.926 147.055 125.123 142.189 125.123 114.081V85.776H75.4448Z" fill="#213881"/>
<path d="M124.517 86.3864V114.081C124.517 141.492 103.356 146.354 100.284 146.916C97.2121 146.354 76.0513 141.488 76.0513 114.081V86.3864H124.513H124.517Z" fill="white"/>
<path d="M80.9258 101.907V112.864C80.9258 134.373 95.6352 139.6 100.145 140.689L100.288 140.726L100.432 140.689C104.942 139.6 119.651 134.369 119.651 112.864V101.907H80.9299H80.9258Z" fill="#213881"/>
<path d="M106.932 102.517V137.359C106.953 137.347 106.977 137.331 107.002 137.318V102.517H106.932Z" fill="#00A0C6"/>
<path d="M93.9678 102.517V137.556C93.9924 137.568 94.0128 137.58 94.0374 137.593V102.517H93.9678Z" fill="#00A0C6"/>
<path d="M81.5317 102.517V112.864C81.5317 127.352 88.2822 134.283 93.9636 137.552V102.513H81.5317V102.517Z" fill="#00A0C6"/>
<path d="M94.0332 102.517V137.593C96.5687 139.043 98.8872 139.764 100.284 140.099C101.75 139.743 104.241 138.961 106.932 137.355V102.513H94.0332V102.517Z" fill="white"/>
<path d="M119.041 112.864V102.517H107.002V137.318C112.597 133.955 119.041 127.02 119.041 112.864Z" fill="#00A0C6"/>
<path d="M85.4886 92.3872L84.9889 94.4435H84.8455C84.8128 94.124 84.7554 93.8659 84.6776 93.6734C84.5588 93.3949 84.399 93.1819 84.2024 93.0303C84.0058 92.8787 83.7928 92.805 83.5634 92.805C83.334 92.805 83.1456 92.8951 82.9818 93.0713C82.8138 93.2474 82.7319 93.4481 82.7319 93.6693C82.7319 93.8905 82.7892 94.1035 82.908 94.3165C83.0227 94.5295 83.3013 94.8449 83.7355 95.275C84.0836 95.615 84.3171 95.9099 84.4359 96.1557C84.5547 96.4015 84.6161 96.6677 84.6161 96.9544C84.6161 97.278 84.5342 97.5771 84.3704 97.8474C84.2065 98.1178 83.9649 98.3308 83.6454 98.4782C83.3299 98.6257 82.9695 98.7035 82.5722 98.7035C82.3264 98.7035 82.0151 98.6666 81.6423 98.5888C81.2696 98.5151 81.0238 98.4741 80.9009 98.4741C80.8026 98.4741 80.7166 98.4905 80.6388 98.5192C80.5609 98.552 80.4667 98.6093 80.3561 98.6994H80.1841L80.692 96.3892H80.8559C80.8927 96.7988 80.9706 97.147 81.0893 97.4337C81.2122 97.7204 81.3843 97.9457 81.6055 98.1055C81.8307 98.2652 82.0847 98.3471 82.3714 98.3471C82.6582 98.3471 82.8917 98.2488 83.0842 98.0563C83.2767 97.8597 83.3709 97.6344 83.3709 97.3723C83.3709 97.147 83.3177 96.934 83.2112 96.7292C83.1047 96.5243 82.8589 96.2253 82.4738 95.8362C82.0888 95.4471 81.8226 95.0948 81.6751 94.7876C81.5686 94.5582 81.5194 94.3165 81.5194 94.0544C81.5194 93.6079 81.6874 93.2187 82.0274 92.891C82.3673 92.5633 82.8097 92.3995 83.3586 92.3995C83.6044 92.3995 83.9321 92.4568 84.3335 92.5715C84.5711 92.6371 84.739 92.6739 84.8373 92.6739C84.9193 92.6739 84.993 92.6576 85.0585 92.6207C85.1241 92.5838 85.1978 92.5101 85.2838 92.4036H85.4845L85.4886 92.3872Z" fill="#213881"/>
<path d="M85.8616 97.2249C86.0582 97.2249 86.2261 97.2986 86.3654 97.442C86.5047 97.5853 86.5702 97.7574 86.5702 97.9622C86.5702 98.167 86.5006 98.339 86.3613 98.4824C86.222 98.6257 86.0541 98.6954 85.8616 98.6954C85.6691 98.6954 85.5011 98.6217 85.3659 98.4824C85.2308 98.339 85.1611 98.167 85.1611 97.9622C85.1611 97.7574 85.2308 97.5853 85.3659 97.442C85.5011 97.2986 85.6691 97.2249 85.8616 97.2249Z" fill="#213881"/>
<path d="M92.5588 92.3872L92.0591 94.4435H91.9157C91.883 94.124 91.8256 93.8659 91.7478 93.6734C91.629 93.3949 91.4693 93.1819 91.2726 93.0303C91.076 92.8787 90.863 92.805 90.6336 92.805C90.4042 92.805 90.2158 92.8951 90.0479 93.0713C89.8799 93.2474 89.798 93.4481 89.798 93.6693C89.798 93.8905 89.8554 94.1035 89.9741 94.3165C90.0929 94.5295 90.3674 94.8449 90.8016 95.275C91.1497 95.615 91.3832 95.9099 91.502 96.1557C91.6208 96.4015 91.6823 96.6677 91.6823 96.9544C91.6823 97.278 91.6003 97.5771 91.4324 97.8474C91.2685 98.1178 91.0269 98.3308 90.7074 98.4782C90.392 98.6257 90.0315 98.7035 89.6342 98.7035C89.3884 98.7035 89.0771 98.6666 88.7043 98.5888C88.3316 98.5151 88.0858 98.4741 87.9629 98.4741C87.8646 98.4741 87.7786 98.4905 87.7008 98.5192C87.6229 98.552 87.5287 98.6093 87.4181 98.6994H87.2461L87.754 96.3892H87.9179C87.9547 96.7988 88.0326 97.147 88.1513 97.4337C88.2701 97.7204 88.4463 97.9457 88.6675 98.1055C88.8928 98.2652 89.1467 98.3471 89.4335 98.3471C89.7202 98.3471 89.9537 98.2488 90.1462 98.0563C90.3387 97.8597 90.4329 97.6344 90.4329 97.3723C90.4329 97.147 90.3797 96.934 90.2732 96.7292C90.1667 96.5243 89.9209 96.2253 89.5359 95.8362C89.1508 95.4471 88.8846 95.0948 88.7371 94.7876C88.6306 94.5582 88.5814 94.3165 88.5814 94.0544C88.5814 93.6079 88.7494 93.2187 89.0894 92.891C89.4294 92.5633 89.8717 92.3995 90.4247 92.3995C90.6705 92.3995 90.9982 92.4568 91.3996 92.5715C91.6372 92.6371 91.8051 92.6739 91.9034 92.6739C91.9854 92.6739 92.0591 92.6576 92.1246 92.6207C92.1902 92.5838 92.2639 92.5101 92.3499 92.4036H92.5506L92.5588 92.3872Z" fill="#213881"/>
<path d="M92.9278 97.2249C93.1244 97.2249 93.2924 97.2986 93.4316 97.442C93.5709 97.5853 93.6405 97.7574 93.6405 97.9622C93.6405 98.167 93.5709 98.339 93.4316 98.4824C93.2924 98.6257 93.1244 98.6954 92.9319 98.6954C92.7394 98.6954 92.5714 98.6217 92.4363 98.4824C92.3011 98.339 92.2314 98.167 92.2314 97.9622C92.2314 97.7574 92.3011 97.5853 92.4363 97.442C92.5714 97.2986 92.7394 97.2249 92.9319 97.2249H92.9278Z" fill="#213881"/>
<path d="M98.883 98.5643H94.2461L94.2912 98.4086C94.5656 98.4086 94.7663 98.3513 94.8933 98.2407C95.0203 98.126 95.1391 97.8761 95.2456 97.4829L96.3188 93.5915C96.3802 93.3785 96.4089 93.2106 96.4089 93.0877C96.4089 92.9648 96.3679 92.8747 96.2819 92.8009C96.1959 92.7313 96.0279 92.6863 95.774 92.674L95.8231 92.5183H98.6126L98.5635 92.674C98.2972 92.6822 98.0965 92.7436 97.9654 92.8624C97.8343 92.9812 97.7156 93.2269 97.6091 93.5997L96.6301 97.1552C96.5072 97.6058 96.4416 97.8802 96.4416 97.9785C96.4416 98.04 96.4744 98.0932 96.5359 98.1465C96.6014 98.1997 96.7038 98.2243 96.8472 98.2243C97.3223 98.2243 97.7811 98.1096 98.2235 97.8843C98.6618 97.659 99.0386 97.319 99.3417 96.8684H99.5261L98.883 98.5643Z" fill="#213881"/>
<path d="M101.964 96.2418L103.545 94.2757L103.43 96.2418H101.964ZM103.385 97.3847C103.369 97.7164 103.328 97.9499 103.266 98.0851C103.201 98.2203 103.127 98.3063 103.049 98.3473C103.008 98.3677 102.869 98.3882 102.623 98.4128L102.574 98.5684H105.093L105.134 98.4128C104.954 98.3964 104.827 98.3432 104.749 98.253C104.671 98.1629 104.634 98.0114 104.634 97.8107C104.634 97.7574 104.639 97.6018 104.647 97.3437L104.847 92.3955H104.647L100.546 97.5075C100.247 97.8803 100.022 98.1261 99.8624 98.2448C99.7436 98.3309 99.6084 98.3882 99.4528 98.4128L99.4077 98.5684H101.132V98.4128C100.964 98.4046 100.841 98.3677 100.768 98.3063C100.694 98.2448 100.657 98.1793 100.657 98.1056C100.657 98.0359 100.673 97.9704 100.702 97.9008C100.739 97.8107 100.796 97.7123 100.874 97.6017L101.28 97.0979L101.652 96.631H103.426L103.385 97.3887V97.3847Z" fill="#213881"/>
<path d="M111.667 92.6863L107.219 98.2243H107.567C108.259 98.2243 108.816 98.1178 109.234 97.9007C109.656 97.6836 110.045 97.3272 110.402 96.8275H110.582L109.976 98.5684H105.466V98.3963L109.902 92.8747H109.357C108.661 92.8747 108.145 92.9648 107.809 93.145C107.473 93.3253 107.186 93.6284 106.945 94.0585H106.777L107.272 92.5183H111.672V92.6863H111.667Z" fill="#213881"/>
<path d="M112.29 92.674L112.339 92.5183H115.178L115.125 92.674C114.867 92.674 114.67 92.7354 114.535 92.8542C114.4 92.973 114.281 93.2269 114.179 93.6038L113.109 97.4747C113.032 97.7491 112.991 97.9335 112.991 98.0277C112.991 98.1342 113.032 98.2202 113.109 98.2816C113.212 98.3595 113.404 98.4004 113.691 98.4086L113.646 98.5643H110.771L110.82 98.4086C111.106 98.4086 111.315 98.3513 111.45 98.2366C111.586 98.1219 111.704 97.8679 111.815 97.4788L112.884 93.6079C112.95 93.3662 112.982 93.186 112.982 93.0631C112.982 92.9525 112.941 92.8665 112.86 92.8009C112.782 92.7395 112.589 92.6944 112.286 92.674H112.29Z" fill="#213881"/>
<path d="M119.18 93.018C119.327 93.1982 119.397 93.4932 119.397 93.8987C119.397 94.55 119.262 95.2873 118.987 96.1188C118.713 96.9503 118.36 97.5812 117.926 98.0113C117.709 98.2284 117.443 98.3349 117.136 98.3349C116.898 98.3349 116.706 98.2406 116.558 98.0563C116.407 97.872 116.333 97.5975 116.333 97.2371C116.333 96.8152 116.411 96.2827 116.566 95.6478C116.722 95.0129 116.886 94.5131 117.062 94.1445C117.238 93.7758 117.41 93.4932 117.582 93.2925C117.75 93.0958 117.914 92.9525 118.074 92.8665C118.233 92.7804 118.422 92.7395 118.647 92.7395C118.872 92.7395 119.045 92.8296 119.188 93.0139L119.18 93.018ZM118.541 98.3144C119.114 97.9785 119.63 97.4296 120.089 96.68C120.548 95.9263 120.777 95.1767 120.777 94.4271C120.777 94.0912 120.691 93.7594 120.515 93.4317C120.339 93.104 120.097 92.846 119.778 92.6617C119.462 92.4773 119.126 92.3872 118.778 92.3872C118.18 92.3872 117.578 92.5879 116.964 92.9893C116.349 93.3908 115.862 93.9233 115.501 94.5909C115.141 95.2586 114.957 95.9222 114.957 96.5776C114.957 96.9053 115.03 97.2371 115.174 97.5812C115.317 97.9252 115.534 98.1956 115.821 98.3922C116.108 98.5888 116.484 98.6912 116.951 98.6912C117.582 98.6912 118.111 98.5642 118.545 98.3144H118.541Z" fill="#213881"/>
<path d="M26 50C26 50 30.2232 56.4474 37.412 56.4474C37.412 56.4474 39.1815 60.5559 45.6862 60.5559C45.6862 60.5559 46.7144 64.2096 52.0189 64.2096C52.0189 64.2096 52.9324 66.95 57.9543 66.95C57.9543 66.95 58.409 68.7769 62.5215 68.7769C62.5215 68.7769 64.9178 71.5172 68.9689 71.5172C68.9689 71.5172 69.8824 73.3441 73.0774 73.3441C73.0774 73.3441 74.5602 75.171 76.6738 75.171C76.6738 75.171 77.9477 76.9979 79.8688 76.9979C79.8688 76.9979 81.409 79.7956 87.6884 79.7956C87.6884 79.7956 86.263 81.5078 83.6947 81.5078C83.6947 81.5078 83.8667 82.5359 84.8948 82.8186C84.8948 82.8186 84.0961 83.8467 82.6133 83.8467C82.6133 83.8467 83.5841 86.1283 86.3203 86.1283C89.0566 86.1283 88.3766 85.3295 90.4288 86.1283C90.4288 86.1283 91.7969 87.2711 90.0274 88.3525C90.0274 88.3525 91.3422 88.713 92.7677 86.583C92.7677 86.583 93.5091 87.4391 92.653 88.3525C92.653 88.3525 94.23 88.5614 95.3933 86.1283C95.3933 86.1283 97.2202 86.9844 95.3933 88.3525C95.3933 88.3525 97.3513 88.5614 98.191 86.1283C98.191 86.1283 99.7885 85.4934 100.931 86.1283C101.96 86.6977 99.9606 88.2952 99.9606 88.2952C99.9606 88.2952 102.127 89.0366 102.758 86.1283C102.758 86.1283 104.872 86.0709 103.614 88.3525C103.614 88.3525 105.499 88.4099 105.499 86.1283C105.499 86.1283 108.464 86.0505 106.756 88.1846C106.756 88.1846 109.267 88.2419 109.095 84.5308C109.095 84.5308 108.866 83.1053 107.326 83.1053C107.326 83.1053 110.234 82.4786 111.434 79.7383C111.434 79.7383 113.601 80.8237 115.944 79.7383C115.944 79.7383 118.799 80.025 120.11 77.4567C120.11 77.4567 122.449 77.7434 123.763 75.1751C123.763 75.1751 126.389 75.4045 128.331 72.8935C128.331 72.8935 130.764 73.0656 132.136 71.0666C132.136 71.0666 136.548 71.3534 137.92 68.7851C137.92 68.7851 141.914 69.3544 143.454 66.5035C143.454 66.5035 147.165 66.9582 148.93 63.7632C148.93 63.7632 153.211 64.1646 155.722 60.5681C155.722 60.5681 160.916 61.0802 163.484 56.9143C163.484 56.9143 170.96 57.7131 174.953 50.0082H122.793C122.793 50.0082 116.628 49.7788 112.294 54.1167C112.294 54.1167 105.56 61.8789 100.251 61.8789C100.251 61.8789 97.5684 62.6203 91.3504 56.4023C91.3422 56.3941 85.7509 50 78.1607 50H26Z" fill="#CEA902"/>
<path d="M90.0112 84.7193C90.0112 84.7193 91.1909 85.1002 91.1909 85.9727C91.1909 85.9727 91.875 84.9855 90.8468 84.2974L90.0112 84.7152V84.7193Z" fill="white"/>
<path d="M92.6445 84.6782C92.6445 84.6782 94.2052 85.2107 94.2052 86.0873C94.2052 86.0873 94.5083 84.9444 93.4842 84.2604L92.6486 84.6782H92.6445Z" fill="white"/>
<path d="M100.968 84.7192C100.968 84.7192 101.996 85.0223 101.996 85.8989C101.996 85.8989 102.832 84.9855 101.808 84.3014L100.972 84.7192H100.968Z" fill="white"/>
<path d="M95.4507 84.756C95.4507 84.756 97.1629 85.3663 96.5157 86.0504C96.5157 86.0504 98.3795 85.1001 96.3273 84.2604L95.4507 84.756Z" fill="white"/>
<path d="M103.667 84.7192C103.667 84.7192 104.654 85.0633 104.654 85.8989C104.654 85.8989 105.642 84.9486 104.577 83.8427C104.577 83.8427 103.626 84.1867 103.663 84.7192H103.667Z" fill="white"/>
<path d="M105.953 84.7193C105.953 84.7193 107.362 85.0634 107.248 85.518C107.248 85.518 108.046 84.834 107.284 83.8427C107.284 83.8427 106.219 83.6911 105.953 84.7193Z" fill="white"/>
<path d="M96.8188 83.8057L98.187 82.4745C98.187 82.4745 98.8342 82.9292 101.345 82.9292C101.345 82.9292 101.534 83.8057 96.8188 83.8057Z" fill="white"/>
<path d="M85.4067 83.8057L86.5864 82.7407C86.5864 82.7407 86.398 82.9701 89.933 82.9701C89.933 82.9701 89.6668 83.8057 85.4067 83.8057Z" fill="white"/>
<path d="M87.2334 81.942L90.8872 79.7342C90.8872 79.7342 94.1969 77.9073 95.9091 77.9073C95.9091 77.9073 98.4201 77.8295 98.4201 79.7342C98.4201 79.7342 98.3422 81.9789 92.9803 81.9789C92.9803 81.9789 87.3891 82.2452 87.2375 81.942H87.2334Z" fill="white"/>
<path d="M99.6738 81.942L106.064 77.4157C106.064 77.4157 106.826 76.92 108.157 76.92C108.157 76.92 109.488 76.92 109.488 77.8704C109.488 77.8704 109.869 81.561 102.832 82.2082C102.832 82.2082 100.931 82.3966 99.6738 81.942Z" fill="white"/>
<path d="M100.473 77.4895C100.473 77.4895 103.594 77.6779 104.126 75.6257C104.126 75.6257 103.938 76.1951 101.652 76.2361L100.473 77.4895Z" fill="white"/>
<path d="M95.4507 76.9201L95.9463 76.0845C95.9463 76.0845 97.8469 76.236 98.191 75.171L99.9811 76.0845C99.9811 76.0845 99.9811 78.4439 95.4548 76.9201H95.4507Z" fill="white"/>
<path d="M89.9741 76.957L90.8876 75.6257H92.6776C92.6776 75.6257 92.8292 76.0435 94.0457 76.0435C94.0457 76.0435 94.1235 77.4117 89.9741 76.957Z" fill="white"/>
<path d="M105.458 76.0435C105.458 76.0435 106.826 75.1669 106.826 73.3441L105.495 73.7988C105.495 73.7988 104.544 75.8919 105.458 76.0435Z" fill="white"/>
<path d="M99.9771 74.2576C99.9771 74.2576 100.28 76.3139 104.049 74.6754L103.668 73.7988L99.9771 74.2535V74.2576Z" fill="white"/>
<path d="M93.0911 72.4306C93.0911 72.4306 93.1689 72.8484 94.0046 72.8853C94.0046 72.8853 93.7014 74.3681 91.3789 74.2165C91.3789 74.2165 91.5673 73.0368 93.0911 72.4265V72.4306Z" fill="white"/>
<path d="M93.624 74.7122C93.624 74.7122 94.6522 75.7404 97.6956 74.6754L96.7822 73.381C96.7822 73.381 94.2712 73.5325 93.624 74.7122Z" fill="white"/>
<path d="M96.4379 71.1362C96.4379 71.1362 96.9704 71.554 98.0723 71.554C98.0723 71.554 96.016 73.7619 94.5332 71.9719L96.4338 71.1362H96.4379Z" fill="white"/>
<path d="M98.646 73.3032C98.646 73.3032 101.726 73.6841 102.718 71.9719L101.349 71.0585C101.349 71.0585 98.6501 72.0866 98.6501 73.3032H98.646Z" fill="white"/>
<path d="M106.862 76.0435C106.862 76.0435 108.763 76.1213 110.475 74.2166C110.475 74.2166 110.438 73.5325 109.599 73.34C109.599 73.34 108.878 73.3031 108.267 73.7947C108.267 73.7947 106.973 75.5437 106.858 76.0394L106.862 76.0435Z" fill="white"/>
<path d="M107.321 70.6406C107.321 70.6406 107.776 71.0953 107.776 72.8485H109.566C109.566 72.8485 108.349 72.0497 108.198 70.6038L107.321 70.6406Z" fill="white"/>
<path d="M106.371 70.6038C106.371 70.6038 106.408 71.5909 106.825 71.935C106.825 71.935 106.178 73.1516 103.704 72.8485L104.581 71.5172L106.371 70.6038Z" fill="white"/>
<path d="M103.25 70.5669L104.127 69.2357C104.127 69.2357 105.421 69.4651 106.826 68.781C106.826 68.781 106.56 70.571 103.25 70.571V70.5669Z" fill="white"/>
<path d="M103.704 67.4088L104.581 66.4954C104.581 66.4954 104.769 66.95 106.825 66.95C106.825 66.95 104.732 69.6494 103.704 67.4047V67.4088Z" fill="white"/>
<path d="M101.841 68.3221L102.717 69.1987C102.717 69.1987 102.263 70.5668 98.1909 70.5668L98.6456 69.2356C98.6456 69.2356 101.423 69.5387 101.841 68.3221Z" fill="white"/>
<path d="M81.7531 66.4954C81.7531 66.4954 82.0194 67.5235 83.0844 67.8266H97.2367C97.2367 67.8266 98.5679 68.9285 101.804 67.8266C101.804 67.8266 102.717 67.6382 103.172 66.0366C103.172 66.0366 102.64 66.1881 102.259 65.0863C102.259 65.0863 100.243 65.0494 98.6048 66.4954H81.749H81.7531Z" fill="white"/>
<path d="M79.435 66.4954C80.0822 67.5235 80.8441 67.8266 80.8441 67.8266H63.0011C63.0011 67.8266 61.4774 67.7898 60.3018 66.4954H79.4391H79.435Z" fill="white"/>
<path d="M83.0844 68.7769C83.2728 69.8419 83.9978 70.1081 83.9978 70.1081H67.6008C67.6008 70.1081 66.5727 70.1859 65.7739 68.7769H83.0844Z" fill="white"/>
<path d="M85.4438 68.7769C85.4438 68.7769 85.7101 69.805 86.7382 70.1081H94.1196L93.6239 71.0216C93.6239 71.0216 96.5158 71.3247 97.2367 68.7769H85.4438Z" fill="white"/>
<path d="M71.2544 71.0585C71.2544 71.0585 72.1678 72.1603 73.0813 72.3897H87.6514C87.6514 72.3897 86.8158 72.1603 86.357 71.0585H71.2544Z" fill="white"/>
<path d="M88.1841 71.0585C88.1841 71.0585 88.2988 71.8572 89.4785 72.3897H91.3054C92.2557 72.0457 92.2188 71.0585 92.2188 71.0585H88.1882H88.1841Z" fill="white"/>
<path d="M75.3628 73.3441C75.3628 73.3441 75.5512 73.8398 76.2394 74.2207H90.3917C90.3917 74.2207 90.8463 73.9913 90.8463 73.3441H75.3628Z" fill="white"/>
<path d="M78.5211 75.2078C78.5211 75.2078 78.4433 75.5888 79.0168 76.0435H89.0237C89.5562 76.0435 89.5194 75.1669 89.5194 75.1669L78.5252 75.2037L78.5211 75.2078Z" fill="white"/>
<path d="M81.7939 76.9938C81.7939 76.9938 82.2118 77.7557 83.1621 77.8704H87.1968C87.7662 77.6041 87.6515 76.9938 87.6515 76.9938H81.7939Z" fill="white"/>
<path d="M105.04 62.3459H127.827C127.827 62.3459 129.424 61.9281 130.145 60.5559H110.516L112.876 58.2334H134.258C134.258 58.2334 136.007 58.004 136.957 56.4433H115.501C115.501 56.4433 117.82 54.1208 119.421 54.1208L142.896 54.1372C142.896 54.1372 144.686 53.8914 145.637 51.8761H120.982C120.982 51.8761 116.644 52.1792 112.347 56.4392C112.347 56.4392 108.62 60.7771 105.044 62.3377L105.04 62.3459Z" fill="white"/>
<path d="M147.915 51.8843C147.915 51.8843 147.648 53.2934 145.67 54.1658L167.089 54.174C167.089 54.174 169.485 53.5965 170.284 51.8843H147.915Z" fill="white"/>
<path d="M139.28 56.4515C139.28 56.4515 139.316 57.3281 137.453 58.2416H157.958C157.958 58.2416 160.014 58.0122 160.698 56.4515H139.28Z" fill="white"/>
<path d="M132.431 60.5599C132.431 60.5599 132.509 61.5102 130.641 62.35H149.32C149.32 62.35 151.376 62.5794 152.933 60.5599H132.427H132.431Z" fill="white"/>
<path d="M123.755 63.3003C123.755 63.3003 124.21 64.0212 124.21 65.1272H142.434C142.434 65.1272 145.096 65.4303 146.579 63.3003H123.751H123.755Z" fill="white"/>
<path d="M54.8208 63.755C54.8208 63.755 55.0871 64.82 56.6477 65.0863H74.9085C74.9085 65.0863 74.1466 64.82 73.4994 63.755H54.8208Z" fill="white"/>
<path d="M48.4268 60.5969C48.4268 60.5969 49.2255 62.3459 51.1671 62.3459H70.3044C70.3044 62.3459 68.9363 61.6619 68.5144 60.5559L48.4268 60.5928V60.5969Z" fill="white"/>
<path d="M40.2095 56.4105C40.2095 56.4105 41.2745 58.2374 42.9498 58.2374H63.4553C63.4553 58.2374 62.1609 57.7827 61.6284 56.4474L40.2095 56.4105Z" fill="white"/>
<path d="M31.0791 51.8843C31.0791 51.8843 32.1072 54.129 34.2741 54.129H55.2384C55.2384 54.129 53.6777 53.2524 53.4115 51.8843H31.0791Z" fill="white"/>
<path d="M101.804 63.3003V64.6316C101.804 64.6316 99.1044 64.5947 98.6456 65.545H98.0763C98.0763 65.545 97.3922 65.6966 97.2406 65.0904H78.1033C78.1033 65.0904 76.772 65.0535 76.2764 63.7591H94.5372L93.1281 62.35H73.5729C73.5729 62.35 71.8239 62.0838 71.2504 60.56H90.9202L88.5608 58.2375H67.1419C67.1419 58.2375 65.3929 58.0859 64.8235 56.4474H85.8615C85.8615 56.4474 83.8052 54.1249 81.8677 54.1249H58.4703C58.4703 54.1249 56.1888 53.9733 55.73 51.8802H79.9261C79.9261 51.8802 84.3377 51.8024 89.9331 57.3568C89.9331 57.3568 95.5243 63.2921 98.6825 63.2921H101.804V63.3003Z" fill="white"/>
<path d="M130.186 66.5322C130.186 66.5322 130.604 66.7985 130.604 67.8266H138.784C138.784 67.8266 139.964 67.7898 140.611 66.4954L130.186 66.5322Z" fill="white"/>
<path d="M130.149 70.1081C130.149 70.1081 130.985 69.6903 131.1 68.7769H135.589C135.589 68.7769 135.626 69.8419 134.221 70.1081H130.149Z" fill="white"/>
<path d="M114.17 72.3897C114.17 72.3897 115.235 72.1235 115.997 71.0585H129.695C129.695 71.0585 128.974 72.3897 127.336 72.3897H114.17Z" fill="white"/>
<path d="M111.925 74.2165C111.925 74.2165 112.536 74.1019 112.802 73.34H125.586C125.586 73.34 125.357 74.2165 124.673 74.2165H111.925Z" fill="white"/>
<path d="M110.062 76.0435C110.062 76.0435 110.594 76.0066 110.975 75.1669H122.35C122.35 75.1669 122.121 76.0025 121.437 76.0435H110.062Z" fill="white"/>
<path d="M112.798 76.9938C112.798 76.9938 113.179 77.26 113.253 77.9072H118.238C118.238 77.9072 118.316 77.4116 118.697 76.9938H112.798Z" fill="white"/>
<path d="M122.805 65.9997C122.805 65.9997 123.108 63.3003 120.143 63.3003H103.25C103.25 63.3003 103.516 65.9997 106.941 65.9997H110.062C110.062 65.9997 108.198 66.6469 107.817 67.8266H108.731C108.731 67.8266 107.817 68.5475 107.817 69.6535H109.607C109.607 69.6535 108.62 70.6406 109.607 71.4804C109.607 71.4804 111.053 73.1147 114.629 70.53C114.629 70.53 116.153 69.5429 116.952 69.6535C116.952 69.6535 117.636 69.5756 117.865 70.1081H128.745C128.745 70.1081 128.097 68.7769 126.119 68.4328H119.155V67.7242L127.409 67.7078C127.409 67.7078 128.892 67.7856 129.236 68.7359C129.236 68.7359 129.023 66.0365 126.762 66.0365H122.822C122.822 66.0365 121.437 67.4047 120.106 67.4047C120.106 67.4047 118.697 67.4415 118.697 66.4543H115.084C115.084 66.4543 115.272 65.9997 116.112 65.9997H122.809H122.805Z" fill="white"/>
</svg>
