<svg width="80" height="88" viewBox="0 0 80 88" fill="none" xmlns="http://www.w3.org/2000/svg">
<path d="M68.7653 87.259H11.233C8.25482 87.2558 5.39954 86.0713 3.29364 83.9654C1.18775 81.8595 0.00323942 79.0042 0 76.026V21.9694C0.00370116 18.9909 1.18854 16.1355 3.29467 14.0294C5.40079 11.9233 8.25624 10.7384 11.2347 10.7347H16.8137V17.7281H11.233C10.1085 17.7294 9.03051 18.1767 8.23538 18.9719C7.44026 19.767 6.99295 20.845 6.99157 21.9694V76.026C6.99295 77.15 7.44008 78.2276 8.23488 79.0224C9.02967 79.8172 10.1072 80.2643 11.2313 80.2657H68.7653C69.8894 80.2643 70.9672 79.8173 71.7623 79.0225C72.5573 78.2278 73.0048 77.1502 73.0067 76.026V21.9694C73.0058 20.8448 72.5586 19.7666 71.7634 18.9713C70.9681 18.1761 69.8899 17.729 68.7653 17.7281H62.8209V10.7347H68.7653C71.7438 10.7384 74.5992 11.9233 76.7053 14.0294C78.8115 16.1355 79.9963 18.9909 80 21.9694V76.026C79.9968 79.0045 78.812 81.86 76.7057 83.9659C74.5995 86.0719 71.7437 87.2562 68.7653 87.259Z" fill="#BAF30F"/>
<path d="M57.3608 0H22.7107V6.99331H57.3608V0Z" fill="#BAF30F"/>
<path d="M49.1016 16.7053L44.1538 11.7593L54.7976 1.11545C55.2192 0.693492 55.7355 0.378353 56.3035 0.196253C56.8715 0.0141528 57.4748 -0.0296505 58.0632 0.0685216C58.6515 0.166694 59.2079 0.403984 59.686 0.760639C60.1641 1.11729 60.5501 1.58296 60.8119 2.11894L65.9764 12.7838C66.3797 13.617 66.436 14.5761 66.1332 15.4508C65.8304 16.3255 65.1931 17.0445 64.361 17.4501C63.9477 17.6509 63.4988 17.7683 63.0401 17.7955C62.5813 17.8228 62.1217 17.7593 61.6875 17.6088C61.2533 17.4583 60.8531 17.2236 60.5096 16.9183C60.1662 16.6129 59.8863 16.243 59.686 15.8294L56.5215 9.28534L49.1016 16.7053Z" fill="white"/>
<path d="M48.0301 32.498H47.941C47.1097 32.4978 46.2881 32.3199 45.5312 31.9761C44.7744 31.6324 44.0998 31.1307 43.5526 30.5049L35.0942 20.8226L44.1541 11.7594L49.1001 16.7036L44.6611 21.1427L48.0529 25.0256L60.0499 11.9988C60.3616 11.6605 60.7369 11.3871 61.1545 11.1941C61.572 11.0012 62.0235 10.8925 62.4831 10.8743C62.9427 10.8561 63.4014 10.9288 63.8329 11.0882C64.2644 11.2475 64.6602 11.4904 64.9976 11.803C65.6766 12.432 66.0785 13.3046 66.1152 14.2295C66.1519 15.1543 65.8204 16.056 65.1935 16.7368L52.4516 30.5679C51.8869 31.1762 51.2028 31.6615 50.442 31.9936C49.6813 32.3257 48.8602 32.4975 48.0301 32.498Z" fill="white"/>
<path d="M30.8526 16.7053L35.7969 11.761L25.1496 1.11716C24.728 0.695201 24.2117 0.380062 23.6437 0.197962C23.0757 0.0158617 22.4724 -0.0279415 21.884 0.0702306C21.2957 0.168403 20.7393 0.405693 20.2612 0.762348C19.7831 1.119 19.3971 1.58478 19.1353 2.12076L13.9707 12.7855C13.5675 13.6187 13.5112 14.5779 13.814 15.4526C14.1168 16.3273 14.7541 17.0462 15.5862 17.4518C15.9995 17.6527 16.4484 17.77 16.9071 17.7972C17.3659 17.8245 17.8255 17.761 18.2597 17.6105C18.6938 17.46 19.0941 17.2254 19.4376 16.9201C19.781 16.6148 20.0609 16.2447 20.2612 15.8311L23.4257 9.28716L30.8526 16.7053Z" fill="white"/>
<path d="M31.9213 32.498H32.0104C32.8417 32.4978 33.6633 32.3199 34.4202 31.9761C35.177 31.6324 35.8516 31.1307 36.3987 30.5049L44.8572 20.8226L35.7973 11.7594L30.8513 16.7036L35.2903 21.1427L31.8985 25.0256L19.905 11.9988C19.5933 11.6605 19.218 11.3871 18.8004 11.1941C18.3829 11.0012 17.9314 10.8925 17.4718 10.8743C17.0121 10.8561 16.5535 10.9288 16.122 11.0882C15.6905 11.2475 15.2947 11.4904 14.9572 11.803C14.2783 12.432 13.8764 13.3046 13.8397 14.2295C13.803 15.1543 14.1344 16.056 14.7614 16.7368L27.5032 30.5679C28.0675 31.1759 28.751 31.6611 29.5112 31.9932C30.2713 32.3253 31.0917 32.4972 31.9213 32.498Z" fill="white"/>
<path d="M50.3989 45.1155C50.3989 44.42 50.6752 43.7529 51.167 43.2611C51.6588 42.7693 52.3259 42.493 53.0214 42.493H64.202C64.8975 42.493 65.5646 42.7693 66.0564 43.2611C66.5482 43.7529 66.8245 44.42 66.8245 45.1155C66.8245 45.8111 66.5482 46.4781 66.0564 46.9699C65.5646 47.4617 64.8975 47.738 64.202 47.738H53.0214C52.3259 47.738 51.6588 47.4617 51.167 46.9699C50.6752 46.4781 50.3989 45.8111 50.3989 45.1155Z" fill="white"/>
<path d="M41.8024 84.0158H36.5574V46.5718C36.5574 45.8763 36.8337 45.2092 37.3255 44.7174C37.8173 44.2256 38.4843 43.9493 39.1799 43.9493C39.8754 43.9493 40.5424 44.2256 41.0342 44.7174C41.5261 45.2092 41.8024 45.8763 41.8024 46.5718V84.0158Z" fill="#BAF30F"/>
</svg>
