<svg width="200" height="200" viewBox="0 0 200 200" fill="none" xmlns="http://www.w3.org/2000/svg">
<circle cx="100" cy="100" r="98.5" fill="#051139" stroke="#5AF7DC" stroke-width="3"/>
<path fill-rule="evenodd" clip-rule="evenodd" d="M94.2005 148.771V154.296C94.2005 154.296 92.5851 155.969 88.8158 155.985C85.0465 156 80.9388 153.56 80.9695 149.385C81.0003 145.211 84.0157 142.172 88.8158 142.172C91.9235 142.141 93.7389 143.093 93.7389 143.093L92.8158 146.162C92.8158 146.162 90.8774 145.257 88.8158 145.242C86.7542 145.226 84.6311 146.454 84.6619 149.232C84.6927 152.01 87.1696 153.069 88.8158 153.069C90.462 153.069 90.8158 152.762 90.8158 152.762V149.232L94.2005 148.771Z" fill="#FFFFFE"/>
<path fill-rule="evenodd" clip-rule="evenodd" d="M74.5079 142.172V155.985H78.0464V142.172H74.5079Z" fill="#FFFFFE"/>
<path fill-rule="evenodd" clip-rule="evenodd" d="M62.2001 142.172V155.985H72.2002V153.069H65.7386V142.172H62.2001Z" fill="#FFFFFE"/>
<path fill-rule="evenodd" clip-rule="evenodd" d="M110.047 142.172H106.508V150.598C106.508 150.598 106.847 153.038 103.585 153.053C103.585 153.053 103.585 153.053 103.585 153.069C100.323 153.053 100.662 150.613 100.662 150.613V142.172H97.1234C97.1234 142.172 97.1234 143.415 97.1234 149.999C97.1234 156.583 103.585 155.985 103.585 155.985C103.585 155.985 103.585 155.985 103.585 155.969C103.585 155.969 110.047 156.568 110.047 149.984C110.047 143.415 110.047 142.172 110.047 142.172Z" fill="#FFFFFE"/>
<path fill-rule="evenodd" clip-rule="evenodd" d="M113.585 142.172V155.985H123.893V152.915H117.124V150.306H122.355V147.544H117.124V145.242H123.586V142.172H113.585Z" fill="#FFFFFE"/>
<path fill-rule="evenodd" clip-rule="evenodd" d="M134.509 155.985V146.469L131.586 148.004L130.816 144.935L135.74 142.172H137.893V155.985H134.509Z" fill="#FFFFFE"/>
<path d="M100.047 98.4789C106.7 98.4789 112.093 93.0988 112.093 86.4621C112.093 79.8254 106.7 74.4453 100.047 74.4453C93.3939 74.4453 88.0005 79.8254 88.0005 86.4621C88.0005 93.0988 93.3939 98.4789 100.047 98.4789Z" fill="white"/>
<path fill-rule="evenodd" clip-rule="evenodd" d="M89.9388 111.6L80.7079 126.487C80.7079 126.487 100.185 129.188 121.016 126.18C132.955 111.723 142.355 93.5522 144.093 89.0401C136.709 72.0049 124.555 56.5043 124.555 56.5043L115.17 71.391C115.17 71.391 121.939 79.8472 125.939 89.0401C122.785 95.6087 117.401 104.694 112.093 111.447C103.816 112.276 89.9388 111.6 89.9388 111.6Z" fill="#D0FB0C"/>
<path fill-rule="evenodd" clip-rule="evenodd" d="M110.155 61.0012L119.385 46.1145C119.385 46.1145 99.9083 43.4134 79.0772 46.4214C67.1386 60.8784 57.7385 79.0494 56 83.5614C63.3847 100.597 75.5387 116.097 75.5387 116.097L84.9234 101.211C84.9234 101.211 78.1541 92.7543 74.1541 83.5614C77.308 76.9928 82.6926 67.9074 88.0004 61.1546C96.2774 60.3105 110.155 61.0012 110.155 61.0012Z" fill="#D0FB0C"/>
</svg>
