<svg width="227" height="61" viewBox="0 0 227 61" fill="none" xmlns="http://www.w3.org/2000/svg">
<path fill-rule="evenodd" clip-rule="evenodd" d="M136.623 29.5099V40.8192C136.623 40.8192 133.316 44.2434 125.601 44.2748C117.885 44.3062 109.477 39.3113 109.54 30.7665C109.603 22.2216 115.775 16.0015 125.601 16.0015C131.962 15.9387 135.678 17.8864 135.678 17.8864L133.788 24.1693C133.788 24.1693 129.821 22.3159 125.601 22.2845C121.381 22.253 117.035 24.7662 117.098 30.4523C117.161 36.1384 122.231 38.306 125.601 38.306C128.97 38.306 129.695 37.6777 129.695 37.6777V30.4523L136.623 29.5099Z" fill="#FFFFFE"/>
<path fill-rule="evenodd" clip-rule="evenodd" d="M96.3132 16.0015V44.2749H103.556V16.0015H96.3132Z" fill="#FFFFFE"/>
<path fill-rule="evenodd" clip-rule="evenodd" d="M71.1194 16.0016V44.2749H91.5892V38.3061H78.3625V16.0016H71.1194Z" fill="#FFFFFE"/>
<path fill-rule="evenodd" clip-rule="evenodd" d="M169.06 16.0015H161.817V33.2482C161.817 33.2482 162.509 38.2432 155.833 38.2746C155.833 38.2746 155.833 38.2746 155.833 38.306C149.157 38.2746 149.85 33.2797 149.85 33.2797V16.0015H142.606C142.606 16.0015 142.606 18.5461 142.606 32.0231C142.606 45.5 155.833 44.2748 155.833 44.2748C155.833 44.2748 155.833 44.2748 155.833 44.2434C155.833 44.2434 169.06 45.4686 169.06 31.9916C169.06 18.5461 169.06 16.0015 169.06 16.0015Z" fill="#FFFFFE"/>
<path fill-rule="evenodd" clip-rule="evenodd" d="M176.302 16.0015V44.2749H197.402V37.9919H183.546V32.6514H194.253V26.9967H183.546V22.2845H196.772V16.0015H176.302Z" fill="#FFFFFE"/>
<path fill-rule="evenodd" clip-rule="evenodd" d="M219.132 44.2749V24.7977L213.148 27.9391L211.574 21.6562L221.651 16.0015H226.06V44.2749H219.132Z" fill="#FFFFFE"/>
<path d="M32.1194 39.2339C27.1488 39.2339 23.1194 35.2045 23.1194 30.2339C23.1194 25.2634 27.1488 21.2339 32.1194 21.2339C37.0899 21.2339 41.1194 25.2634 41.1194 30.2339C41.1194 35.2045 37.0899 39.2339 32.1194 39.2339Z" fill="white"/>
<path fill-rule="evenodd" clip-rule="evenodd" d="M39.4899 48.5657L46.2212 59.4213C46.2212 59.4213 32.0183 61.3909 16.8281 59.1974C8.12233 48.6553 1.26767 35.4048 -4.57764e-05 32.1146C5.38495 19.6923 14.2478 8.38914 14.2478 8.38914L21.0912 19.2447C21.0912 19.2447 16.1549 25.411 13.2381 32.1146C15.5379 36.9045 19.4645 43.5297 23.3349 48.4538C29.3706 49.0582 39.4899 48.5657 39.4899 48.5657Z" fill="#D0FB0C"/>
<path fill-rule="evenodd" clip-rule="evenodd" d="M24.7485 11.6682L18.0173 0.812673C18.0173 0.812673 32.2202 -1.15699 47.4104 1.0365C56.1162 11.5787 62.9708 24.8291 64.2385 28.1193C58.8535 40.5416 49.9907 51.8448 49.9907 51.8448L43.1473 40.9893C43.1473 40.9893 48.0835 34.8229 51.0004 28.1193C48.7006 23.3295 44.774 16.7043 40.9035 11.7801C34.8678 11.1646 24.7485 11.6682 24.7485 11.6682Z" fill="#D0FB0C"/>
</svg>
