<svg width="100" height="70" viewBox="0 0 100 70" fill="none" xmlns="http://www.w3.org/2000/svg">
<path d="M97.0707 31.3931H71.1853V37.2553H97.0707V31.3931Z" fill="white"/>
<path d="M84.862 14.6968H74.7056V20.559H82.1515C82.63 20.5589 83.1027 20.6627 83.5371 20.8634C83.9714 21.0641 84.3569 21.3568 84.667 21.7212L94.1339 32.8507L94.0276 56.6304H78.7851C79.1241 57.5834 79.262 58.5963 79.1901 59.6052C79.1182 60.6141 78.8381 61.5972 78.3675 62.4926H94.0276C95.6116 62.4926 97.1307 61.8633 98.2508 60.7433C99.3709 59.6232 100 58.1041 100 56.5201V31.263C99.9984 30.902 99.8693 30.5532 99.6357 30.2781L87.3775 15.8649C87.0683 15.4991 86.683 15.2051 86.2486 15.0033C85.8141 14.8016 85.341 14.697 84.862 14.6968Z" fill="#BAF30F"/>
<path d="M64.8822 55.6692L36.2981 55.7303C36.9302 56.9643 37.2037 58.3509 37.0874 59.7325C36.9711 61.1142 36.4697 62.4355 35.6401 63.5465L65.4534 63.4815C64.6403 62.3616 64.156 61.037 64.055 59.6567C63.9541 58.2765 64.2406 56.8954 64.8822 55.6692Z" fill="#BAF30F"/>
<path d="M71.6168 51.4951C72.6819 51.4975 73.7345 51.7251 74.7055 52.1629V7.22729C74.7055 5.3105 73.9441 3.47221 72.5887 2.11683C71.2333 0.761454 69.3951 0 67.4783 0H3.90812C2.87162 1.2356e-07 1.87758 0.411749 1.14466 1.14466C0.411749 1.87758 0 2.87165 0 3.90815C0 4.94465 0.411749 5.93868 1.14466 6.6716C1.87758 7.40451 2.87162 7.81626 3.90812 7.81626H66.8893V53.1892C68.2244 52.0993 69.8934 51.5013 71.6168 51.4951Z" fill="#BAF30F"/>
<path d="M22.7159 55.7597L16.0756 55.7735V28.9524H8.25936V56.1005C8.22536 57.7826 8.75282 59.428 9.7584 60.7769C10.4332 61.6542 11.3008 62.3644 12.2942 62.8525C13.2875 63.3406 14.3799 63.5936 15.4867 63.5917H15.5024L23.4132 63.574C22.5771 62.4673 22.0686 61.1482 21.9453 59.7668C21.822 58.3853 22.089 56.9969 22.7159 55.7597Z" fill="#BAF30F"/>
<path d="M71.617 69.6117C69.5359 69.6113 67.5016 68.9938 65.7714 67.8373C64.0412 66.6808 62.6928 65.0372 61.8966 63.1144C61.1005 61.1915 60.8924 59.0758 61.2986 57.0347C61.7049 54.9936 62.7072 53.1188 64.1789 51.6474C65.6507 50.1759 67.5256 49.174 69.5668 48.7681C71.608 48.3622 73.7237 48.5707 75.6463 49.3672C77.569 50.1637 79.2123 51.5125 80.3685 53.2429C81.5247 54.9733 82.1418 57.0077 82.1418 59.0888C82.1387 61.879 81.0287 64.554 79.0556 66.5268C77.0824 68.4996 74.4072 69.609 71.617 69.6117ZM71.617 54.4263C70.6948 54.4263 69.7934 54.6997 69.0266 55.212C68.2599 55.7244 67.6622 56.4526 67.3093 57.3045C66.9564 58.1565 66.8641 59.094 67.044 59.9985C67.2239 60.9029 67.668 61.7337 68.3201 62.3858C68.9722 63.0378 69.803 63.4819 70.7074 63.6618C71.6119 63.8417 72.5493 63.7494 73.4013 63.3965C74.2533 63.0436 74.9815 62.446 75.4938 61.6792C76.0061 60.9125 76.2796 60.011 76.2796 59.0888C76.278 57.8527 75.7863 56.6677 74.9122 55.7936C74.0381 54.9196 72.8531 54.4278 71.617 54.4263Z" fill="white"/>
<path d="M29.5098 69.6117C27.4286 69.6117 25.3942 68.9945 23.6637 67.8382C21.9333 66.682 20.5845 65.0385 19.7881 63.1158C18.9916 61.193 18.7832 59.0772 19.1893 57.036C19.5953 54.9947 20.5975 53.1197 22.0692 51.6481C23.5408 50.1765 25.4158 49.1743 27.457 48.7682C29.4982 48.3622 31.614 48.5706 33.5368 49.3671C35.4596 50.1635 37.103 51.5122 38.2592 53.2427C39.4155 54.9731 40.0327 57.0076 40.0327 59.0889C40.029 61.8786 38.9192 64.5529 36.9466 66.5256C34.974 68.4982 32.2995 69.608 29.5098 69.6117ZM29.5098 54.4263C28.5877 54.4263 27.6862 54.6997 26.9195 55.2121C26.1527 55.7244 25.5551 56.4526 25.2022 57.3045C24.8493 58.1565 24.757 59.094 24.9369 59.9985C25.1168 60.9029 25.5609 61.7337 26.2129 62.3858C26.865 63.0379 27.6958 63.4819 28.6003 63.6618C29.5047 63.8417 30.4422 63.7494 31.2942 63.3965C32.1461 63.0436 32.8743 62.446 33.3867 61.6792C33.899 60.9125 34.1724 60.011 34.1724 59.0889C34.1709 57.8527 33.6791 56.6677 32.8051 55.7936C31.931 54.9196 30.746 54.4278 29.5098 54.4263Z" fill="white"/>
<path d="M29.4647 20.6518H5.59047C4.67674 20.6518 3.80044 20.2888 3.15434 19.6427C2.50824 18.9966 2.14526 18.1203 2.14526 17.2066C2.14526 16.2928 2.50824 15.4165 3.15434 14.7704C3.80044 14.1243 4.67674 13.7614 5.59047 13.7614H29.4647C29.9172 13.7614 30.3652 13.8505 30.7832 14.0236C31.2012 14.1967 31.581 14.4505 31.9009 14.7704C32.2208 15.0903 32.4745 15.4701 32.6477 15.8881C32.8208 16.3061 32.9099 16.7541 32.9099 17.2066C32.9099 17.659 32.8208 18.107 32.6477 18.525C32.4745 18.943 32.2208 19.3228 31.9009 19.6427C31.581 19.9626 31.2012 20.2164 30.7832 20.3895C30.3652 20.5627 29.9172 20.6518 29.4647 20.6518Z" fill="white"/>
<path d="M19.7141 31.3399L9.91617 31.1784C9.13858 31.1655 8.39799 30.8442 7.8572 30.2853C7.31641 29.7264 7.01973 28.9757 7.03237 28.1981C7.03878 27.8131 7.12095 27.4332 7.27421 27.0801C7.42747 26.7269 7.64879 26.4074 7.92555 26.1398C8.20231 25.8722 8.52908 25.6617 8.88719 25.5204C9.24531 25.3791 9.62778 25.3097 10.0127 25.3162L19.8106 25.4777C20.5882 25.4907 21.3288 25.8119 21.8696 26.3708C22.4104 26.9297 22.7071 27.6805 22.6944 28.4581C22.6809 29.2353 22.3595 29.9754 21.8006 30.5158C21.2418 31.0562 20.4913 31.3526 19.7141 31.3399Z" fill="white"/>
</svg>
