<svg width="100" height="77" viewBox="0 0 100 77" fill="none" xmlns="http://www.w3.org/2000/svg">
<path d="M96.3861 27.126H5.80811V37.126H96.3861V27.126Z" fill="white"/>
<path d="M30.192 61.2261H19.064C18.0031 61.2261 16.9857 60.8046 16.2355 60.0545C15.4854 59.3044 15.064 58.2869 15.064 57.2261C15.064 56.1652 15.4854 55.1478 16.2355 54.3976C16.9857 53.6475 18.0031 53.2261 19.064 53.2261H30.192C31.2528 53.2261 32.2702 53.6475 33.0204 54.3976C33.7705 55.1478 34.192 56.1652 34.192 57.2261C34.192 58.2869 33.7705 59.3044 33.0204 60.0545C32.2702 60.8046 31.2528 61.2261 30.192 61.2261Z" fill="#BAF30F"/>
<path d="M85.062 76.796H14.938C10.9775 76.7918 7.18044 75.2166 4.37994 72.4161C1.57944 69.6156 0.00423527 65.8185 0 61.858V14.94C0.0042343 10.9793 1.57938 7.18204 4.37982 4.38123C7.18027 1.58041 10.9773 0.00476455 14.938 0H85.062C89.0227 0.00476455 92.8198 1.58041 95.6202 4.38123C98.4207 7.18204 99.9958 10.9793 100 14.94V61.858C99.9958 65.8185 98.4206 69.6156 95.6201 72.4161C92.8196 75.2166 89.0225 76.7918 85.062 76.796ZM14.938 7.996C13.0984 7.99865 11.3349 8.73075 10.0343 10.0317C8.73369 11.3327 8.00212 13.0964 8 14.936V61.854C8.00212 63.6934 8.73376 65.4569 10.0344 66.7576C11.3351 68.0582 13.0986 68.7899 14.938 68.792H85.062C86.9014 68.7899 88.6649 68.0582 89.9656 66.7576C91.2662 65.4569 91.9979 63.6934 92 61.854V14.942C91.9979 13.1024 91.2663 11.3387 89.9657 10.0377C88.6651 8.73673 86.9016 8.00466 85.062 8.00201L14.938 7.996Z" fill="#BAF30F"/>
</svg>
