<svg width="200" height="200" viewBox="0 0 200 200" fill="none" xmlns="http://www.w3.org/2000/svg">
<circle cx="100" cy="100" r="98.5" fill="#051139" stroke="#5AF7DC" stroke-width="3"/>
<g clip-path="url(#clip0_175_135)">
<path d="M69.4295 94.5564C72.906 99.4201 73.8507 111.542 71.3567 116.106C71.3567 116.106 69.7318 114.46 68.6359 113.338C68.1447 122.205 63.27 129.238 59.4912 131.333C59.4912 131.333 58.8866 128.939 58.3576 127.517C51.0267 133.915 40.2571 133.167 36.1005 130.548C37.5364 123.851 36.8562 114.909 34.9668 112.253C34.7023 113.113 29.4498 120.82 26.5023 122.728C24.3106 118.314 24.4618 108.212 25.8221 104.733C25.8221 104.733 22.5346 105.668 20.4562 106.267C20.9475 103.124 23.3281 95.9781 27.5982 92.2742C27.5982 92.2742 25.4065 91.8252 24.1217 91.8252C25.8221 88.8322 28.1272 86.1758 30.8479 84.0059C30.5834 86.2881 31.377 88.7573 33.6065 89.8423C30.13 82.9209 35.3069 79.217 39.3124 82.6964C38.8968 81.6862 38.2166 80.7135 37.3853 80.0401C42.2599 77.8701 47.8147 76.9722 53.4074 77.683C54.4654 77.9823 56.0903 80.3394 56.2037 80.5264C56.2415 79.7782 56.2037 78.768 56.1281 78.1694C58.7355 78.768 61.3051 79.7408 63.8369 81.125C55.1078 74.241 44.3382 74.8022 35.3825 79.217C34.6645 79.1421 33.871 79.3292 33.0396 79.853C32.5106 80.1897 32.0571 80.6761 31.717 81.2747C26.8802 84.4548 22.8369 88.7199 20.3806 93.3966C20.3806 93.3966 21.1742 93.5462 23.2903 93.8829C20.0028 98.4847 18.1889 104.808 18 109.26C18 109.26 20.7207 108.586 22.9502 107.875C21.9677 114.236 23.2903 122.953 25.7843 126.021C27.4092 125.085 32.3217 120.671 34.1355 117.603C35.2691 121.307 34.2111 128.004 33.3797 131.595C40.0304 136.01 51.7447 135.599 56.8839 131.146C56.8839 131.146 57.753 133.354 58.0553 135.037C61.8341 132.755 69.0138 126.919 70.1097 118.239C70.1097 118.239 71.2811 119.399 72.1502 120.334C74.9843 113.487 76.3825 101.066 69.4295 94.5564Z" fill="white"/>
<path d="M33.7953 78.3939C39.7659 74.0166 50.5732 73.5676 57.1483 75.5131C57.3373 72.8193 58.6221 68.1427 59 67.5815C57.6774 68.3672 54.7299 71.6221 54.4654 72.1833C54.4276 69.9759 54.0497 65 54.0497 65C53.8986 65.0748 48.117 71.5099 48.117 71.5099L43.9981 65L41.5041 72.4078L34.4 67.357L35.3069 74.1662C33.9843 72.969 30.8101 71.0235 29.9788 70.7242C31.3769 72.1459 33.4553 77.0844 33.7953 78.3939Z" fill="white"/>
<path d="M56.9217 84.1181C55.2968 82.7339 51.0268 80.4891 51.0268 80.4891C47.0968 80.3394 43.1669 83.2576 42.0332 84.3052C42.5622 84.7916 43.2424 85.3154 43.2424 85.3154C41.0129 86.0636 39.3503 87.8969 38.7834 88.4955C39.6904 88.8696 41.3152 88.8696 41.3152 88.8696C42.9779 97.2502 51.2913 92.4987 56.0526 94.7061C54.2765 92.798 51.3291 90.1417 51.3291 90.1417C48.0037 90.3661 45.9632 90.2165 43.5825 88.271C45.812 86.6248 47.9281 86.101 48.3816 86.101C48.8351 86.101 51.707 87.5976 52.5383 88.1962C53.2563 87.5602 54.5411 87.186 55.259 86.999C54.3143 88.0091 54.0876 89.356 54.3143 89.8424C55.7125 91.1144 57.4885 93.0599 58.4332 94.07C60.5493 93.0599 64.1392 92.8728 66.1798 94.07C64.5171 92.0871 61.9097 90.1417 61.9097 90.1417C61.6074 89.2812 59.9825 87.2234 59.9825 87.2234C61.8719 88.1214 62.7788 88.907 62.7788 88.907C63.5346 87.9343 64.6682 87.5976 64.6682 87.5976C65.5752 88.6825 65.6507 89.5431 65.6885 89.8424C65.7263 90.1417 64.895 90.4784 64.895 90.4784L67.2378 93.1721C69.165 87.5227 62.2498 83.6318 58.0176 81.3122C57.8664 82.3971 56.9217 84.1181 56.9217 84.1181Z" fill="white"/>
<path d="M66.8977 96.5393C66.142 97.1005 65.2729 97.8488 64.177 98.1855V102.451C65.4618 103.498 66.6332 105.369 67.3134 106.791C68.4093 103.124 68.2581 99.3453 66.8977 96.5393Z" fill="white"/>
<path d="M61.5318 110.981C61.7585 112.627 61.9097 114.46 61.9853 115.283C62.93 114.423 63.7613 113.525 64.4793 112.515C65.424 111.018 65.6885 109.447 65.6885 109.26C65.7263 108.811 65.2728 107.726 64.177 106.042H61.1539C61.1539 106.042 57.6396 109.596 54.8055 109.709C55.788 111.467 56.6572 112.926 56.9595 113.45C58.7355 113.113 61.3429 111.392 61.5318 110.981Z" fill="white"/>
<path d="M61.8341 102.264V98.1855C60.8516 97.9236 59.7558 97.325 58.4332 96.24C56.0148 96.3148 50.9134 99.6072 49.9309 100.617C50.1576 101.291 51.5558 103.872 53.0295 106.603C55.9014 106.641 60.5493 104.097 61.8341 102.264Z" fill="white"/>
<path d="M86.8875 92.1246H88.7392C94.7852 92.162 97.9972 89.543 97.9972 84.3426C97.9972 82.023 96.8258 79.6286 95.1631 78.5436C93.5005 77.4586 92.2534 77.0096 88.3991 76.9348H82.5797V99.5324H86.8875V92.1246ZM86.8875 81.0503H89.5327C92.518 81.2373 93.5004 82.8087 93.5382 84.4923C93.5382 87.2234 91.4977 88.1213 89.117 88.0839H86.9253V81.0503H86.8875Z" fill="white"/>
<path d="M103.477 91.6756C103.665 89.1689 105.819 87.8595 108.465 88.5703V84.7542C105.933 84.2678 104.535 85.0535 103.477 86.9989L103.023 84.7542H99.5088V99.5698H103.514V91.6756H103.477Z" fill="white"/>
<path d="M117.156 99.9813C120.594 99.7568 122.408 98.0732 123.353 97.1753L120.972 94.706C120.141 95.5291 119.196 96.427 116.816 96.5019C114.7 96.5019 113.037 94.9305 113.037 93.3966H124.109C124.298 92.0123 124.184 90.179 123.504 88.6451C122.371 85.9888 119.65 84.3426 116.816 84.3052C112.394 84.38 108.956 87.5601 108.842 92.2742C108.88 96.5767 111.979 99.9439 117.156 99.9813ZM116.627 87.7846C118.592 87.7472 119.914 89.2063 120.254 90.6654H112.999C113.226 89.2063 114.662 87.822 116.627 87.7846Z" fill="white"/>
<path d="M129.928 90.3661C130.042 88.9444 131.1 88.2336 132.347 88.1213C133.405 88.0465 134.652 88.7948 134.878 90.179V99.5697H138.808V90.8525C138.884 89.2063 139.942 88.1961 141.302 88.0839C142.36 88.0091 143.759 88.8322 143.834 90.7777V99.5323H147.802V90.2165C147.877 87.186 146.101 84.4548 142.701 84.3052C140.358 84.38 139.262 84.9786 138.015 86.6996C137.032 85.465 136.012 84.2678 133.631 84.3052C131.931 84.3052 130.873 85.0534 129.89 86.5874L129.475 84.7167H125.847V99.5697H129.853V90.3661H129.928Z" fill="white"/>
<path d="M154.15 84.7542H150.031V99.5698H154.15V84.7542Z" fill="white"/>
<path d="M87.0387 102.039H82.5042V124.113H96.5991V120.035H87.0387V102.039Z" fill="white"/>
<path d="M126.565 111.13C125.28 109.522 123.806 109.035 122.106 108.998C120.292 108.998 118.478 109.671 117.118 110.794C115.418 112.365 114.435 114.385 114.435 116.443C114.435 118.501 115.04 120.259 116.211 121.681C117.609 123.439 119.536 124.412 121.426 124.487C123.504 124.562 125.167 123.926 126.603 122.242L127.056 124.075H130.684V109.185H126.981L126.565 111.13ZM122.9 120.708C121.917 120.746 120.935 120.409 120.103 119.773C119.159 118.987 118.781 117.827 118.781 116.705C118.932 114.273 120.481 112.889 122.786 112.739C125.205 112.889 126.641 114.572 126.603 116.855C126.565 118.875 125.091 120.558 122.9 120.708Z" fill="white"/>
<path d="M160.952 116.518C160.952 117.64 160.839 119.137 159.818 119.923C159.327 120.334 158.647 120.671 157.476 120.633C156.72 120.596 155.851 120.259 155.208 119.436C154.566 118.613 154.641 117.378 154.641 116.368V109.185H150.409V117.491C150.409 119.81 151.354 121.531 152.45 122.504C153.735 123.701 155.208 124.337 157.513 124.449C159.818 124.562 161.67 123.888 163.03 122.691C164.429 121.307 165.222 119.735 165.222 117.827V109.185H161.065V116.518H160.952Z" fill="white"/>
<path d="M152.185 82.7338C152.903 82.7338 153.508 82.4719 153.999 81.9856C154.49 81.4992 154.755 80.8632 154.755 80.1897C154.755 79.4789 154.49 78.8803 153.999 78.3939C153.508 77.9075 152.903 77.6456 152.185 77.6456C151.467 77.6456 150.863 77.9075 150.371 78.3939C149.88 78.8803 149.616 79.4789 149.616 80.1897C149.616 80.9006 149.88 81.4992 150.371 81.9856C150.863 82.4719 151.467 82.7338 152.185 82.7338Z" fill="white"/>
<path d="M176.974 91.6756C177.163 89.1689 179.317 87.8595 181.962 88.5703V84.7542C179.43 84.2678 178.032 85.0535 176.974 86.9989L176.521 84.7542H173.006V99.5698H177.012V91.6756H176.974Z" fill="white"/>
<path d="M164.164 99.9813C167.603 99.7568 169.417 98.0732 170.361 97.1753L167.981 94.706C167.149 95.5291 166.205 96.427 163.824 96.5019C161.708 96.5019 160.045 94.9305 160.045 93.3966H171.117C171.306 92.0123 171.193 90.179 170.512 88.6451C169.379 85.9888 166.658 84.3426 163.824 84.3052C159.403 84.38 155.964 87.5601 155.851 92.2742C155.888 96.5767 158.987 99.9439 164.164 99.9813ZM163.635 87.7846C165.6 87.7472 166.923 89.2063 167.263 90.6654H160.007C160.234 89.2063 161.67 87.822 163.635 87.7846Z" fill="white"/>
<path d="M148.406 109.222H144.703L144.288 111.13C143.003 109.522 141.529 109.035 139.829 108.998C138.015 108.998 136.201 109.671 134.841 110.794C133.14 112.365 132.158 114.385 132.158 116.443C132.158 118.501 132.762 120.259 133.934 121.681C135.596 123.701 138.09 124.973 141.718 124.262C142.549 124.038 143.305 123.589 144.099 122.766C144.779 126.919 141.605 128.004 138.695 127.517C137.788 127.368 136.617 126.881 135.143 125.572L132.838 128.752C134.803 130.436 137.335 131.408 139.753 131.446C143.683 131.483 148.558 129.463 148.406 122.915V109.222ZM140.66 120.708C139.677 120.746 138.695 120.409 137.864 119.773C136.919 118.987 136.541 117.827 136.541 116.705C136.692 114.273 138.241 112.889 140.547 112.739C142.965 112.889 144.401 114.572 144.363 116.855C144.325 118.875 142.852 120.558 140.66 120.708Z" fill="white"/>
<path d="M181.32 113.188C180.186 110.532 177.465 108.886 174.631 108.848C170.21 108.923 166.771 112.103 166.658 116.817C166.696 121.082 169.832 124.449 174.971 124.487C178.41 124.262 180.224 122.579 181.169 121.681L178.788 119.212C177.957 120.035 177.012 120.933 174.631 121.007C172.515 121.007 170.853 119.436 170.853 117.902H181.924C182.113 116.518 181.962 114.722 181.32 113.188ZM170.815 115.171C171.041 113.712 172.477 112.328 174.442 112.29C176.407 112.253 177.73 113.712 178.07 115.171H170.815Z" fill="white"/>
<path d="M105.555 108.848C101.134 108.923 97.6949 112.103 97.5815 116.817C97.6193 121.082 100.756 124.449 105.895 124.487C109.334 124.262 111.147 122.579 112.092 121.681L109.711 119.212C108.88 120.035 107.935 120.933 105.555 121.007C103.439 121.007 101.776 119.436 101.776 117.902H112.848C113.037 116.518 112.923 114.685 112.243 113.151C111.11 110.569 108.389 108.886 105.555 108.848ZM101.738 115.171C101.965 113.712 103.401 112.328 105.366 112.29C107.331 112.253 108.653 113.712 108.994 115.171H101.738Z" fill="white"/>
</g>
<defs>
<clipPath id="clip0_175_135">
<rect width="164" height="70" fill="white" transform="translate(18 65)"/>
</clipPath>
</defs>
</svg>
