<svg width="200" height="200" viewBox="0 0 200 200" fill="none" xmlns="http://www.w3.org/2000/svg">
<circle cx="100" cy="100" r="98.5" fill="#051139" stroke="#5AF7DC" stroke-width="3"/>
<g clip-path="url(#clip0_177_343)">
<path d="M67.4557 140.736C67.3918 140.672 67.3279 140.512 67.4237 140.416L68.8929 138.72C68.9567 138.624 69.0845 138.624 69.1803 138.688C70.0426 139.392 71.2243 140.032 72.6296 140.032C74.0029 140.032 74.7694 139.392 74.7694 138.464C74.7694 137.696 74.2903 137.216 72.7254 136.992L72.0227 136.896C69.34 136.544 67.8709 135.264 67.8709 132.928C67.8709 130.496 69.6913 128.896 72.5337 128.896C74.2903 128.896 75.8872 129.408 77.005 130.272C77.1328 130.336 77.1328 130.432 77.0369 130.56L75.8552 132.32C75.7914 132.416 75.6636 132.448 75.5997 132.384C74.5777 131.712 73.6196 131.392 72.5337 131.392C71.384 131.392 70.7772 132 70.7772 132.832C70.7772 133.6 71.3201 134.08 72.8212 134.272L73.5238 134.4C76.2385 134.752 77.6757 136 77.6757 138.4C77.6757 140.8 75.9191 142.56 72.5018 142.56C70.4578 142.528 68.4777 141.728 67.4557 140.736Z" fill="white"/>
<path d="M79.2086 129.344C79.2086 129.216 79.2725 129.152 79.4002 129.152H87.8318C87.9595 129.152 88.0234 129.216 88.0234 129.344V131.424C88.0234 131.552 87.9595 131.616 87.8318 131.616H82.1788C82.1149 131.616 82.0511 131.648 82.0511 131.744V134.368C82.0511 134.432 82.083 134.496 82.1788 134.496H86.9056C87.0333 134.496 87.0972 134.56 87.0972 134.688V136.736C87.0972 136.864 87.0333 136.928 86.9056 136.928H82.1788C82.1149 136.928 82.0511 136.96 82.0511 137.056V139.776C82.0511 139.84 82.083 139.904 82.1788 139.904H87.8318C87.9595 139.904 88.0234 139.968 88.0234 140.096V142.176C88.0234 142.304 87.9595 142.368 87.8318 142.368H79.4002C79.2725 142.368 79.2086 142.304 79.2086 142.176V129.344Z" fill="white"/>
<path d="M97.0298 142.336C96.8701 142.336 96.8062 142.272 96.7423 142.144L94.4748 137.312H92.6863C92.6224 137.312 92.5585 137.344 92.5585 137.44V142.144C92.5585 142.272 92.4946 142.336 92.3669 142.336H89.9077C89.7799 142.336 89.7161 142.272 89.7161 142.144V129.344C89.7161 129.216 89.7799 129.152 89.9077 129.152H95.1454C97.8282 129.152 99.6167 130.848 99.6167 133.248C99.6167 134.944 98.7225 136.288 97.2853 136.896L99.8722 142.08C99.9361 142.208 99.8722 142.304 99.7445 142.304H97.0298V142.336ZM96.8062 133.248C96.8062 132.256 96.1036 131.616 95.0177 131.616H92.6863C92.6224 131.616 92.5585 131.648 92.5585 131.744V134.784C92.5585 134.848 92.5904 134.912 92.6863 134.912H95.0177C96.1036 134.88 96.8062 134.24 96.8062 133.248Z" fill="white"/>
<path d="M101.437 129.344C101.437 129.216 101.501 129.152 101.629 129.152H104.088C104.216 129.152 104.28 129.216 104.28 129.344V142.144C104.28 142.272 104.216 142.336 104.088 142.336H101.629C101.501 142.336 101.437 142.272 101.437 142.144V129.344Z" fill="white"/>
<path d="M106.387 129.344C106.387 129.216 106.451 129.152 106.579 129.152H115.011C115.138 129.152 115.202 129.216 115.202 129.344V131.424C115.202 131.552 115.138 131.616 115.011 131.616H109.358C109.294 131.616 109.23 131.648 109.23 131.744V134.368C109.23 134.432 109.262 134.496 109.358 134.496H114.084C114.212 134.496 114.276 134.56 114.276 134.688V136.736C114.276 136.864 114.212 136.928 114.084 136.928H109.358C109.294 136.928 109.23 136.96 109.23 137.056V139.776C109.23 139.84 109.262 139.904 109.358 139.904H115.011C115.138 139.904 115.202 139.968 115.202 140.096V142.176C115.202 142.304 115.138 142.368 115.011 142.368H106.579C106.451 142.368 106.387 142.304 106.387 142.176V129.344Z" fill="white"/>
<path d="M124.656 129.344C124.688 129.216 124.784 129.152 124.911 129.152H127.339C127.466 129.152 127.562 129.216 127.594 129.344L132.033 142.144C132.065 142.272 132.033 142.336 131.906 142.336H129.383C129.255 142.336 129.159 142.272 129.127 142.144L128.361 139.84H123.762L123.027 142.144C122.995 142.272 122.899 142.336 122.771 142.336H120.248C120.121 142.336 120.057 142.272 120.121 142.144L124.656 129.344ZM127.594 137.408L126.093 132.8H126.029L124.528 137.408H127.594Z" fill="white"/>
<path d="M85.0213 148.768H55V152H85.0213V148.768Z" fill="#00B74F"/>
<path d="M114.979 148.768H85.0212V152H114.979V148.768Z" fill="#E3E3E2"/>
<path d="M145 148.768H114.979V152H145V148.768Z" fill="#E4002B"/>
<path d="M99.9681 122.496L67.9347 102.144H87.5443L99.9681 122.496Z" fill="#1A1659"/>
<path d="M99.968 122.496L132.033 102.144H112.392L99.968 122.496Z" fill="#1A1659"/>
<path d="M99.968 69.28L87.5443 102.144H99.968H112.392L99.968 69.28Z" fill="#1A1659"/>
<path d="M87.5443 102.144L99.968 122.496L112.392 102.144H87.5443Z" fill="url(#paint0_linear_177_343)"/>
<path d="M99.9681 69.28L105.334 83.456H98.5628L93.9638 95.68H109.965L112.392 102.144H132.033L108.815 48C102.906 48 97.0298 48 91.1213 48L67.9347 102.144H87.5763L99.9681 69.28Z" fill="url(#paint1_linear_177_343)"/>
</g>
<defs>
<linearGradient id="paint0_linear_177_343" x1="87.5443" y1="112.32" x2="112.392" y2="112.32" gradientUnits="userSpaceOnUse">
<stop stop-color="#31ECFF"/>
<stop offset="0.0494" stop-color="#2DE2FF"/>
<stop offset="0.2964" stop-color="#1BB2FF"/>
<stop offset="0.5147" stop-color="#0E90FF"/>
<stop offset="0.694" stop-color="#067BFF"/>
<stop offset="0.8118" stop-color="#0373FF"/>
</linearGradient>
<linearGradient id="paint1_linear_177_343" x1="118.385" y1="51.49" x2="96.1584" y2="112.437" gradientUnits="userSpaceOnUse">
<stop stop-color="#31ECFF"/>
<stop offset="0.0488" stop-color="#2DE2FF"/>
<stop offset="0.2932" stop-color="#1BB2FF"/>
<stop offset="0.5091" stop-color="#0E90FF"/>
<stop offset="0.6863" stop-color="#067BFF"/>
<stop offset="0.8028" stop-color="#0373FF"/>
</linearGradient>
<clipPath id="clip0_177_343">
<rect width="90" height="104" fill="white" transform="translate(55 48)"/>
</clipPath>
</defs>
</svg>
