<svg width="87" height="100" viewBox="0 0 87 100" fill="none" xmlns="http://www.w3.org/2000/svg">
<g clip-path="url(#clip0_50_309)">
<path d="M12.0002 89.1692C11.9387 89.1077 11.8771 88.9538 11.9694 88.8615L13.3848 87.2308C13.4464 87.1385 13.5694 87.1384 13.6617 87.2C14.4925 87.8769 15.631 88.4923 16.9848 88.4923C18.3079 88.4923 19.0464 87.8769 19.0464 86.9846C19.0464 86.2461 18.5848 85.7846 17.0771 85.5692L16.4002 85.4769C13.8156 85.1384 12.4002 83.9077 12.4002 81.6615C12.4002 79.3231 14.1541 77.7846 16.8925 77.7846C18.5848 77.7846 20.1233 78.2769 21.2002 79.1077C21.3233 79.1692 21.3233 79.2615 21.231 79.3846L20.0925 81.0769C20.031 81.1692 19.9079 81.2 19.8464 81.1385C18.8617 80.4923 17.9387 80.1846 16.8925 80.1846C15.7848 80.1846 15.2002 80.7692 15.2002 81.5692C15.2002 82.3077 15.7233 82.7692 17.1694 82.9538L17.8464 83.0769C20.4617 83.4154 21.8464 84.6154 21.8464 86.9231C21.8464 89.2308 20.154 90.9231 16.8617 90.9231C14.8925 90.8923 12.9848 90.1231 12.0002 89.1692Z" fill="white"/>
<path d="M23.3232 78.2154C23.3232 78.0923 23.3848 78.0308 23.5079 78.0308H31.6309C31.754 78.0308 31.8155 78.0923 31.8155 78.2154V80.2154C31.8155 80.3385 31.754 80.4 31.6309 80.4H26.1848C26.1232 80.4 26.0617 80.4308 26.0617 80.5231V83.0461C26.0617 83.1077 26.0925 83.1692 26.1848 83.1692H30.7386C30.8617 83.1692 30.9232 83.2308 30.9232 83.3538V85.3231C30.9232 85.4461 30.8617 85.5077 30.7386 85.5077H26.1848C26.1232 85.5077 26.0617 85.5384 26.0617 85.6308V88.2461C26.0617 88.3077 26.0925 88.3692 26.1848 88.3692H31.6309C31.754 88.3692 31.8155 88.4308 31.8155 88.5538V90.5538C31.8155 90.6769 31.754 90.7384 31.6309 90.7384H23.5079C23.3848 90.7384 23.3232 90.6769 23.3232 90.5538V78.2154Z" fill="white"/>
<path d="M40.4924 90.7077C40.3386 90.7077 40.2771 90.6461 40.2155 90.5231L38.0309 85.8769H36.3078C36.2463 85.8769 36.1848 85.9077 36.1848 86V90.5231C36.1848 90.6461 36.1232 90.7077 36.0001 90.7077H33.6309C33.5078 90.7077 33.4463 90.6461 33.4463 90.5231V78.2154C33.4463 78.0923 33.5078 78.0308 33.6309 78.0308H38.6771C41.2617 78.0308 42.9848 79.6615 42.9848 81.9692C42.9848 83.6 42.1232 84.8923 40.7386 85.4769L43.2309 90.4615C43.2924 90.5846 43.2309 90.6769 43.1078 90.6769H40.4924V90.7077ZM40.2771 81.9692C40.2771 81.0154 39.6001 80.4 38.554 80.4H36.3078C36.2463 80.4 36.1848 80.4308 36.1848 80.5231V83.4461C36.1848 83.5077 36.2155 83.5692 36.3078 83.5692H38.554C39.6001 83.5385 40.2771 82.9231 40.2771 81.9692Z" fill="white"/>
<path d="M44.7383 78.2154C44.7383 78.0923 44.7998 78.0308 44.9229 78.0308H47.2921C47.4152 78.0308 47.4767 78.0923 47.4767 78.2154V90.5231C47.4767 90.6461 47.4152 90.7077 47.2921 90.7077H44.9229C44.7998 90.7077 44.7383 90.6461 44.7383 90.5231V78.2154Z" fill="white"/>
<path d="M49.5078 78.2154C49.5078 78.0923 49.5694 78.0308 49.6924 78.0308H57.8155C57.9386 78.0308 58.0001 78.0923 58.0001 78.2154V80.2154C58.0001 80.3385 57.9386 80.4 57.8155 80.4H52.3694C52.3078 80.4 52.2463 80.4308 52.2463 80.5231V83.0461C52.2463 83.1077 52.277 83.1692 52.3694 83.1692H56.9232C57.0463 83.1692 57.1078 83.2308 57.1078 83.3538V85.3231C57.1078 85.4461 57.0463 85.5077 56.9232 85.5077H52.3694C52.3078 85.5077 52.2463 85.5384 52.2463 85.6308V88.2461C52.2463 88.3077 52.277 88.3692 52.3694 88.3692H57.8155C57.9386 88.3692 58.0001 88.4308 58.0001 88.5538V90.5538C58.0001 90.6769 57.9386 90.7384 57.8155 90.7384H49.6924C49.5694 90.7384 49.5078 90.6769 49.5078 90.5538V78.2154Z" fill="white"/>
<path d="M67.1077 78.2154C67.1385 78.0923 67.2308 78.0308 67.3539 78.0308H69.6923C69.8154 78.0308 69.9077 78.0923 69.9385 78.2154L74.2154 90.5231C74.2462 90.6461 74.2154 90.7077 74.0923 90.7077H71.6616C71.5385 90.7077 71.4462 90.6461 71.4154 90.5231L70.677 88.3077H66.2462L65.5385 90.5231C65.5077 90.6461 65.4154 90.7077 65.2923 90.7077H62.8616C62.7385 90.7077 62.677 90.6461 62.7385 90.5231L67.1077 78.2154ZM69.9385 85.9692L68.4923 81.5385H68.4308L66.9847 85.9692H69.9385Z" fill="white"/>
<path d="M28.9231 96.8923H0V100H28.9231V96.8923Z" fill="#00B74F"/>
<path d="M57.7844 96.8923H28.9229V100H57.7844V96.8923Z" fill="#E3E3E2"/>
<path d="M86.7077 96.8923H57.7847V100H86.7077V96.8923Z" fill="#E4002B"/>
<path d="M43.323 71.6308L12.4614 52.0615H31.3537L43.323 71.6308Z" fill="#1A1659"/>
<path d="M43.3228 71.6308L74.2151 52.0615H55.292L43.3228 71.6308Z" fill="#1A1659"/>
<path d="M43.3227 20.4615L31.3535 52.0615H43.3227H55.292L43.3227 20.4615Z" fill="#1A1659"/>
<path d="M31.3535 52.0615L43.3227 71.6308L55.292 52.0615H31.3535Z" fill="url(#paint0_linear_50_309)"/>
<path d="M43.323 20.4615L48.4922 34.0923H41.9691L37.5383 45.8462H52.9537L55.2922 52.0615H74.2153L51.846 0C46.1537 0 40.4922 0 34.7999 0L12.4614 52.0615H31.3845L43.323 20.4615Z" fill="url(#paint1_linear_50_309)"/>
</g>
<defs>
<linearGradient id="paint0_linear_50_309" x1="31.3535" y1="61.8461" x2="55.292" y2="61.8461" gradientUnits="userSpaceOnUse">
<stop stop-color="#31ECFF"/>
<stop offset="0.0494" stop-color="#2DE2FF"/>
<stop offset="0.2964" stop-color="#1BB2FF"/>
<stop offset="0.5147" stop-color="#0E90FF"/>
<stop offset="0.694" stop-color="#067BFF"/>
<stop offset="0.8118" stop-color="#0373FF"/>
</linearGradient>
<linearGradient id="paint1_linear_50_309" x1="61.0658" y1="3.35572" x2="39.7264" y2="61.9852" gradientUnits="userSpaceOnUse">
<stop stop-color="#31ECFF"/>
<stop offset="0.0488" stop-color="#2DE2FF"/>
<stop offset="0.2932" stop-color="#1BB2FF"/>
<stop offset="0.5091" stop-color="#0E90FF"/>
<stop offset="0.6863" stop-color="#067BFF"/>
<stop offset="0.8028" stop-color="#0373FF"/>
</linearGradient>
<clipPath id="clip0_50_309">
<rect width="86.7077" height="100" fill="white"/>
</clipPath>
</defs>
</svg>
